<?xml version="1.0" standalone="no"?>
<!DOCTYPE svg PUBLIC "-//W3C//DTD SVG 20010904//EN"
 "http://www.w3.org/TR/2001/REC-SVG-20010904/DTD/svg10.dtd">
<svg version="1.0" xmlns="http://www.w3.org/2000/svg"
 width="1346.000000pt" height="1388.000000pt" viewBox="0 0 1346.000000 1388.000000"
 preserveAspectRatio="xMidYMid meet">

<g transform="translate(0.000000,1388.000000) scale(0.100000,-0.100000)"
fill="#000000" stroke="none">
<path d="M11346 13869 c-130 -31 -282 -162 -352 -305 -22 -44 -51 -97 -65
-119 -65 -99 -65 -191 -1 -257 37 -39 46 -35 17 8 -29 43 -32 91 -9 137 19 37
44 67 56 67 14 0 9 -192 -7 -255 -19 -71 -66 -160 -154 -292 -57 -84 -70 -98
-96 -101 -45 -4 -115 -31 -162 -63 -50 -35 -83 -85 -98 -152 l-11 -50 -254
-87 c-1089 -374 -1685 -677 -2147 -1091 -193 -173 -428 -478 -594 -771 -36
-63 -49 -78 -69 -79 -20 -1 -21 -2 -5 -6 19 -3 12 -20 -70 -186 -227 -456
-374 -946 -454 -1507 -118 -833 -88 -1435 98 -1974 145 -418 181 -499 79 -177
-110 349 -150 554 -168 880 -19 342 26 997 98 1411 l18 105 6 -135 c4 -97 13
-161 30 -227 l25 -91 -34 -70 c-84 -176 -95 -374 -26 -492 13 -23 12 -32 -13
-105 -25 -71 -28 -94 -29 -210 0 -127 1 -132 32 -196 18 -35 43 -75 57 -88
l25 -24 -24 -47 c-36 -71 -55 -159 -55 -253 0 -157 51 -265 196 -412 43 -45
98 -102 122 -129 43 -46 126 -106 146 -106 6 1 -5 9 -25 20 -19 10 -62 48 -95
85 -32 36 -88 98 -124 138 -133 146 -180 245 -180 382 0 143 54 273 144 345
59 47 68 70 40 101 -15 16 -19 17 -43 5 -14 -8 -37 -26 -50 -40 -23 -24 -26
-25 -43 -10 -9 9 -27 41 -38 71 -36 96 -24 243 30 368 24 56 47 77 117 106 60
26 82 58 54 83 -24 22 -40 20 -107 -14 -32 -16 -62 -26 -66 -22 -4 4 -15 36
-24 72 -21 81 -10 170 36 289 38 97 81 158 125 177 38 15 51 44 35 74 -13 25
-24 25 -77 1 l-42 -19 -16 71 c-24 104 -30 225 -16 299 15 76 63 169 105 205
45 38 127 73 187 80 l53 6 -22 -29 c-133 -172 -186 -297 -185 -434 1 -112 28
-186 92 -250 l47 -47 -18 -29 c-27 -44 -88 -192 -98 -241 -20 -89 23 -253 70
-268 11 -3 20 -10 20 -14 0 -5 -17 -46 -39 -92 -55 -119 -95 -269 -87 -326 8
-59 39 -127 71 -157 l26 -25 -27 -18 c-15 -9 -46 -43 -69 -75 -56 -75 -78
-157 -74 -270 4 -76 8 -93 46 -169 24 -46 52 -95 62 -109 l20 -25 -14 55 c-21
78 -38 266 -30 324 3 27 12 64 20 82 16 40 95 126 139 153 52 33 177 69 274
81 238 29 406 -56 510 -259 39 -76 42 -88 42 -159 -1 -72 -7 -99 -54 -227 -17
-46 78 76 111 142 32 65 35 78 30 128 -10 98 -99 259 -184 335 -64 57 -168
106 -256 121 -142 24 -352 -7 -479 -70 l-58 -30 -17 32 c-24 45 -20 132 12
252 125 473 447 633 945 470 41 -13 116 -36 166 -49 50 -14 99 -29 109 -32 39
-15 1 18 -93 80 -72 47 -120 71 -186 91 -371 113 -675 50 -851 -175 -27 -33
-52 -60 -57 -60 -5 0 -16 17 -25 38 -25 58 -2 198 52 322 136 310 335 500 605
577 52 14 99 18 235 17 153 -1 180 -3 270 -28 55 -15 136 -37 180 -47 44 -11
108 -29 143 -40 35 -12 65 -19 68 -17 6 7 -122 91 -192 126 -137 69 -407 112
-580 92 -135 -15 -204 -34 -309 -85 -159 -78 -283 -189 -381 -343 -21 -34 -43
-60 -49 -59 -18 6 -55 83 -65 137 -12 64 8 207 41 297 38 100 159 266 288 392
189 185 430 306 675 340 96 14 259 14 351 1 138 -20 557 -130 570 -149 3 -5
10 -53 15 -108 6 -54 16 -120 24 -148 l13 -50 7 83 c7 91 37 255 62 342 60
209 225 365 460 432 114 32 285 32 366 0 111 -45 204 -158 252 -307 18 -57 61
-283 74 -395 l9 -75 -54 -125 c-70 -158 -301 -616 -394 -780 -153 -270 -301
-468 -511 -685 -107 -111 -338 -325 -350 -325 -3 0 -8 31 -11 69 -8 92 -26
132 -90 194 -100 98 -238 143 -407 134 -169 -10 -293 -66 -395 -178 -72 -79
-103 -142 -116 -234 -6 -43 -7 -81 -2 -86 4 -4 39 45 78 109 78 131 125 187
194 231 174 112 452 98 581 -30 46 -45 123 -145 144 -186 l16 -32 -97 -79
c-214 -173 -403 -302 -697 -480 -183 -109 -515 -296 -646 -362 -34 -17 -60
-34 -57 -36 7 -8 465 218 692 340 531 288 828 498 1153 818 344 338 545 639
864 1288 224 458 297 679 393 1203 63 345 67 491 26 887 -38 370 -40 377 -126
575 -32 72 -65 149 -75 171 l-18 42 44 -44 c32 -33 51 -44 74 -44 38 0 67 29
76 76 10 52 -2 198 -26 317 -42 207 -119 307 -237 307 -28 0 -34 3 -23 10 24
15 146 12 188 -6 82 -34 135 -112 173 -255 18 -68 23 -115 25 -254 3 -199 7
-259 39 -500 41 -306 45 -345 55 -551 16 -324 -11 -726 -71 -1049 -97 -520
-305 -1015 -635 -1510 -141 -212 -252 -352 -413 -518 -181 -187 -297 -277
-709 -550 -653 -434 -966 -684 -1422 -1139 -113 -112 -223 -219 -245 -237
l-40 -33 49 34 c27 18 130 109 230 201 365 339 607 522 1348 1018 280 187 552
375 605 418 557 447 1082 1311 1268 2086 87 360 118 642 119 1065 0 331 -4
390 -55 770 -22 160 -33 295 -39 465 -10 289 -31 384 -108 503 -28 43 -105
112 -126 112 -2 0 -17 5 -31 10 -21 8 -25 13 -16 23 14 18 2 117 -15 124 -31
12 -10 22 56 29 l70 7 53 76 c78 110 157 245 186 315 21 51 26 83 31 190 5
124 6 129 29 138 22 8 23 7 17 -23 l-6 -31 31 26 c30 26 75 43 85 33 3 -2 -17
-49 -44 -103 -77 -154 -105 -250 -121 -425 -6 -58 -15 -118 -20 -132 -10 -27
-12 -27 -79 -21 -55 5 -70 4 -81 -10 -12 -14 -11 -16 9 -16 12 0 40 -16 63
-35 60 -52 109 -47 149 13 14 21 16 18 27 -60 7 -46 15 -96 18 -113 l6 -30
-48 43 c-54 48 -73 55 -136 50 l-44 -3 45 -42 c25 -23 65 -60 89 -83 75 -69
37 -56 -67 22 -64 48 -113 78 -137 82 -20 4 -39 5 -42 2 -3 -2 5 -22 17 -44
14 -25 65 -73 141 -132 65 -51 119 -95 119 -97 0 -2 -17 8 -37 21 -21 13 -49
27 -63 31 -22 6 -20 2 17 -36 48 -50 126 -188 188 -332 40 -94 42 -97 49 -67
3 18 6 60 6 94 1 33 5 93 10 131 24 167 23 195 -4 300 -33 132 -56 275 -55
350 l0 60 15 -40 c28 -74 75 -256 99 -376 22 -113 56 -196 75 -184 5 3 12 21
16 40 10 54 21 42 29 -32 8 -78 54 -203 66 -182 4 8 12 39 17 69 11 59 -10
227 -46 381 l-19 76 166 -2 c210 -2 217 -4 398 -126 l24 -17 -48 -6 c-26 -4
-61 -9 -78 -12 l-30 -5 34 22 c32 21 32 23 15 37 -28 21 -124 68 -168 82 -53
17 -159 15 -188 -4 -13 -8 -31 -28 -40 -44 l-17 -29 88 4 c89 4 171 -9 171
-28 0 -5 -35 -27 -77 -48 -43 -20 -93 -47 -112 -59 -19 -11 -38 -19 -43 -16
-4 3 -8 0 -8 -6 0 -18 71 -42 108 -37 l33 6 -51 -56 c-78 -86 -76 -96 4 -17
197 194 418 214 716 64 232 -116 378 -253 499 -466 40 -71 131 -267 131 -282
0 -4 -26 43 -58 103 -223 427 -505 631 -846 613 -81 -4 -101 -10 -176 -45 -78
-37 -181 -105 -135 -89 105 37 327 61 432 46 248 -34 467 -221 640 -546 46
-87 155 -345 148 -352 -2 -2 -13 2 -26 9 -20 10 -25 9 -41 -11 -11 -13 -17
-29 -14 -35 2 -7 10 -47 17 -91 14 -89 37 -126 67 -108 19 12 23 89 9 174 -6
39 -5 41 4 15 30 -84 124 -287 127 -273 2 9 -4 70 -12 134 -9 65 -14 119 -13
121 6 6 167 -516 186 -602 123 -561 102 -1311 -55 -1995 -33 -142 -100 -379
-110 -389 -8 -9 -4 15 16 84 56 190 115 521 145 810 9 84 19 292 22 470 6 329
2 381 -39 575 l-12 55 -12 -150 c-7 -82 -13 -247 -14 -365 -1 -118 -5 -260 -9
-315 l-6 -100 -8 100 c-5 70 -15 114 -31 150 l-23 50 -13 -40 c-8 -26 -16
-146 -21 -335 -5 -162 -15 -333 -22 -378 -16 -103 -4 -226 19 -195 12 16 13
16 14 2 1 -59 -136 -559 -153 -559 -1 0 1 42 6 93 12 131 1 748 -17 967 -49
570 -95 923 -147 1115 -23 83 -43 152 -46 155 -14 13 8 -373 31 -540 68 -502
100 -943 100 -1355 0 -283 -3 -356 -22 -515 -26 -209 -35 -257 -62 -317 -10
-23 -16 -44 -13 -47 3 -3 0 -20 -6 -38 -6 -18 -8 -28 -3 -23 9 9 121 169 150
211 6 11 -1 -9 -18 -43 -74 -154 -190 -324 -291 -428 -44 -46 -51 -59 -83
-172 -20 -68 -44 -140 -55 -162 -44 -86 -231 -291 -266 -291 -7 0 -18 7 -25
15 -11 13 -8 15 22 15 19 0 43 7 54 16 19 15 19 15 -2 9 -40 -11 -77 35 -124
152 -78 197 -173 374 -421 788 -110 184 -151 243 -203 295 -36 35 -66 62 -66
60 0 -3 15 -46 34 -95 18 -50 70 -150 116 -225 45 -74 85 -139 88 -145 2 -5
-52 46 -120 114 -106 104 -134 126 -179 141 -30 10 -55 17 -57 15 -14 -13 59
-104 190 -235 84 -85 182 -193 217 -240 35 -47 83 -98 108 -115 37 -26 54 -50
114 -167 38 -76 68 -138 66 -138 -3 0 -33 39 -67 86 -132 182 -349 444 -460
555 -104 105 -197 179 -223 179 -6 0 11 -14 36 -31 108 -71 260 -267 587 -757
132 -199 250 -366 260 -372 69 -37 174 36 324 224 64 81 91 136 129 270 31
109 36 116 96 182 173 188 344 509 467 879 168 504 254 1055 254 1629 0 361
-29 631 -95 891 -39 156 -170 558 -256 787 -202 536 -387 758 -744 897 -87 34
-126 45 -242 67 -16 3 -24 14 -29 39 -12 65 -129 146 -259 180 -37 9 -104 15
-180 15 -102 0 -126 -3 -159 -21 -21 -11 -39 -19 -40 -17 -1 2 -21 71 -44 153
-46 163 -67 212 -112 265 l-29 35 -1 -40 c0 -45 14 -140 26 -170 4 -10 -10 0
-32 24 l-39 44 -6 -34 c-6 -34 -6 -34 -8 -4 -3 74 53 244 129 395 21 41 57
119 80 173 33 75 51 104 81 128 76 60 113 156 85 223 -27 64 -127 91 -240 65z
m133 -80 c53 -19 38 -76 -39 -147 -32 -29 -223 -123 -317 -156 -85 -30 -88
-25 -48 54 55 109 194 224 301 249 54 13 67 13 103 0z m-99 -314 c-24 -24 -44
-44 -45 -42 0 1 -6 10 -14 19 -11 15 -7 20 36 42 69 36 73 32 23 -19z m-764
-856 c-14 -17 -26 -35 -26 -40 0 -14 21 -53 33 -60 5 -4 -21 -10 -58 -14 -37
-4 -70 -4 -73 0 -13 13 36 81 83 113 59 40 74 41 41 1z m-361 -309 c-3 -10 -1
-29 5 -41 13 -23 14 -23 190 -4 46 5 61 2 90 -16 33 -21 34 -22 13 -30 -48
-18 -49 -64 -2 -130 25 -35 15 -37 -64 -10 -61 21 -63 21 -45 -12 8 -16 1 -13
-28 13 -22 19 -50 42 -64 51 -20 13 -23 19 -12 31 9 12 8 19 -11 36 -14 13
-30 19 -43 16 -17 -5 -42 -2 -174 21 -23 4 -41 2 -53 -7 -16 -12 -17 -17 -6
-41 7 -15 20 -27 31 -27 10 0 18 -4 18 -10 0 -5 -15 -10 -33 -10 -92 0 -216
-35 -282 -80 -40 -27 -41 -27 -165 -21 l-125 6 150 59 c121 47 601 224 613
226 2 0 1 -9 -3 -20z m950 -72 c-4 -27 -10 -50 -14 -53 -4 -2 -25 15 -47 37
-21 23 -31 36 -21 28 17 -12 21 -11 38 10 10 14 22 36 26 49 l6 25 9 -25 c5
-13 6 -45 3 -71z m-511 -198 c32 -189 30 -283 -5 -218 -7 13 -60 72 -118 132
-76 78 -95 101 -66 83 22 -15 55 -31 73 -38 57 -20 88 28 62 95 -7 20 -6 27 8
35 9 5 20 7 24 3 4 -4 14 -45 22 -92z m-397 19 c48 -23 105 -89 166 -194 41
-69 180 -375 174 -381 -1 -2 -25 3 -52 12 -110 32 -282 -31 -383 -140 -111
-121 -163 -283 -123 -381 l13 -30 25 49 c14 27 31 74 39 104 42 162 156 277
309 313 28 6 73 20 100 31 84 33 80 34 103 -20 26 -61 46 -181 67 -417 9 -99
20 -209 25 -245 5 -36 9 -110 9 -165 l-1 -100 -14 70 c-7 39 -18 80 -24 93
-32 71 -143 167 -251 217 -114 52 -322 71 -435 41 -127 -34 -260 -137 -332
-257 -34 -58 -65 -179 -60 -233 l3 -31 24 45 c13 25 36 63 51 85 15 22 43 66
64 98 119 186 300 259 528 212 121 -25 205 -73 291 -166 43 -46 91 -111 112
-151 l37 -70 -16 -117 c-36 -247 -126 -663 -177 -819 -17 -51 -32 -92 -34 -90
-2 2 1 44 6 93 16 143 -12 292 -81 432 -95 194 -239 285 -450 285 -233 0 -457
-92 -595 -245 -70 -77 -138 -210 -162 -317 -10 -44 -21 -80 -25 -80 -4 0 -36
18 -70 41 -184 119 -363 169 -630 177 -186 5 -282 -5 -417 -44 -151 -44 -346
-149 -456 -245 -42 -37 -59 -30 -76 34 -14 54 -2 116 50 249 129 328 352 578
623 695 328 142 752 129 1181 -38 122 -47 167 -87 218 -192 l31 -62 -7 50
c-15 108 -62 191 -139 244 -92 64 -395 149 -611 172 -133 14 -340 7 -450 -16
-115 -24 -249 -70 -334 -116 -40 -22 -75 -38 -76 -37 -10 10 33 95 91 182 90
134 130 181 225 262 188 160 372 253 610 306 88 19 133 23 289 23 191 0 252
-7 435 -51 55 -13 150 -35 210 -48 61 -13 119 -27 130 -31 42 -14 -31 34 -126
84 -181 95 -407 137 -699 128 -196 -6 -280 -20 -436 -72 -103 -34 -264 -119
-366 -192 -82 -59 -258 -222 -275 -257 -10 -17 -11 -18 -36 -1 -15 9 -53 19
-87 22 -40 4 -60 10 -60 19 0 7 14 52 31 100 95 262 347 469 676 555 69 18 84
19 131 8 l53 -12 -49 -51 c-27 -28 -63 -71 -79 -96 -36 -53 -76 -130 -68 -130
7 0 153 119 224 183 107 96 231 168 361 209 66 20 94 23 230 22 139 0 164 -3
245 -27 50 -16 183 -74 300 -132 115 -57 211 -103 212 -101 2 2 -30 40 -72 84
-69 74 -88 87 -198 141 -137 68 -256 105 -384 121 -48 6 -89 12 -90 14 -2 2
23 11 56 20 33 9 90 30 127 47 196 89 373 91 544 7 52 -26 94 -62 209 -177
156 -157 159 -158 108 -21 -39 106 -222 263 -359 309 -91 30 -199 42 -287 30
-41 -5 -76 -7 -78 -5 -3 2 24 18 59 35 51 25 90 35 208 50 80 10 151 19 159
20 8 0 34 -8 58 -20z m-612 -108 c29 -7 28 -8 -40 -40 -46 -21 -91 -52 -130
-90 l-60 -59 -88 -11 c-150 -20 -286 -72 -419 -162 -55 -38 -57 -38 -60 -16
-2 13 -16 29 -36 39 -19 9 -36 18 -38 21 -6 6 131 109 210 157 125 76 267 131
399 155 77 14 213 17 262 6z m-997 -309 c-18 -16 -46 -32 -63 -36 -24 -5 -20
0 25 29 67 42 82 45 38 7z m4322 -167 c0 -5 -5 -3 -10 5 -5 8 -10 20 -10 25 0
6 5 3 10 -5 5 -8 10 -19 10 -25z m-5100 -499 c-11 -32 -23 -80 -26 -108 -6
-47 -10 -52 -78 -102 -79 -59 -130 -107 -196 -181 -43 -49 -43 -49 -20 -10 90
154 323 475 336 463 2 -3 -5 -31 -16 -62z m151 -207 c19 -7 35 -13 37 -15 2
-1 -9 -35 -23 -76 -18 -46 -28 -95 -29 -134 l-1 -61 -53 -39 c-83 -60 -211
-200 -280 -304 -34 -52 -68 -104 -76 -115 -15 -20 -15 -20 -16 3 0 23 -3 24
-60 20 l-60 -3 0 50 c1 116 68 292 155 405 83 108 213 217 308 260 50 23 54
23 98 9z m-608 -476 c-26 -84 -47 -231 -38 -273 4 -21 -3 -32 -46 -69 -67 -57
-132 -158 -165 -257 -30 -90 -43 -245 -27 -331 l10 -52 -39 -31 c-46 -38 -81
-88 -114 -167 -24 -55 -25 -56 -19 -18 25 167 155 604 246 827 45 112 205 448
212 448 3 0 -6 -35 -20 -77z m132 -377 c-44 -94 -54 -142 -55 -244 0 -88 14
-136 50 -172 l22 -22 -58 -61 c-32 -34 -59 -64 -61 -66 -2 -2 -12 4 -23 14
-18 16 -27 17 -87 7 -38 -7 -78 -15 -89 -18 -20 -5 -22 -1 -28 68 -15 153 36
317 130 427 48 55 148 121 185 121 15 0 31 5 34 10 3 6 8 10 10 10 2 0 -12
-33 -30 -74z m-578 -898 c-3 -7 -5 -2 -5 12 0 14 2 19 5 13 2 -7 2 -19 0 -25z"/>
<path d="M11316 13720 c-38 -12 -101 -56 -120 -85 -8 -12 -12 -32 -9 -44 9
-34 58 -28 104 14 22 19 48 35 59 35 11 0 27 11 36 25 16 24 16 27 -1 45 -20
22 -26 23 -69 10z"/>
<path d="M8860 13533 c-211 -15 -464 -98 -676 -220 -49 -29 -90 -43 -141 -51
-177 -29 -433 -138 -666 -285 -301 -189 -565 -418 -875 -757 -65 -71 -127
-128 -161 -149 -111 -66 -258 -171 -353 -251 -178 -148 -278 -256 -491 -529
-62 -79 -133 -135 -207 -162 -70 -25 -85 -40 -76 -73 7 -30 8 -31 186 -56 281
-40 378 -70 725 -222 447 -197 848 -315 1125 -334 121 -8 129 3 13 17 -177 22
-417 100 -748 241 -115 50 -212 92 -215 95 -3 2 24 1 60 -2 52 -6 90 -20 192
-71 242 -122 460 -179 662 -172 115 4 162 18 226 68 l25 20 -200 -3 c-141 -1
-218 2 -260 12 l-60 13 65 17 c100 25 144 52 148 88 4 44 -30 50 -99 18 -30
-13 -74 -27 -99 -31 l-44 -7 46 53 c26 30 46 56 44 58 -5 5 -127 -33 -203 -63
-64 -26 -131 -30 -258 -16 -66 7 -56 15 35 26 74 9 228 48 320 81 239 86 447
241 615 459 66 87 138 205 170 280 l15 37 -61 -53 c-54 -47 -83 -77 -179 -191
l-26 -30 4 43 4 42 -38 -24 c-22 -13 -68 -53 -104 -89 -66 -67 -147 -127 -233
-173 -27 -14 -60 -40 -73 -59 l-25 -33 50 -3 c44 -3 60 2 120 37 37 22 91 59
119 81 68 53 78 51 17 -2 -209 -184 -463 -293 -770 -328 -55 -6 -135 -18 -179
-26 -109 -20 -131 -17 -211 22 -38 18 -61 32 -50 29 69 -16 218 -23 317 -14
160 14 234 33 303 79 l60 40 -80 0 c-44 -1 -107 -7 -140 -16 -88 -21 -298 -30
-390 -15 -98 16 -152 35 -297 105 -65 31 -120 56 -123 56 -11 0 34 -77 64
-109 19 -21 24 -31 14 -26 -38 14 -212 53 -295 65 -49 7 -88 17 -88 22 0 4 4
8 9 8 21 0 119 102 202 211 50 66 95 121 100 124 4 3 -1 -15 -12 -40 -11 -25
-19 -50 -17 -55 2 -5 38 20 82 57 44 37 73 56 66 44 -11 -22 -11 -22 37 -15
26 4 59 15 73 24 41 28 140 76 216 103 75 27 181 50 167 37 -33 -33 -336 -191
-433 -227 l-65 -24 53 6 c65 7 188 48 354 116 167 69 171 69 38 2 -109 -55
-336 -200 -328 -209 8 -8 295 94 368 131 41 21 117 58 169 82 l94 43 -96 -97
c-88 -88 -97 -100 -97 -134 0 -37 0 -38 31 -29 19 6 76 53 145 120 63 60 118
110 124 110 5 0 19 18 30 39 18 37 18 40 2 44 -16 4 24 25 178 93 l55 25 -69
-63 c-62 -57 -69 -67 -62 -91 11 -47 47 -36 142 46 88 75 110 111 81 132 -15
11 -12 14 21 28 20 8 114 47 207 87 198 84 405 163 411 157 3 -2 -12 -66 -31
-142 -20 -75 -35 -138 -33 -140 7 -7 154 261 185 338 18 44 31 82 30 84 -2 1
-43 -11 -92 -27 -49 -16 -90 -28 -92 -27 -5 6 277 115 422 163 152 52 301 89
411 105 43 6 115 19 159 29 95 23 370 70 405 70 24 0 24 -1 -8 -20 -18 -11
-37 -20 -43 -20 -6 0 -25 -10 -42 -22 -30 -22 -42 -23 -192 -23 -175 -1 -246
-12 -414 -67 -121 -40 -205 -101 -320 -233 -49 -55 -47 -48 11 37 26 39 38 68
38 92 0 20 -2 36 -4 36 -1 0 -17 -5 -34 -11 -44 -15 -242 -308 -242 -358 0
-31 2 -33 27 -26 25 6 25 5 12 -14 -8 -11 -54 -77 -104 -148 -79 -112 -147
-238 -170 -314 -16 -53 130 112 254 286 253 355 379 492 505 550 74 34 191 66
311 84 39 6 114 24 167 40 l97 29 -58 -67 c-33 -36 -111 -135 -174 -219 -107
-143 -131 -187 -162 -291 -13 -42 110 73 173 163 69 99 157 210 233 297 42 48
77 75 129 102 l72 37 -40 -48 c-74 -89 -111 -155 -105 -184 3 -16 10 -28 17
-28 33 1 56 16 76 52 12 22 50 70 84 107 33 36 67 76 73 88 12 21 11 23 -13
29 -14 4 -22 10 -17 15 16 16 196 49 233 43 l35 -5 -27 25 c-16 14 -25 27 -20
29 4 3 42 8 86 12 89 8 88 18 11 -83 -35 -46 -43 -52 -67 -47 -22 5 -32 0 -59
-30 -49 -54 -109 -147 -109 -170 1 -63 56 -57 96 11 l27 45 19 -32 c19 -30 20
-31 39 -13 11 10 36 47 55 84 19 36 57 91 84 123 39 46 50 66 50 93 0 26 4 34
18 34 9 0 42 3 72 6 l55 6 -60 -36 c-33 -20 -83 -61 -111 -91 -41 -44 -53 -64
-57 -100 -12 -86 -1 -85 92 13 122 127 226 175 408 188 78 5 193 31 193 44 0
4 -12 13 -27 20 -27 13 -23 14 72 30 l100 16 -225 7 c-190 7 -259 5 -445 -13
-489 -45 -836 -91 -1045 -137 -63 -13 -153 -31 -200 -38 -47 -7 -107 -18 -134
-24 -27 -7 -50 -10 -52 -8 -7 7 291 84 446 116 299 62 633 110 910 131 80 6
240 20 355 30 116 11 266 24 334 30 68 5 125 11 128 13 2 2 -40 7 -94 11 -257
17 -275 19 -259 28 22 12 20 55 -3 68 -27 14 -41 13 -41 -5 0 -8 -4 -15 -10
-15 -5 0 -7 7 -4 15 4 10 0 15 -11 15 -9 0 -51 16 -93 36 -105 50 -154 46
-132 -10 9 -25 46 -47 180 -104 20 -9 5 -11 -75 -11 -429 -4 -1231 -131 -1645
-260 -36 -12 -68 -21 -72 -21 -3 0 -1 14 5 31 11 27 10 32 -7 45 -11 8 -31 14
-44 14 -20 0 -22 -3 -13 -14 20 -24 -244 -70 -579 -99 l-145 -13 69 -44 69
-44 -74 -25 -74 -24 35 -16 c20 -9 64 -16 101 -16 82 0 113 21 107 72 -4 31
-3 32 42 37 202 25 299 38 320 43 46 11 16 -4 -75 -37 -196 -71 -659 -289
-1220 -574 l-280 -142 -35 18 c-67 35 -242 -2 -410 -87 -40 -20 -69 -31 -65
-25 3 5 42 39 86 74 l79 64 31 -15 c24 -12 36 -13 55 -4 14 6 50 14 80 17 45
6 58 11 66 30 9 19 8 28 -5 42 -14 15 -26 17 -69 12 l-51 -7 24 20 c39 32 170
94 244 116 62 18 114 27 298 48 26 3 50 9 52 13 3 4 -27 18 -66 30 -126 41
-288 15 -463 -72 -44 -21 -92 -48 -108 -59 -15 -11 -28 -18 -28 -15 0 7 147
108 226 155 53 31 94 67 162 144 148 167 562 563 510 489 -9 -13 -45 -56 -81
-95 -35 -40 -108 -126 -162 -192 -54 -66 -105 -129 -114 -139 -18 -22 13 -3
107 67 42 32 55 37 67 27 11 -9 27 -9 69 0 31 6 65 9 75 5 11 -3 31 -3 45 1
21 5 26 12 26 39 0 32 1 33 55 40 30 3 94 5 142 4 87 -2 133 5 133 20 0 5 -9
20 -20 34 -27 33 -105 43 -235 27 -119 -14 -142 -22 -157 -55 -6 -14 -20 -25
-31 -25 -16 0 -8 13 39 63 33 34 88 97 124 140 130 158 331 290 593 388 78 29
116 37 88 20 -35 -22 88 -29 240 -13 177 19 354 -9 489 -78 67 -34 149 -64
156 -57 7 7 -38 77 -62 99 -31 27 -143 76 -224 97 -64 17 -70 20 -37 20 112 2
433 -98 637 -198 l85 -42 -59 55 c-32 30 -87 74 -122 97 -35 23 -64 43 -64 45
0 14 256 -107 368 -174 85 -52 230 -117 239 -108 13 13 -99 122 -172 167 -90
56 -274 148 -367 184 -35 13 -58 24 -53 24 17 1 196 -47 258 -68 31 -11 57
-18 57 -16 0 10 -127 89 -207 129 -80 40 -295 106 -398 123 -51 8 -29 18 85
37 265 44 513 26 767 -55 86 -28 348 -145 493 -220 36 -19 69 -36 74 -38 21
-9 -135 131 -194 175 -152 112 -424 206 -680 235 -95 11 -344 8 -450 -6 -19
-2 -3 3 35 12 104 25 439 25 555 -1 173 -37 388 -123 524 -208 29 -18 71 -34
96 -37 41 -5 47 -10 65 -47 12 -24 47 -63 85 -94 36 -29 106 -95 155 -145 50
-51 105 -100 124 -110 l34 -17 -6 41 c-4 35 -2 41 13 41 13 0 16 6 12 25 -4
23 -2 25 37 25 22 0 41 4 41 10 0 30 -31 64 -93 101 -79 47 -143 61 -162 36
-10 -14 -20 -9 -83 44 -40 34 -72 63 -72 64 0 5 61 -12 140 -37 167 -53 325
-164 413 -288 14 -20 13 -17 -2 15 -84 170 -313 319 -591 384 -102 24 -117 31
-237 103 -241 146 -594 224 -903 201z m-530 -282 c20 -6 14 -9 -34 -15 -33 -4
-66 -10 -75 -13 -9 -3 -5 4 9 16 26 21 56 25 100 12z m-11 -87 c2 -2 -35 -4
-84 -4 -100 0 -259 -22 -372 -50 -42 -11 -78 -18 -80 -16 -8 8 216 76 287 87
41 7 81 15 89 19 12 6 148 -24 160 -36z m-1542 -1460 c-36 -24 -303 -154 -316
-154 -8 1 331 177 344 179 5 0 -7 -10 -28 -25z m96 -985 c-6 -6 -9 -18 -6 -25
4 -10 0 -12 -13 -8 -35 13 -37 17 -13 30 30 16 47 18 32 3z"/>
<path d="M9067 13317 l-28 -12 28 -26 c17 -15 69 -39 128 -58 106 -35 201 -79
251 -116 17 -13 47 -27 67 -30 35 -7 37 -6 37 18 0 60 -111 133 -308 201 -112
39 -132 41 -175 23z"/>
<path d="M9393 12943 c-7 -2 -13 -17 -13 -33 0 -24 10 -34 63 -68 102 -64 102
-64 127 -44 35 28 18 55 -64 106 -71 45 -87 50 -113 39z"/>
<path d="M7586 12894 l-39 -27 27 -14 c18 -10 69 -15 154 -17 109 -3 138 -7
202 -30 108 -39 165 -55 168 -46 2 5 -4 24 -12 44 -12 29 -27 42 -70 62 -78
35 -176 54 -291 54 -92 0 -104 -2 -139 -26z"/>
<path d="M8449 12792 c-22 -19 -22 -20 -6 -46 10 -14 22 -26 27 -26 23 0 123
-44 148 -64 15 -13 42 -27 60 -31 l33 -7 -3 38 c-2 31 -11 44 -45 70 -37 28
-96 56 -169 78 -14 4 -29 0 -45 -12z"/>
<path d="M7243 12680 c-26 -10 -31 -51 -10 -68 13 -10 148 -9 166 3 17 10 13
62 -5 69 -23 9 -126 6 -151 -4z"/>
<path d="M9243 12333 c-25 -27 -75 -86 -110 -132 -52 -69 -63 -91 -63 -123 0
-21 2 -38 4 -38 31 0 70 31 112 88 26 37 72 92 101 122 46 50 73 94 73 121 0
5 -16 9 -35 9 -29 0 -44 -8 -82 -47z"/>
<path d="M8515 12156 c-82 -38 -215 -206 -380 -481 -71 -119 -95 -168 -104
-215 -7 -34 -10 -65 -7 -68 13 -13 90 78 138 163 83 145 210 334 300 443 92
112 136 182 116 182 -7 0 -36 -11 -63 -24z"/>
<path d="M6724 12160 c-112 -12 -178 -35 -210 -73 l-27 -32 46 -3 c25 -2 82 4
127 12 96 19 252 21 365 5 60 -8 91 -8 124 1 l43 11 -39 29 c-27 20 -60 32
-104 39 -98 15 -246 20 -325 11z"/>
<path d="M12070 12133 c1 -22 65 -88 139 -143 121 -91 256 -224 317 -310 29
-41 66 -88 83 -104 l31 -30 0 61 c0 56 -3 65 -49 129 -93 132 -364 370 -448
393 -45 13 -73 14 -73 4z"/>
<path d="M8239 12096 c-56 -42 -124 -118 -168 -191 -27 -45 -32 -61 -27 -90 7
-35 7 -35 36 -20 15 8 49 46 74 83 47 71 109 135 161 166 31 18 68 70 57 80
-3 3 -24 6 -46 6 -30 0 -53 -9 -87 -34z"/>
<path d="M11606 12042 c4 -20 15 -50 26 -67 10 -16 18 -40 18 -51 0 -47 -63
-96 -157 -124 -23 -7 -54 -26 -69 -41 l-27 -28 29 -12 c39 -14 91 -7 159 25
30 14 52 20 48 13 -5 -7 -23 -35 -41 -64 -23 -36 -43 -55 -66 -63 -19 -6 -42
-20 -52 -31 -17 -19 -17 -19 20 -4 21 9 48 15 61 13 17 -2 40 13 84 55 71 68
137 102 173 88 12 -5 34 -20 47 -35 38 -40 243 -394 340 -586 79 -154 171
-361 171 -379 0 -3 -30 55 -66 129 -60 124 -104 188 -145 210 -27 15 7 -122
53 -213 82 -165 177 -424 214 -588 9 -41 30 -103 47 -139 30 -64 30 -65 37
-35 4 17 8 50 9 74 0 24 4 41 7 38 4 -4 19 -66 34 -139 15 -73 42 -200 61
-283 l34 -149 5 164 5 165 18 -145 c76 -632 87 -1250 32 -1840 -9 -91 -20
-217 -26 -280 -5 -63 -19 -169 -30 -234 -10 -66 -17 -121 -15 -124 9 -8 79
235 113 392 48 225 63 409 70 857 7 498 -12 860 -67 1289 -97 740 -232 1177
-486 1571 -99 155 -306 357 -449 439 -34 19 -29 12 31 -43 174 -161 392 -480
518 -757 92 -201 162 -428 216 -694 39 -194 37 -213 -6 -51 -103 391 -235 698
-484 1124 -151 258 -173 291 -219 322 -36 25 -112 33 -159 16 -23 -9 -23 -9
-8 22 24 46 20 117 -9 166 -19 34 -33 45 -65 53 l-41 10 7 -36z m784 -1337 c0
-5 -5 -3 -10 5 -5 8 -10 20 -10 25 0 6 5 3 10 -5 5 -8 10 -19 10 -25z m237
-507 c-3 -7 -5 -2 -5 12 0 14 2 19 5 13 2 -7 2 -19 0 -25z"/>
<path d="M12000 12012 c16 -27 117 -136 223 -243 106 -107 221 -232 256 -279
61 -82 153 -169 159 -151 2 5 -3 34 -11 65 -17 63 -86 157 -238 323 -153 166
-280 280 -343 308 -31 14 -61 25 -66 25 -5 0 4 -22 20 -48z"/>
<path d="M11866 11997 c35 -60 84 -119 178 -217 171 -177 289 -336 371 -500
38 -76 124 -204 132 -197 2 3 0 38 -5 79 -14 112 -102 277 -250 468 -87 111
-278 307 -322 330 -67 34 -111 50 -104 37z"/>
<path d="M11284 11875 c85 -221 186 -546 245 -783 167 -678 193 -918 156
-1449 -72 -1016 -252 -1576 -694 -2158 -104 -138 -369 -399 -526 -519 -254
-195 -469 -320 -792 -459 -380 -165 -767 -291 -1143 -372 -266 -57 -455 -126
-746 -271 -169 -84 -201 -97 -265 -104 l-74 -9 85 3 c91 3 84 1 360 116 156
65 303 107 551 160 382 81 626 150 936 266 658 245 1047 480 1439 869 330 328
580 726 718 1143 16 46 30 81 32 79 7 -7 123 -297 118 -297 -2 0 -25 31 -50
70 l-46 69 -29 -15 c-16 -8 -29 -17 -29 -21 0 -12 538 -1033 552 -1048 6 -5
-8 26 -30 71 -74 148 -262 557 -259 561 2 2 10 -3 17 -12 15 -18 51 -20 68 -3
6 6 13 10 15 7 2 -2 23 -39 48 -83 50 -89 77 -113 107 -97 27 15 32 32 21 81
-12 54 -7 60 19 18 35 -56 61 -78 93 -78 38 0 52 33 43 100 -6 43 -4 48 15 53
13 3 27 19 34 36 6 17 18 31 27 31 9 0 21 5 27 11 8 8 13 -4 18 -46 14 -111
87 -130 124 -31 9 23 14 26 26 16 8 -7 25 -10 36 -7 22 6 22 5 15 -106 -8
-137 -31 -351 -52 -471 -23 -141 -9 -111 20 41 103 544 157 1152 182 2066 l6
247 -35 0 c-41 0 -39 -5 -58 153 -10 75 -19 109 -42 149 -26 46 -30 49 -40 32
-6 -10 -11 -54 -11 -97 0 -69 -1 -74 -12 -49 -18 44 -56 55 -74 22 -9 -16 -6
-40 9 -102 12 -45 21 -100 21 -122 1 -41 18 -76 38 -76 6 0 19 11 30 25 l19
24 7 -67 c3 -37 6 -118 6 -179 0 -62 5 -133 12 -157 9 -35 8 -96 -6 -303 -10
-142 -19 -260 -22 -262 -2 -2 -4 136 -4 307 l0 312 -39 0 -38 0 -7 -362 c-4
-200 -9 -387 -13 -416 l-5 -53 -41 3 -41 3 -29 -162 c-17 -90 -33 -163 -37
-163 -4 0 -27 78 -50 173 l-42 173 -35 -4 c-19 -3 -37 -10 -39 -17 -3 -6 7
-84 21 -172 14 -88 25 -165 25 -169 -1 -5 -19 26 -41 69 -21 42 -44 77 -50 77
-5 0 -23 -7 -38 -15 l-29 -14 50 -143 c27 -79 45 -138 40 -133 -6 6 -51 92
-101 192 l-92 182 -37 -16 c-20 -8 -38 -16 -39 -17 -1 -1 14 -51 33 -110 19
-60 33 -110 31 -112 -2 -3 -62 107 -132 243 -70 136 -131 252 -135 256 -4 5
-18 3 -30 -3 -21 -11 -22 -11 -16 11 117 406 197 1022 198 1539 0 262 -28 497
-98 807 -49 220 -208 666 -344 963 -47 104 -75 157 -56 105z"/>
<path d="M7540 11832 c-14 -9 -26 -20 -28 -24 -11 -25 -112 -132 -177 -188
-48 -42 -79 -77 -86 -98 -14 -41 -9 -46 35 -38 44 8 189 135 258 225 41 53 49
69 46 99 -4 42 -14 47 -48 24z"/>
<path d="M11051 11794 c0 -11 3 -14 6 -6 3 7 2 16 -1 19 -3 4 -6 -2 -5 -13z"/>
<path d="M7339 11783 c-39 -6 -265 -238 -274 -282 l-7 -34 38 7 c32 6 61 29
159 124 66 64 123 126 126 137 11 33 10 55 -3 54 -7 -1 -25 -4 -39 -6z"/>
<path d="M11062 11740 c0 -14 2 -19 5 -12 2 6 2 18 0 25 -3 6 -5 1 -5 -13z"/>
<path d="M11072 11685 c0 -16 2 -22 5 -12 2 9 2 23 0 30 -3 6 -5 -1 -5 -18z"/>
<path d="M11083 11615 c46 -333 58 -436 72 -580 22 -238 30 -635 16 -828 -24
-330 -62 -541 -191 -1057 -103 -414 -111 -490 -49 -490 41 0 99 135 210 492
40 130 75 235 77 234 1 -2 -18 -102 -43 -222 -81 -384 -213 -728 -426 -1105
-27 -48 -49 -89 -49 -91 0 -3 33 6 73 20 87 31 163 100 222 204 22 37 40 66
42 64 5 -4 -70 -172 -130 -292 -30 -60 -87 -157 -126 -217 -39 -59 -71 -110
-71 -113 0 -7 150 76 203 113 l48 34 -40 -60 c-67 -98 -160 -210 -265 -319
-55 -56 -101 -101 -103 -99 -2 2 17 53 42 112 24 60 43 110 42 111 -1 1 -47
-52 -102 -118 -55 -66 -136 -154 -180 -196 -87 -83 -185 -167 -185 -158 0 7
174 219 283 344 l90 103 -31 32 -31 31 -208 -205 c-214 -211 -461 -442 -574
-539 l-64 -55 35 45 c19 25 78 97 132 161 l97 116 -29 22 c-16 11 -33 21 -38
21 -4 0 -26 -18 -47 -41 -145 -150 -529 -468 -650 -539 -54 -31 -35 -14 49 45
197 138 516 443 750 718 l49 58 -28 29 -28 29 -122 -117 c-153 -148 -376 -321
-550 -428 -45 -27 -30 -14 70 61 366 276 730 653 1061 1100 124 167 306 440
308 461 0 8 -13 23 -30 34 l-32 20 -98 -137 c-349 -486 -784 -961 -1140 -1244
-179 -143 -267 -200 -589 -384 -350 -199 -731 -487 -897 -678 -53 -62 -46 -56
53 39 251 244 492 408 1048 714 140 77 228 132 349 222 50 37 92 66 92 63 0
-7 -251 -199 -334 -254 -43 -29 -169 -105 -280 -168 -273 -156 -355 -210 -363
-241 -15 -60 33 -75 133 -42 131 44 494 235 729 385 39 24 19 4 -71 -72 -129
-109 -239 -179 -358 -227 -34 -14 -38 -19 -32 -43 4 -16 21 -41 38 -57 29 -26
36 -28 89 -23 32 3 83 16 113 30 70 32 208 126 305 208 42 36 71 55 67 44 -18
-43 -18 -66 -1 -85 10 -11 24 -20 32 -20 40 0 145 78 317 235 160 145 181 162
167 137 -7 -13 -11 -37 -9 -55 3 -28 7 -32 37 -35 25 -3 46 5 86 32 74 49 242
185 293 239 41 42 46 44 73 34 43 -17 87 11 198 123 494 500 780 1139 906
2019 16 111 16 115 -3 140 -21 29 -65 39 -88 20 -19 -16 -19 -12 16 181 41
226 57 391 42 424 -14 31 -51 35 -75 8 -16 -18 -66 -177 -68 -216 0 -11 -3
-16 -5 -9 -3 7 2 49 10 94 9 46 14 84 13 85 -2 2 -21 6 -43 9 l-40 7 -126
-389 c-70 -213 -133 -407 -139 -431 -26 -91 -18 -27 17 129 87 401 116 655
116 1024 0 354 -20 591 -88 1025 -20 124 -38 227 -41 230 -3 3 -3 -13 0 -35z
m314 -1787 c-3 -8 -6 -5 -6 6 -1 11 2 17 5 13 3 -3 4 -12 1 -19z m83 -644
c-45 -260 -109 -517 -174 -694 -39 -105 -47 -111 -15 -10 29 93 93 350 139
560 44 203 60 264 65 258 2 -2 -5 -53 -15 -114z"/>
<path d="M11690 11642 c0 -4 4 -12 8 -17 5 -6 21 -31 35 -57 l27 -47 -27 14
c-32 17 -59 6 -76 -33 -6 -15 -12 -29 -13 -31 -2 -1 -13 4 -26 13 -47 33 -98
10 -98 -45 0 -16 12 -62 26 -102 14 -39 35 -103 46 -142 32 -112 39 -119 33
-30 -3 44 -11 108 -17 143 -5 35 -8 65 -5 68 9 9 68 -124 80 -181 12 -57 14
-59 66 -49 23 5 30 11 27 23 -12 37 -37 203 -32 209 9 8 188 -368 231 -483 21
-55 47 -139 59 -186 l21 -87 35 6 c19 2 37 7 40 9 15 13 -66 378 -122 550 -36
109 -34 128 3 38 12 -30 26 -55 31 -55 18 0 48 42 48 68 0 47 -60 158 -130
242 l-21 25 12 -25 12 -25 -34 28 c-60 48 -239 168 -239 159z"/>
<path d="M7847 11518 c-59 -79 -77 -111 -77 -135 0 -30 3 -33 29 -33 24 0 39
15 110 107 94 124 105 163 48 163 -31 0 -40 -8 -110 -102z"/>
<path d="M11250 11505 c10 -61 35 -159 55 -220 85 -259 173 -594 230 -877 36
-178 93 -357 107 -335 4 7 8 53 8 104 0 107 -41 318 -125 648 -113 444 -192
665 -273 765 -19 24 -19 23 -2 -85z"/>
<path d="M12764 11392 c-31 -5 -45 -42 -28 -73 7 -13 13 -31 14 -40 0 -29 44
-38 74 -16 16 12 16 16 -4 70 -23 62 -26 65 -56 59z"/>
<path d="M7435 11200 c-11 -4 -31 -20 -45 -35 -14 -15 -53 -49 -87 -77 -51
-41 -63 -55 -63 -79 0 -26 3 -29 32 -29 35 0 73 26 161 109 55 52 64 71 51
105 -7 18 -19 19 -49 6z"/>
<path d="M12719 11027 c-8 -18 -8 -38 0 -76 6 -29 11 -71 11 -95 0 -29 6 -48
18 -59 24 -22 35 -21 55 1 14 16 15 30 7 105 -11 91 -24 137 -39 137 -5 0 -16
3 -25 6 -10 4 -19 -2 -27 -19z"/>
<path d="M11789 10916 c-9 -18 -8 -35 5 -72 9 -27 19 -71 22 -99 11 -86 42
-116 79 -75 15 17 16 26 6 87 -22 130 -48 183 -91 183 -6 0 -15 -11 -21 -24z"/>
<path d="M11324 10893 c-5 -25 2 -72 20 -151 15 -64 32 -167 38 -231 5 -64 17
-133 26 -154 l16 -38 23 38 c28 46 30 123 8 263 -26 157 -54 252 -83 283 -14
15 -29 27 -33 27 -5 0 -11 -16 -15 -37z"/>
<path d="M7345 10815 c-16 -13 -58 -39 -92 -56 -35 -18 -63 -35 -63 -38 0 -3
-3 -16 -6 -27 -5 -17 0 -24 24 -32 26 -9 38 -5 93 25 101 56 139 90 139 124 0
26 -3 29 -32 29 -20 -1 -45 -11 -63 -25z"/>
<path d="M12183 10770 c3 -44 21 -112 55 -210 27 -80 62 -199 76 -265 25 -111
62 -205 83 -212 5 -2 15 19 21 45 10 43 8 64 -15 163 -14 63 -50 190 -80 283
-50 155 -59 173 -99 215 l-45 46 4 -65z"/>
<path d="M13145 10752 c-3 -18 4 -61 19 -113 13 -47 27 -107 31 -134 12 -79
48 -107 78 -61 15 22 14 32 -3 115 -24 117 -49 193 -69 208 -27 21 -49 15 -56
-15z"/>
<path d="M12129 10316 c-9 -20 -8 -33 5 -66 9 -22 16 -54 16 -70 0 -38 39 -61
66 -39 22 18 14 115 -13 161 -24 42 -59 49 -74 14z"/>
<path d="M12261 9943 c-9 -30 -5 -71 19 -208 16 -93 34 -208 40 -254 10 -73
40 -161 55 -161 3 0 12 17 21 38 20 46 16 97 -27 357 -24 148 -36 198 -55 228
-13 20 -29 37 -34 37 -5 0 -14 -17 -19 -37z"/>
<path d="M12954 9949 c-7 -16 -5 -36 8 -73 9 -28 17 -63 18 -79 0 -34 36 -55
67 -39 18 10 19 17 11 74 -11 84 -36 132 -69 136 -18 2 -28 -3 -35 -19z"/>
<path d="M13111 9951 c-10 -7 -12 -22 -7 -65 7 -52 9 -56 34 -56 46 0 56 13
49 65 -4 26 -9 51 -13 56 -7 11 -45 11 -63 0z"/>
<path d="M12151 9894 c-15 -53 -14 -72 9 -274 11 -96 23 -230 27 -299 6 -126
20 -195 38 -202 6 -2 18 12 28 31 16 31 18 53 13 190 -7 213 -40 480 -66 528
-35 68 -37 69 -49 26z"/>
<path d="M13021 9547 c-9 -40 -9 -99 0 -243 8 -139 8 -233 0 -355 -9 -121 -9
-179 0 -217 6 -29 12 -52 15 -52 2 0 15 23 30 52 31 62 43 169 43 388 1 276
-23 447 -66 473 -6 4 -15 -17 -22 -46z"/>
<path d="M9523 9336 c-312 -60 -525 -235 -604 -495 -18 -61 -21 -88 -16 -160
3 -47 12 -106 20 -131 l13 -45 8 60 c13 97 63 281 96 350 98 206 371 354 629
343 184 -8 278 -82 385 -300 36 -73 73 -158 83 -188 l18 -55 3 55 c14 242
-126 471 -334 547 -82 29 -205 37 -301 19z"/>
<path d="M11776 8952 c-16 -35 -16 -46 -1 -172 30 -251 66 -357 125 -373 18
-5 20 0 20 36 0 23 -7 64 -15 91 -19 64 -43 201 -51 301 -6 73 -35 155 -54
155 -4 0 -15 -17 -24 -38z"/>
<path d="M12346 8962 c-12 -24 -13 -51 -5 -163 5 -74 7 -153 4 -176 -4 -29 -1
-52 10 -72 19 -38 28 -39 56 -3 21 26 21 32 15 205 -5 159 -8 182 -27 208 -25
36 -35 36 -53 1z"/>
<path d="M12082 8906 c-8 -18 -7 -47 4 -113 7 -48 14 -114 14 -146 0 -49 9
-87 26 -106 2 -3 15 6 29 19 23 22 25 30 24 109 0 116 -21 228 -45 246 -27 21
-39 18 -52 -9z"/>
<path d="M12236 8824 c-15 -22 -15 -33 -1 -128 8 -57 15 -122 15 -144 0 -46
17 -92 35 -92 7 0 19 8 28 18 26 28 22 164 -9 314 -3 14 -16 33 -29 42 -22 14
-24 14 -39 -10z"/>
<path d="M9015 8522 c-132 -34 -245 -106 -316 -201 -85 -115 -129 -233 -128
-340 0 -77 13 -153 22 -131 3 8 24 74 48 145 23 72 58 160 77 198 41 80 136
173 214 210 84 40 206 61 318 54 172 -9 302 -69 533 -244 l59 -45 -33 62 c-18
33 -50 81 -71 105 -52 59 -170 131 -276 168 -79 28 -100 31 -232 34 -114 2
-160 -1 -215 -15z"/>
<path d="M10500 7994 c-19 -8 -46 -31 -60 -51 -14 -21 -68 -83 -122 -138 -73
-77 -98 -109 -103 -137 l-7 -36 44 8 c36 7 53 19 107 77 35 37 90 101 123 141
49 61 58 80 58 113 0 21 -1 39 -2 38 -2 0 -19 -7 -38 -15z"/>
<path d="M5255 7734 c-30 -15 -32 -21 -115 -345 -46 -182 -87 -332 -90 -334
-3 -2 -29 14 -57 36 -29 21 -56 39 -61 39 -22 0 -273 -286 -497 -565 -71 -88
-132 -164 -136 -169 -4 -5 -11 9 -14 30 -4 22 -30 86 -58 144 -43 89 -64 117
-132 185 -132 133 -243 175 -459 175 -513 0 -1111 -311 -1846 -959 -169 -150
-228 -208 -352 -353 -761 -885 -1223 -1733 -1377 -2528 -51 -263 -72 -570 -51
-755 18 -162 71 -364 122 -464 178 -353 485 -576 878 -636 195 -30 489 -14
732 40 910 204 1917 707 3026 1514 l132 96 0 45 c0 28 -8 58 -21 79 -19 32
-22 33 -65 27 -72 -9 -175 -68 -345 -197 -80 -61 -348 -230 -594 -374 -734
-431 -1370 -730 -1852 -870 -297 -87 -429 -105 -753 -105 -208 0 -249 3 -351
24 -343 70 -575 328 -643 716 -56 317 -3 792 136 1229 85 268 275 682 439 956
255 428 643 939 911 1200 508 498 1015 846 1431 983 194 64 268 77 457 77 147
0 170 -2 211 -21 125 -58 198 -206 215 -437 l7 -95 -90 -128 c-130 -187 -217
-329 -279 -457 -60 -124 -81 -202 -70 -262 11 -56 86 -128 158 -151 l55 -17
81 48 c67 38 91 59 126 108 66 94 143 233 177 322 46 118 89 297 89 370 0 62
1 63 80 176 131 188 600 783 600 761 0 -5 -45 -196 -100 -423 -139 -570 -315
-1320 -464 -1969 -235 -1031 -248 -1090 -242 -1124 15 -77 114 -110 171 -56
14 14 69 110 121 214 171 341 283 504 479 696 86 85 96 92 91 65 -45 -228 -56
-327 -46 -387 25 -138 99 -211 227 -224 117 -12 247 37 379 142 l68 55 11 -49
c27 -118 106 -212 213 -252 149 -56 293 22 440 239 l57 83 109 44 c60 24 110
43 112 41 1 -1 -3 -46 -9 -101 -10 -84 -9 -100 4 -110 8 -6 20 -29 27 -51 40
-139 170 -234 389 -286 67 -16 92 -18 110 -10 13 6 44 11 68 11 119 0 408 157
589 319 l79 71 22 -55 c41 -99 84 -143 191 -192 144 -65 302 19 447 239 40 61
64 87 83 92 14 4 82 31 150 60 l124 53 6 -26 c29 -130 56 -191 111 -242 61
-58 98 -73 184 -73 70 -1 83 3 160 41 46 23 86 40 88 37 5 -5 -22 -144 -84
-424 l-51 -235 -91 -151 c-503 -836 -820 -1503 -904 -1904 -31 -151 -31 -297
0 -368 26 -57 75 -106 129 -129 27 -11 44 -12 87 -3 242 50 464 456 698 1275
69 239 237 921 237 959 0 41 66 215 128 336 124 243 389 709 404 710 4 0 10
-9 13 -21 12 -36 76 -99 129 -126 48 -24 53 -25 118 -13 38 6 96 26 130 43 80
40 199 153 263 251 l50 77 12 -76 c21 -142 85 -229 187 -256 181 -49 412 141
618 506 25 44 47 88 49 97 6 26 135 125 214 163 69 34 195 70 195 56 0 -16
-120 -154 -228 -259 l-114 -114 4 -50 c6 -61 36 -94 93 -104 40 -6 43 -4 140
80 111 96 134 104 178 58 36 -37 41 -82 28 -247 -28 -345 -108 -616 -263 -885
-100 -173 -229 -420 -417 -800 -323 -650 -495 -1066 -582 -1406 -30 -114 -34
-144 -34 -259 0 -115 3 -136 23 -180 78 -169 223 -169 379 -1 244 262 517 980
864 2276 44 168 90 337 100 375 10 39 19 80 19 93 0 59 180 469 431 981 105
215 129 272 129 307 l0 44 -74 0 c-73 0 -74 0 -109 -39 -38 -42 -93 -133 -173
-286 -44 -84 -53 -95 -58 -75 -3 14 -10 48 -15 76 -19 97 -52 165 -102 216
l-48 48 35 57 c31 52 64 138 64 168 0 25 -73 125 -106 146 -33 20 -45 21 -137
16 -117 -7 -220 -33 -315 -81 -142 -71 -279 -200 -332 -311 -44 -93 -165 -268
-233 -339 -34 -35 -82 -73 -106 -85 -40 -21 -45 -21 -60 -7 -21 22 -27 194
-11 326 6 52 14 115 16 140 3 25 12 77 19 117 23 120 -4 172 -94 181 l-48 4
-56 -104 c-146 -272 -311 -520 -421 -630 -66 -67 -100 -86 -132 -74 -14 5 -15
16 -9 64 9 78 40 216 75 340 17 58 30 126 30 157 l0 55 -74 0 c-73 0 -76 -1
-100 -32 -13 -18 -40 -60 -59 -94 -51 -91 -410 -654 -414 -650 -2 2 8 57 23
122 14 66 34 157 44 204 10 47 22 104 28 126 8 37 7 45 -13 70 l-22 28 22 45
c21 40 22 48 10 81 -37 106 -110 199 -180 231 -79 36 -233 19 -339 -39 -67
-36 -153 -117 -196 -185 -28 -45 -51 -64 -120 -105 -95 -57 -203 -108 -239
-113 -21 -4 -25 2 -41 58 -31 112 -98 201 -185 246 -45 23 -153 40 -205 32
-107 -16 -157 -53 -311 -235 -287 -340 -521 -543 -690 -600 -54 -19 -80 -21
-169 -18 -112 5 -136 13 -187 61 -42 39 -44 87 -7 195 63 188 160 341 257 409
49 33 122 61 133 51 5 -6 -61 -122 -118 -205 -15 -23 -28 -44 -28 -47 0 -3 36
-32 79 -65 l79 -60 67 71 c124 131 207 283 207 379 1 129 -62 186 -234 214
-33 5 -38 3 -38 -13 0 -24 -18 -32 -69 -32 -43 0 -132 -57 -268 -171 -84 -71
-226 -165 -323 -214 -52 -26 -161 -68 -165 -63 -1 2 -10 34 -20 71 -32 125
-120 222 -230 258 -22 7 -74 13 -115 13 -129 0 -205 -51 -351 -234 -190 -240
-369 -383 -489 -392 l-35 -3 -3 81 c-2 64 5 118 33 250 22 100 34 180 31 198
-10 52 -43 94 -98 126 -45 26 -60 30 -96 25 -61 -9 -117 -35 -187 -88 -68 -51
-208 -193 -275 -279 -24 -32 -46 -56 -48 -53 -2 2 125 567 283 1257 214 939
305 1316 360 1503 149 503 192 700 166 763 -21 51 -102 68 -166 36z m4298
-3364 l47 -69 -31 -53 c-115 -196 -256 -328 -351 -328 -48 0 -68 27 -68 95 0
73 26 150 64 193 50 57 66 84 66 114 0 50 109 113 201 117 22 1 34 -11 72 -69z
m-3362 -90 c23 -13 55 -70 38 -70 -14 0 -69 55 -69 69 0 14 6 14 31 1z m2190
0 c18 -10 56 -70 44 -70 -18 0 -47 24 -60 50 -17 32 -14 36 16 20z m-2333
-229 c31 -21 72 -46 90 -57 17 -10 32 -22 32 -27 0 -20 -32 -66 -69 -100 -34
-31 -48 -37 -86 -37 -42 0 -44 1 -54 38 -6 20 -11 55 -11 78 0 39 26 144 36
144 2 0 30 -17 62 -39z m2209 -11 c127 -81 119 -67 80 -125 -41 -59 -88 -88
-137 -83 -31 3 -37 8 -48 43 -9 25 -12 61 -8 95 5 51 23 120 32 120 2 0 38
-22 81 -50z m3414 -1936 c-257 -873 -475 -1420 -620 -1558 l-31 -30 0 25 c1
181 149 628 375 1124 100 222 345 718 351 712 2 -2 -31 -125 -75 -273z m-2582
25 c-125 -485 -258 -872 -384 -1118 -60 -117 -134 -221 -156 -221 -16 0 -10
125 12 237 42 219 154 513 324 848 105 208 244 459 251 453 2 -2 -19 -92 -47
-199z"/>
<path d="M12471 7074 c0 -11 3 -14 6 -6 3 7 2 16 -1 19 -3 4 -6 -2 -5 -13z"/>
<path d="M7857 6438 c-20 -13 -85 -56 -144 -96 -102 -70 -108 -73 -150 -66
-28 4 -48 2 -57 -6 -11 -8 -20 -9 -35 0 -45 23 -91 -9 -91 -65 0 -26 -2 -27
-41 -23 -35 3 -38 2 -23 -9 10 -7 21 -13 26 -13 4 0 8 -19 8 -42 1 -123 87
-131 106 -10 5 33 9 40 20 31 7 -6 24 -13 37 -17 23 -7 20 -11 -54 -72 -43
-35 -91 -71 -106 -79 -25 -13 -28 -12 -48 11 -21 25 -37 86 -51 197 -7 53 -7
53 16 41 22 -12 22 -12 6 11 -9 13 -16 39 -16 59 0 57 -20 85 -60 85 l-35 0
-3 -72 c-3 -80 30 -298 53 -347 19 -40 77 -79 116 -78 37 1 100 37 181 105
161 133 444 392 453 414 22 56 -42 80 -108 41z m-257 -262 c0 -2 -7 -9 -15
-16 -12 -10 -15 -10 -15 4 0 9 7 16 15 16 8 0 15 -2 15 -4z"/>
<path d="M7111 6364 c0 -11 3 -14 6 -6 3 7 2 16 -1 19 -3 4 -6 -2 -5 -13z"/>
<path d="M7121 6324 c0 -11 3 -14 6 -6 3 7 2 16 -1 19 -3 4 -6 -2 -5 -13z"/>
<path d="M7131 6274 c0 -11 3 -14 6 -6 3 7 2 16 -1 19 -3 4 -6 -2 -5 -13z"/>
<path d="M7424 5794 c-18 -14 -18 -15 4 -4 12 6 22 13 22 15 0 8 -5 6 -26 -11z"/>
<path d="M908 633 c-19 -3 -28 -10 -28 -23 0 -21 -54 -33 -82 -19 -27 14 -97
10 -134 -7 -87 -42 -139 -165 -132 -312 8 -164 86 -272 198 -272 82 0 132 38
166 127 l18 45 -25 19 c-29 23 -39 24 -39 4 0 -26 -39 -94 -59 -105 -37 -19
-68 -11 -99 25 -40 45 -52 91 -51 200 0 104 20 167 61 198 53 40 108 -9 124
-112 6 -37 9 -41 35 -41 l29 0 0 106 c0 95 2 105 18 102 16 -3 17 -24 20 -245
2 -235 2 -242 -18 -248 -14 -4 -20 -15 -20 -36 l0 -29 175 0 175 0 0 29 c0 20
-6 32 -19 36 -18 5 -20 18 -23 150 -3 127 -5 147 -24 172 -29 38 -73 50 -113
30 l-31 -15 0 98 c0 54 -3 105 -6 114 -6 16 -49 19 -116 9z m192 -309 c6 -14
10 -74 10 -134 0 -106 0 -108 -24 -114 -52 -13 -56 -4 -56 124 0 94 3 122 16
134 23 23 43 20 54 -10z"/>
<path d="M2133 633 c-29 -4 -33 -8 -33 -34 0 -18 5 -29 14 -29 8 0 22 -7 30
-16 14 -13 16 -50 16 -244 l0 -228 -25 -6 c-20 -5 -25 -13 -25 -36 l0 -30 90
0 c89 0 90 0 90 24 l0 24 29 -29 c33 -33 70 -37 114 -14 26 13 31 13 50 0 26
-18 48 -19 82 -3 34 15 36 65 3 70 -22 3 -23 7 -28 144 -6 161 -15 186 -79
205 -47 14 -97 0 -130 -35 -63 -67 -13 -167 57 -113 6 5 12 27 12 48 0 28 4
39 15 39 18 0 35 -31 35 -65 0 -22 -8 -30 -53 -50 -75 -33 -107 -73 -107 -136
0 -27 -3 -49 -7 -49 -30 1 -33 20 -35 290 l-3 275 -40 1 c-22 1 -55 -1 -72 -3z
m317 -477 c0 -65 -37 -98 -60 -55 -18 33 16 97 53 99 4 0 7 -20 7 -44z"/>
<path d="M3324 576 c-85 -52 -129 -163 -122 -306 5 -105 40 -186 101 -235 36
-28 45 -30 115 -30 60 1 86 6 120 23 l42 22 0 84 c0 81 1 84 25 90 20 5 25 13
25 36 l0 30 -110 0 -110 0 0 -29 c0 -23 6 -30 33 -37 31 -9 32 -12 35 -69 3
-47 0 -62 -14 -72 -30 -22 -64 -15 -99 20 -42 42 -57 97 -56 204 0 137 42 223
108 223 24 0 69 -39 77 -69 3 -9 10 -35 16 -58 10 -38 14 -43 40 -43 l30 0 0
115 0 116 -42 -1 c-24 0 -72 2 -108 5 -58 5 -70 3 -106 -19z"/>
<path d="M2610 480 c0 -57 -1 -60 -25 -60 -22 0 -25 -4 -25 -35 0 -31 3 -35
25 -35 l25 0 0 -134 c0 -148 9 -188 46 -205 34 -15 57 -14 99 6 29 14 35 22
35 49 0 32 -1 33 -36 27 -25 -4 -39 -2 -45 8 -5 8 -9 67 -9 132 l0 117 40 0
c39 0 40 1 40 34 0 33 -2 35 -37 38 l-38 3 -3 58 -3 57 -44 0 -45 0 0 -60z"/>
<path d="M1330 418 c-61 -32 -93 -96 -94 -193 -2 -127 51 -213 137 -222 76 -9
137 39 159 124 l11 44 17 -52 c35 -103 119 -146 194 -99 20 12 36 25 36 28 0
4 9 18 19 31 l18 23 21 -35 c65 -111 218 -77 257 57 42 141 -12 288 -114 311
-66 14 -137 -34 -165 -110 l-15 -40 0 35 c-2 80 -73 134 -144 111 -45 -15 -84
-57 -107 -117 -10 -27 -19 -40 -20 -30 0 33 -40 105 -69 125 -45 32 -90 35
-141 9z m76 -56 c26 -17 38 -60 38 -142 0 -100 -20 -153 -57 -148 -33 5 -51
53 -51 138 -1 84 7 121 30 144 17 18 24 19 40 8z m304 -42 c0 -38 4 -52 19
-60 27 -14 47 -13 65 6 15 14 16 9 16 -51 0 -52 -3 -65 -14 -63 -8 2 -25 -13
-38 -32 -32 -47 -65 -47 -92 -1 -35 60 -23 216 18 243 21 15 26 7 26 -42z
m287 24 c26 -40 30 -188 6 -234 -25 -49 -55 -51 -78 -5 -24 53 -19 213 9 244
25 28 42 26 63 -5z"/>
<path d="M2870 422 c-23 -12 -44 -36 -63 -73 -26 -50 -28 -61 -25 -144 4 -104
22 -145 79 -183 65 -45 159 -10 194 72 12 27 11 31 -12 49 -27 22 -25 23 -47
-20 -23 -47 -62 -54 -93 -19 -13 15 -23 35 -23 44 0 9 -3 27 -6 40 -6 22 -5
22 91 22 l98 0 -7 61 c-7 71 -30 124 -61 145 -38 25 -86 27 -125 6z m74 -74
c9 -12 16 -33 16 -45 0 -20 -5 -23 -44 -23 l-45 0 9 31 c10 33 27 59 41 59 4
0 15 -10 23 -22z"/>
<path d="M4366 425 c-16 -9 -32 -12 -35 -7 -3 5 -89 9 -191 8 l-185 -1 -3 -77
-3 -78 31 0 c25 0 30 4 30 23 0 13 6 30 13 39 12 16 57 31 57 20 0 -4 -28 -67
-62 -140 -52 -112 -65 -132 -83 -130 -19 3 -20 10 -23 168 -1 90 -7 169 -12
174 -4 4 -38 5 -74 1 -65 -6 -66 -7 -66 -36 0 -21 5 -29 18 -29 35 0 42 -21
42 -132 0 -95 -2 -110 -20 -128 -48 -48 -60 -13 -60 169 0 94 -4 152 -11 156
-5 4 -37 4 -70 0 -56 -7 -59 -9 -59 -34 0 -18 7 -29 23 -36 21 -10 22 -17 27
-150 4 -112 9 -147 23 -168 20 -30 54 -42 95 -33 15 3 235 6 490 6 l462 -1 0
25 0 24 29 -29 c33 -33 67 -37 111 -14 25 13 34 13 52 2 18 -10 72 -12 231 -9
l207 3 0 29 c0 20 -6 31 -19 35 -18 5 -20 18 -23 150 -3 127 -5 147 -24 172
-29 39 -73 50 -115 29 -21 -11 -35 -13 -37 -6 -4 11 -39 13 -94 4 -33 -6 -38
-10 -38 -34 0 -19 6 -29 20 -33 19 -5 20 -14 20 -141 l0 -136 -35 0 -35 0 0
130 c0 157 -11 193 -66 216 -51 21 -99 11 -141 -31 -40 -40 -46 -95 -12 -119
38 -27 79 5 79 61 0 40 22 44 38 8 23 -50 16 -63 -52 -94 -74 -33 -99 -69 -99
-138 0 -24 -3 -43 -6 -43 -24 1 -29 25 -33 150 -3 102 -8 143 -20 166 -30 55
-104 67 -143 24 -16 -18 -18 -17 -52 6 -42 28 -57 29 -97 9z m-128 -206 c2
-115 0 -138 -13 -143 -12 -4 -15 4 -15 49 0 54 0 55 -30 55 -17 0 -30 -5 -30
-12 0 -7 -5 -30 -11 -51 -9 -34 -13 -37 -44 -37 -19 0 -35 2 -35 5 0 3 30 66
68 140 55 112 70 135 87 133 19 -3 20 -12 23 -139z m170 -3 c1 -73 -2 -134 -7
-139 -5 -5 -21 -7 -35 -3 l-26 6 0 119 c0 97 3 123 16 136 9 9 24 15 33 13 14
-3 16 -22 19 -132z m170 -3 c2 -121 1 -132 -16 -137 -46 -15 -52 -2 -52 124 0
96 3 122 16 135 9 9 24 15 33 13 14 -3 16 -23 19 -135z m632 118 c5 -11 10
-71 10 -135 0 -106 -2 -115 -20 -121 -11 -3 -29 -3 -40 0 -19 6 -20 15 -20
125 0 94 3 122 16 134 21 21 41 20 54 -3z m-330 -174 c0 -53 -29 -88 -55 -67
-21 17 -19 53 6 84 31 40 49 34 49 -17z"/>
<path d="M5440 423 c-24 -13 -43 -34 -62 -72 -38 -74 -40 -193 -5 -261 59
-118 186 -118 247 0 18 35 18 35 -5 53 -13 9 -25 17 -27 17 -2 0 -12 -16 -22
-35 -36 -65 -94 -53 -116 24 -17 62 -19 61 86 61 l97 0 -7 62 c-8 68 -34 127
-64 145 -37 22 -85 25 -122 6z m69 -66 c6 -8 14 -28 17 -45 l7 -32 -47 0 c-44
0 -47 1 -41 23 9 30 33 67 44 67 5 0 14 -6 20 -13z"/>
<path d="M5795 426 c-20 -8 -35 -10 -46 -3 -9 6 -40 7 -72 3 -55 -7 -57 -9
-57 -37 0 -19 5 -29 15 -29 27 0 35 -38 35 -159 0 -120 0 -121 -25 -127 -19
-5 -25 -13 -25 -34 l0 -28 253 -4 c277 -5 294 -2 322 52 21 41 19 118 -4 156
-10 17 -36 39 -57 49 -22 9 -47 24 -56 33 -23 19 -23 61 -1 69 20 8 63 -39 63
-68 0 -15 7 -19 30 -19 l31 0 -3 78 -3 77 -73 -1 c-86 0 -120 -20 -140 -79
-25 -76 6 -138 89 -181 55 -27 64 -41 55 -79 -13 -49 -68 -25 -90 40 -11 31
-20 41 -40 43 -25 3 -26 2 -26 -53 0 -48 -3 -56 -16 -51 -9 3 -18 6 -20 6 -2
0 -4 59 -4 130 0 166 -16 210 -80 224 -14 3 -38 0 -55 -8z m35 -95 c5 -11 10
-71 10 -135 0 -106 -2 -115 -20 -121 -11 -3 -29 -3 -40 0 -18 6 -20 15 -20
122 0 94 3 120 17 135 21 23 40 23 53 -1z"/>
<path d="M6310 422 c-23 -12 -44 -36 -63 -73 -26 -50 -28 -61 -25 -144 4 -104
22 -145 79 -183 65 -45 159 -10 194 72 12 27 11 31 -12 49 -27 22 -25 23 -47
-20 -23 -47 -62 -54 -93 -19 -13 15 -23 35 -23 44 0 9 -3 27 -6 40 -6 22 -5
22 91 22 l98 0 -7 61 c-7 71 -30 124 -61 145 -38 25 -86 27 -125 6z m74 -74
c9 -12 16 -33 16 -45 0 -20 -5 -23 -44 -23 l-45 0 9 31 c10 33 27 59 41 59 4
0 15 -10 23 -22z"/>
</g>
</svg>
