<svg width="78" height="80" viewBox="0 0 78 80" fill="none" xmlns="http://www.w3.org/2000/svg">
<path d="M65.7478 0.0565338C64.9943 0.235226 64.1134 0.99033 63.7077 1.81461C63.5802 2.06823 63.4121 2.37373 63.331 2.50054C62.9542 3.07119 62.9542 3.6015 63.3252 3.98193C63.5396 4.20674 63.5918 4.18368 63.4237 3.93582C63.2556 3.68796 63.2382 3.41128 63.3715 3.14613C63.4816 2.93285 63.6265 2.75993 63.6961 2.75993C63.7772 2.75993 63.7483 3.86665 63.6555 4.22979C63.5454 4.63905 63.273 5.15206 62.763 5.91293C62.4326 6.39712 62.3573 6.47782 62.2066 6.49511C61.9458 6.51817 61.5401 6.6738 61.2677 6.85825C60.9779 7.06 60.7866 7.34821 60.6997 7.73441L60.6359 8.02261L59.1638 8.5241C52.8523 10.6799 49.398 12.4264 46.7204 14.8128C45.6018 15.81 44.2398 17.5681 43.2777 19.257C43.069 19.6201 42.9937 19.7066 42.8778 19.7123C42.7619 19.7181 42.7561 19.7239 42.8488 19.7469C42.9589 19.7642 42.9183 19.8622 42.4431 20.8191C41.1275 23.4475 40.2755 26.272 39.8118 29.5057C39.1279 34.3072 39.3018 37.7772 40.3798 40.8841C41.2202 43.2936 41.4288 43.7604 40.8377 41.9044C40.2001 39.8927 39.9683 38.711 39.864 36.8319C39.7539 34.8606 40.0147 31.085 40.432 28.6987L40.5363 28.0934L40.5711 28.8716C40.5942 29.4307 40.6464 29.7996 40.7449 30.1801L40.8898 30.7046L40.6928 31.1081C40.2059 32.1226 40.1422 33.2639 40.5421 33.9441C40.6174 34.0766 40.6116 34.1285 40.4667 34.5493C40.3218 34.9586 40.3045 35.0911 40.2987 35.7598C40.2987 36.4918 40.3045 36.5207 40.4841 36.8896C40.5885 37.0913 40.7333 37.3219 40.8145 37.3968L40.9594 37.5351L40.8203 37.8061C40.6116 38.2153 40.5015 38.7226 40.5015 39.2644C40.5015 40.1694 40.7971 40.7919 41.6375 41.6392C41.8867 41.8986 42.2055 42.2272 42.3446 42.3828C42.5938 42.648 43.0748 42.9938 43.1907 42.9938C43.2255 42.9881 43.1618 42.9419 43.0458 42.8785C42.9357 42.8209 42.6865 42.6019 42.4953 42.3886C42.3098 42.1811 41.9852 41.8237 41.7766 41.5931C41.0057 40.7516 40.7333 40.1809 40.7333 39.3912C40.7333 38.5669 41.0463 37.8176 41.5679 37.4026C41.9099 37.1317 41.962 36.9991 41.7998 36.8204C41.7128 36.7282 41.6896 36.7224 41.5505 36.7916C41.4694 36.8377 41.3361 36.9414 41.2608 37.0221C41.1275 37.1605 41.1101 37.1662 41.0115 37.0798C40.9594 37.0279 40.8551 36.8434 40.7913 36.6705C40.5827 36.1172 40.6522 35.2698 40.9652 34.5493C41.1043 34.2265 41.2376 34.1055 41.6433 33.9383C41.991 33.7884 42.1185 33.604 41.9562 33.4599C41.8172 33.3331 41.7244 33.3446 41.3361 33.5406C41.1506 33.6328 40.9768 33.6904 40.9536 33.6674C40.9304 33.6443 40.8666 33.4599 40.8145 33.2524C40.6928 32.7855 40.7565 32.2725 41.0231 31.5865C41.2434 31.0274 41.4926 30.6758 41.7476 30.5663C41.9678 30.4798 42.0432 30.3126 41.9505 30.1397C41.8751 29.9956 41.8114 29.9956 41.5042 30.134L41.2608 30.2435L41.168 29.8342C41.0289 29.2347 40.9942 28.5373 41.0753 28.1107C41.1622 27.6727 41.4404 27.1366 41.6838 26.9291C41.9447 26.71 42.4199 26.5083 42.7677 26.4679L43.0748 26.4334L42.9473 26.6005C42.1765 27.592 41.8693 28.3125 41.8751 29.1022C41.8809 29.7478 42.0374 30.1743 42.4083 30.5432L42.6807 30.8141L42.5764 30.9813C42.4199 31.2349 42.0664 32.088 42.0084 32.3705C41.8925 32.8835 42.1417 33.8288 42.4141 33.9153C42.4779 33.9325 42.53 33.9729 42.53 33.9959C42.53 34.0248 42.4315 34.2611 42.304 34.5263C41.9852 35.2122 41.7534 36.0768 41.7998 36.4054C41.8461 36.7455 42.0258 37.1374 42.2113 37.3103L42.362 37.4544L42.2055 37.5582C42.1185 37.6101 41.9389 37.8061 41.8056 37.9905C41.481 38.4228 41.3535 38.8955 41.3767 39.5468C41.3999 39.9849 41.423 40.0829 41.6433 40.521C41.7824 40.7861 41.9447 41.0686 42.0026 41.1493L42.1185 41.2934L42.0374 40.9764C41.9157 40.5268 41.8172 39.4431 41.8635 39.1088C41.8809 38.9531 41.9331 38.7399 41.9794 38.6361C42.0722 38.4055 42.53 37.9098 42.785 37.7542C43.0864 37.564 43.8109 37.3565 44.3731 37.2873C45.7525 37.1201 46.7261 37.6101 47.3289 38.7802C47.5549 39.2183 47.5723 39.2875 47.5723 39.6967C47.5665 40.1117 47.5318 40.2674 47.2594 41.0052C47.1608 41.2703 47.7114 40.5671 47.9027 40.1867C48.0881 39.812 48.1055 39.7371 48.0766 39.4489C48.0186 38.884 47.5028 37.9559 47.0101 37.5179C46.6392 37.1893 46.0365 36.9069 45.5264 36.8204C44.7034 36.6821 43.4863 36.8607 42.7503 37.2239L42.4141 37.3968L42.3156 37.2124C42.1765 36.953 42.1997 36.4515 42.3851 35.7598C43.1096 33.0333 44.9758 32.1111 47.8621 33.0506C48.0997 33.1256 48.5344 33.2581 48.8242 33.3331C49.114 33.4138 49.398 33.5002 49.4559 33.5175C49.682 33.604 49.4617 33.4138 48.9169 33.0564C48.4996 32.7855 48.2214 32.6471 47.8389 32.5319C45.6887 31.8805 43.9268 32.2436 42.9068 33.5406C42.7503 33.7308 42.6054 33.8864 42.5764 33.8864C42.5474 33.8864 42.4837 33.7884 42.4315 33.6674C42.2866 33.3331 42.4199 32.5261 42.7329 31.8113C43.5211 30.0244 44.6745 28.9292 46.2393 28.4854C46.5407 28.4047 46.8131 28.3817 47.6013 28.3874C48.4881 28.3932 48.6445 28.4047 49.1662 28.5488C49.4849 28.6353 49.9544 28.7621 50.2094 28.8197C50.4644 28.8831 50.8353 28.9869 51.0382 29.0503C51.241 29.1195 51.4149 29.1598 51.4323 29.1483C51.4671 29.1079 50.7252 28.6237 50.3195 28.422C49.5255 28.0243 47.9606 27.7764 46.958 27.8917C46.1756 27.9782 45.7756 28.0877 45.1671 28.3817C44.2456 28.8313 43.5269 29.4711 42.9589 30.3588C42.8372 30.5547 42.7097 30.7046 42.6749 30.6988C42.5706 30.6643 42.3562 30.2204 42.2982 29.9092C42.2286 29.5402 42.3446 28.716 42.5358 28.1972C42.7561 27.6208 43.4573 26.6639 44.205 25.9376C45.3004 24.8713 46.6972 24.1738 48.1171 23.9778C48.6735 23.8971 49.6182 23.8971 50.1514 23.9721C50.9512 24.0873 53.3797 24.7214 53.455 24.8309C53.4724 24.8597 53.513 25.1364 53.5419 25.4535C53.5767 25.7647 53.6347 26.1452 53.681 26.3066L53.7564 26.5948L53.797 26.1163C53.8375 25.5918 54.0114 24.6465 54.1563 24.145C54.504 22.9403 55.4603 22.0411 56.8223 21.6549C57.4831 21.4704 58.4741 21.4704 58.9436 21.6549C59.5869 21.9143 60.1259 22.5656 60.4041 23.4245C60.5084 23.753 60.7576 25.0557 60.833 25.7013L60.8852 26.1336L60.5722 26.8541C60.1665 27.7649 58.8277 30.4049 58.2887 31.3502C57.4019 32.9065 56.5441 34.0478 55.327 35.2987C54.7069 35.9385 53.3681 37.172 53.2985 37.172C53.2811 37.172 53.2522 36.9933 53.2348 36.7743C53.1884 36.244 53.0841 36.0134 52.7132 35.656C52.1336 35.0911 51.3338 34.8318 50.3543 34.8836C49.3748 34.9413 48.6561 35.2641 48.065 35.9097C47.6477 36.365 47.468 36.7282 47.3927 37.2585C47.3579 37.5063 47.3521 37.7254 47.3811 37.7542C47.4043 37.7772 47.6071 37.4948 47.8331 37.1259C48.2852 36.3708 48.5576 36.048 48.9575 35.7944C49.966 35.1488 51.5772 35.2295 52.3248 35.9673C52.5914 36.2267 53.0377 36.8031 53.1594 37.0394L53.2522 37.2239L52.69 37.6793C51.4497 38.6765 50.3543 39.42 48.6503 40.4461C47.5897 41.0743 45.6655 42.1522 44.9063 42.5327C44.7092 42.6307 44.5585 42.7287 44.5759 42.7402C44.6165 42.7863 47.2709 41.4836 48.5866 40.7804C51.6641 39.1203 53.3855 37.9098 55.2691 36.0653C57.2628 34.117 58.4278 32.382 60.2766 28.641C61.5748 26.0011 61.9979 24.7272 62.5543 21.7067C62.9195 19.7181 62.9426 18.8765 62.705 16.5939C62.4848 14.4612 62.4732 14.4208 61.9748 13.2795C61.7893 12.8645 61.598 12.4207 61.5401 12.2939L61.4358 12.0518L61.6908 12.3054C61.8762 12.4956 61.9863 12.559 62.1196 12.559C62.3399 12.559 62.508 12.3919 62.5601 12.1209C62.6181 11.8212 62.5485 10.9796 62.4094 10.2937C62.166 9.10051 61.7197 8.5241 61.0358 8.5241C60.8736 8.5241 60.8388 8.50681 60.9025 8.46645C61.0416 8.37999 61.7487 8.39729 61.9921 8.50104C62.4674 8.69702 62.7746 9.14663 62.9948 9.9709C63.0991 10.3629 63.1281 10.6338 63.1397 11.435C63.1571 12.5821 63.1803 12.9279 63.3657 14.3171C63.6034 16.0809 63.6265 16.3057 63.6845 17.4931C63.7772 19.3607 63.6207 21.6779 63.273 23.5398C62.7108 26.5371 61.5053 29.3904 59.5927 32.2436C58.7755 33.4656 58.1322 34.2726 57.1991 35.2295C56.15 36.3074 55.4777 36.8262 53.0899 38.3998C49.3053 40.9014 47.4912 42.3425 44.8483 44.9652C44.1934 45.6107 43.5559 46.2275 43.4284 46.3313L43.1965 46.5215L43.4805 46.3255C43.637 46.2217 44.234 45.6972 44.8136 45.1669C46.929 43.2129 48.3316 42.158 52.6262 39.299C54.249 38.2211 55.8255 37.1374 56.1326 36.8896C59.3609 34.313 62.4036 29.3327 63.4816 24.8655C63.9859 22.7904 64.1655 21.1649 64.1713 18.7267C64.1713 16.8187 64.1482 16.4786 63.8526 14.2883C63.7251 13.366 63.6613 12.5878 63.6265 11.6079C63.5686 9.94208 63.4469 9.39449 63.0006 8.70855C62.8383 8.46069 62.392 8.06296 62.2703 8.06296C62.2587 8.06296 62.1718 8.03414 62.0907 8.00532C61.969 7.95921 61.9458 7.93039 61.9979 7.87275C62.0791 7.76899 62.0095 7.19834 61.911 7.15799C61.7313 7.08882 61.853 7.03118 62.2356 6.99083L62.6413 6.95048L62.9484 6.5124C63.4005 5.87835 63.8584 5.10018 64.0264 4.69669C64.1482 4.40272 64.1771 4.21827 64.2061 3.6015C64.2351 2.88674 64.2409 2.85792 64.3742 2.80604C64.5017 2.75993 64.5075 2.76569 64.4727 2.93862L64.4379 3.11731L64.6176 2.96744C64.7915 2.81757 65.0523 2.71958 65.1103 2.77722C65.1276 2.78875 65.0117 3.05967 64.8552 3.37093C64.409 4.25861 64.2467 4.81197 64.154 5.8207C64.1192 6.15503 64.067 6.50087 64.038 6.58157C63.9801 6.73721 63.9685 6.73721 63.5802 6.70262C63.2614 6.6738 63.1745 6.67956 63.1107 6.76026C63.0412 6.84096 63.047 6.85249 63.1629 6.85249C63.2324 6.85249 63.3947 6.94471 63.528 7.05423C63.8758 7.35397 64.1597 7.32515 64.3916 6.9793C64.4727 6.85825 64.4843 6.87555 64.5481 7.32515C64.5886 7.5903 64.635 7.87851 64.6524 7.9765L64.6872 8.14943L64.409 7.90157C64.096 7.62489 63.9859 7.58454 63.6207 7.61336L63.3657 7.63065L63.6265 7.87275C63.7714 8.00532 64.0033 8.2186 64.1424 8.35117C64.577 8.7489 64.3568 8.67397 63.754 8.22436C63.3831 7.94768 63.0991 7.77475 62.96 7.7517C62.8441 7.72864 62.734 7.72288 62.7166 7.74017C62.6992 7.7517 62.7456 7.86698 62.8151 7.99379C62.8963 8.1379 63.1919 8.41458 63.6323 8.75466C64.0091 9.04864 64.322 9.30226 64.322 9.31379C64.322 9.32532 64.2235 9.26767 64.1076 9.19274C63.9859 9.11781 63.8236 9.03711 63.7425 9.01405C63.615 8.97947 63.6265 9.00252 63.841 9.22156C64.1192 9.50977 64.5712 10.3052 64.9306 11.1353C65.1624 11.6771 65.174 11.6944 65.2146 11.5215C65.232 11.4177 65.2494 11.1756 65.2494 10.9796C65.2551 10.7894 65.2783 10.4436 65.3073 10.2245C65.4464 9.26191 65.4406 9.10051 65.2841 8.49528C65.0929 7.73441 64.9596 6.91013 64.9654 6.47782V6.13197L65.0523 6.36253C65.2146 6.78908 65.487 7.83816 65.6261 8.52986C65.7536 9.18121 65.9506 9.65964 66.0608 9.59047C66.0897 9.57317 66.1303 9.46942 66.1535 9.3599C66.2114 9.04864 66.2752 9.11781 66.3216 9.54435C66.3679 9.99396 66.6345 10.7145 66.7041 10.5934C66.7273 10.5473 66.7736 10.3686 66.8026 10.1957C66.8664 9.85562 66.7447 8.88724 66.536 7.99956L66.4259 7.56148L67.388 7.57301C68.6051 7.58454 68.6457 7.59607 69.6947 8.29929L69.8338 8.39729L69.5556 8.43187C69.4049 8.45493 69.202 8.48375 69.1035 8.50104L68.9296 8.52986L69.1267 8.40305C69.3122 8.282 69.3122 8.27047 69.2136 8.18977C69.0514 8.06873 68.495 7.79781 68.24 7.71711C67.9328 7.61912 67.3184 7.63065 67.1504 7.74017C67.075 7.78628 66.9707 7.90157 66.9185 7.99379L66.82 8.16095L67.33 8.1379C67.8458 8.11484 68.3211 8.18977 68.3211 8.29929C68.3211 8.32811 68.1182 8.45493 67.8748 8.57597C67.6256 8.69126 67.3358 8.84689 67.2257 8.91606C67.1156 8.97947 67.0055 9.02558 66.9765 9.00829C66.9533 8.99099 66.9301 9.00829 66.9301 9.04287C66.9301 9.14663 67.3416 9.28497 67.5561 9.25615L67.7473 9.22156L67.4517 9.54435C66.9997 10.0401 67.0113 10.0977 67.4749 9.64235C68.6167 8.5241 69.8975 8.40881 71.6247 9.27344C72.9693 9.94208 73.8155 10.7318 74.5167 11.9595C74.7486 12.3688 75.276 13.4986 75.276 13.585C75.276 13.6081 75.1253 13.3372 74.9398 12.9913C73.6474 10.53 72.013 9.35414 70.0366 9.45789C69.5672 9.48095 69.4513 9.51553 69.0166 9.71728C68.5645 9.93055 67.9676 10.3225 68.2342 10.2303C68.8427 10.017 70.1294 9.87868 70.7379 9.96514C72.1753 10.1611 73.4445 11.239 74.4472 13.1124C74.7138 13.6139 75.3455 15.101 75.305 15.1414C75.2934 15.1529 75.2296 15.1298 75.1543 15.0895C75.0384 15.0318 75.0094 15.0376 74.9167 15.1529C74.8529 15.2278 74.8181 15.32 74.8355 15.3546C74.8471 15.395 74.8935 15.6255 74.934 15.8792C75.0152 16.3922 75.1485 16.6055 75.3224 16.5017C75.4325 16.4325 75.4557 15.9887 75.3745 15.4987C75.3397 15.2739 75.3455 15.2624 75.3977 15.4123C75.5716 15.8965 76.1164 17.0666 76.1338 16.9859C76.1454 16.934 76.1106 16.5824 76.0642 16.2135C76.0121 15.8388 75.9831 15.5276 75.9889 15.516C76.0236 15.4814 76.9568 18.4903 77.0669 18.9861C77.7798 22.2198 77.658 26.5429 76.7481 30.4856C76.5569 31.3041 76.1685 32.6702 76.1106 32.7278C76.0642 32.7797 76.0874 32.6414 76.2033 32.2436C76.5279 31.1485 76.8698 29.2405 77.0437 27.5747C77.0959 27.0905 77.1538 25.8915 77.1712 24.8655C77.206 22.9691 77.1828 22.6694 76.9452 21.5511L76.8756 21.2341L76.8061 22.0987C76.7655 22.5714 76.7307 23.5225 76.7249 24.2026C76.7191 24.8828 76.6959 25.7013 76.6728 26.0183L76.638 26.5948L76.5916 26.0183C76.5626 25.6149 76.5047 25.3612 76.412 25.1537L76.2787 24.8655L76.2033 25.0961C76.1569 25.2459 76.1106 25.9376 76.0816 27.0271C76.0526 27.9609 75.9947 28.9465 75.9541 29.2059C75.8614 29.7996 75.9309 30.5086 76.0642 30.3299C76.1338 30.2377 76.1396 30.2377 76.1454 30.3184C76.1511 30.6585 75.3571 33.5406 75.2586 33.5406C75.2528 33.5406 75.2644 33.2985 75.2934 33.0045C75.3629 32.2494 75.2992 28.6929 75.1949 27.4306C74.9109 24.145 74.6443 22.1102 74.3429 21.0035C74.2096 20.5251 74.0937 20.1274 74.0763 20.1101C73.9951 20.0351 74.1226 22.2601 74.2559 23.2227C74.6501 26.1163 74.8355 28.6583 74.8355 31.0332C74.8355 32.6644 74.8181 33.0852 74.708 34.0017C74.5573 35.2064 74.5052 35.4831 74.3487 35.829C74.2907 35.9615 74.2559 36.0826 74.2733 36.0999C74.2907 36.1172 74.2733 36.2152 74.2386 36.3189C74.2038 36.4227 74.1922 36.4803 74.2212 36.4515C74.2733 36.3996 74.9225 35.4773 75.0905 35.2352C75.1253 35.1718 75.0847 35.2871 74.9862 35.4831C74.5573 36.3708 73.885 37.3507 73.2996 37.9502C73.0446 38.2153 73.0041 38.2903 72.8186 38.9416C72.7027 39.3336 72.5636 39.7486 72.4998 39.8754C72.2448 40.3711 71.161 41.5528 70.9582 41.5528C70.9176 41.5528 70.8538 41.5124 70.8133 41.4663C70.7495 41.3914 70.7669 41.3798 70.9408 41.3798C71.0509 41.3798 71.19 41.3395 71.2537 41.2876C71.3639 41.2012 71.3639 41.2012 71.2422 41.2357C71.0103 41.2991 70.7959 41.034 70.5235 40.3596C70.0714 39.224 69.5208 38.2038 68.0835 35.8174C67.4459 34.7568 67.2083 34.4167 66.9069 34.117C66.6983 33.9153 66.5244 33.7596 66.5244 33.7711C66.5244 33.7884 66.6114 34.0363 66.7215 34.3187C66.8258 34.607 67.1272 35.1834 67.3938 35.6157C67.6546 36.0422 67.8864 36.4169 67.9038 36.4515C67.9154 36.4803 67.6024 36.1863 67.2083 35.7944C66.594 35.1949 66.4317 35.0681 66.1709 34.9816C65.997 34.924 65.8521 34.8836 65.8405 34.8952C65.7594 34.9701 66.1825 35.4946 66.9417 36.2497C67.4286 36.7397 67.9965 37.3622 68.1994 37.6331C68.4022 37.9041 68.6804 38.198 68.8253 38.296C69.0398 38.4459 69.1383 38.5842 69.486 39.2586C69.7063 39.6967 69.8802 40.0541 69.8686 40.0541C69.8512 40.0541 69.6773 39.8293 69.4802 39.5584C68.7152 38.5093 67.4575 36.9991 66.8142 36.3593C66.2114 35.754 65.6724 35.3275 65.5218 35.3275C65.487 35.3275 65.5855 35.4082 65.7304 35.5062C66.3563 35.9154 67.2373 37.0452 69.1325 39.8696C69.8975 41.0167 70.5814 41.9793 70.6394 42.0139C71.0393 42.2272 71.6479 41.8064 72.5172 40.7227C72.8881 40.2558 73.0446 39.9388 73.2649 39.1664C73.4445 38.5381 73.4735 38.4978 73.8213 38.1173C74.8239 37.0337 75.815 35.1834 76.5279 33.0506C77.5016 30.1455 78 26.9694 78 23.6608C78 21.5799 77.8319 20.0236 77.4494 18.5249C77.2234 17.6257 76.4641 15.3085 75.9657 13.9885C74.7949 10.8989 73.7227 9.61929 71.6536 8.81807C71.1494 8.62209 70.9234 8.55868 70.2511 8.43187C70.1583 8.41458 70.112 8.35117 70.083 8.20707C70.0135 7.8324 69.3354 7.3655 68.5819 7.16952C68.3675 7.11764 67.9791 7.08305 67.5387 7.08305C66.9475 7.08305 66.8084 7.10035 66.6171 7.2041C66.4954 7.26751 66.3911 7.31362 66.3853 7.30209C66.3795 7.29057 66.2636 6.89284 66.1303 6.42018C65.8637 5.48062 65.742 5.19817 65.4812 4.89267L65.3131 4.69093L65.3073 4.92149C65.3073 5.18088 65.3884 5.72848 65.458 5.9014C65.4812 5.95904 65.4 5.9014 65.2725 5.76306L65.0465 5.50944L65.0117 5.70542C64.977 5.9014 64.977 5.9014 64.9654 5.72848C64.948 5.30193 65.2725 4.32202 65.713 3.45163C65.8347 3.2153 66.0434 2.76569 66.1767 2.45443C66.3679 2.02212 66.4723 1.85495 66.6461 1.71661C67.0866 1.37077 67.301 0.817406 67.1388 0.431206C66.9823 0.0623016 66.4027 -0.0933342 65.7478 0.0565338ZM66.5186 0.51767C66.8258 0.62719 66.7389 0.955746 66.2926 1.365C66.1071 1.53216 65.0001 2.07399 64.4553 2.26421C63.9627 2.43714 63.9453 2.40832 64.1771 1.95295C64.4959 1.32465 65.3015 0.661774 65.9217 0.51767C66.2346 0.442734 66.31 0.442734 66.5186 0.51767ZM65.9448 2.32762C65.8057 2.46596 65.6898 2.58124 65.684 2.56971C65.684 2.56395 65.6493 2.51207 65.6029 2.46019C65.5391 2.37373 65.5623 2.34491 65.8115 2.2181C66.2114 2.01059 66.2346 2.03365 65.9448 2.32762ZM61.5169 7.26175C61.4358 7.35973 61.3662 7.46349 61.3662 7.49231C61.3662 7.57301 61.4879 7.79781 61.5575 7.83816C61.5864 7.86122 61.4358 7.8958 61.2213 7.91886C61.0069 7.94192 60.8156 7.94192 60.7982 7.91886C60.7229 7.84393 61.0069 7.45196 61.2793 7.26751C61.6212 7.03694 61.7082 7.03118 61.5169 7.26175ZM59.4246 9.04287C59.4072 9.10051 59.4188 9.21003 59.4536 9.2792C59.5289 9.41178 59.5347 9.41178 60.5548 9.30226C60.8214 9.27344 60.9083 9.29073 61.0764 9.39449C61.2677 9.51553 61.2735 9.5213 61.1518 9.56741C60.8736 9.67117 60.8678 9.93632 61.1402 10.3168C61.2851 10.5185 61.2271 10.53 60.7692 10.3744C60.4157 10.2533 60.4041 10.2533 60.5084 10.4436C60.5548 10.5358 60.5142 10.5185 60.3461 10.3686C60.2186 10.2591 60.0564 10.1265 59.9752 10.0747C59.8593 9.99972 59.8419 9.96514 59.9057 9.89597C59.9578 9.8268 59.952 9.78645 59.8419 9.68846C59.7608 9.61353 59.668 9.57894 59.5927 9.59623C59.4942 9.62505 59.3493 9.60776 58.5842 9.47519C58.4509 9.45213 58.3466 9.46366 58.2771 9.51553C58.1843 9.5847 58.1785 9.61353 58.2423 9.75187C58.2829 9.83833 58.3582 9.9075 58.422 9.9075C58.4799 9.9075 58.5263 9.93055 58.5263 9.96514C58.5263 9.99396 58.4394 10.0228 58.335 10.0228C57.8018 10.0228 57.0831 10.2245 56.7006 10.4839C56.4688 10.6395 56.463 10.6395 55.7443 10.605L55.0199 10.5704L55.8892 10.2303C56.5905 9.95937 59.3725 8.93912 59.442 8.92759C59.4536 8.92759 59.4478 8.97947 59.4246 9.04287ZM64.9306 9.45789C64.9074 9.61353 64.8726 9.7461 64.8494 9.76339C64.8263 9.77492 64.7046 9.67693 64.577 9.55012C64.4553 9.41754 64.3974 9.34261 64.4553 9.38872C64.5539 9.45789 64.577 9.45213 64.6756 9.33108C64.7335 9.25038 64.8031 9.12357 64.8263 9.04864L64.861 8.90453L64.9132 9.04864C64.9422 9.12357 64.948 9.30802 64.9306 9.45789ZM61.969 10.5992C62.1544 11.6886 62.1428 12.2305 61.94 11.8558C61.8994 11.7808 61.5922 11.4408 61.2561 11.0949C60.8156 10.6453 60.7055 10.5127 60.8736 10.6165C61.0011 10.703 61.1923 10.7952 61.2967 10.8355C61.627 10.9508 61.8067 10.6741 61.656 10.2879C61.6154 10.1726 61.6212 10.1323 61.7024 10.0862C61.7545 10.0574 61.8183 10.0458 61.8415 10.0689C61.8646 10.0919 61.9226 10.3283 61.969 10.5992ZM59.668 10.4897C59.9462 10.6223 60.2766 11.0027 60.6301 11.6079C60.8678 12.0057 61.6734 13.7695 61.6386 13.8041C61.6328 13.8156 61.4937 13.7868 61.3372 13.7349C60.6997 13.5504 59.7028 13.9136 59.1175 14.5419C58.4741 15.2394 58.1727 16.1731 58.4046 16.738L58.4799 16.911L58.6248 16.6285C58.706 16.4729 58.8045 16.202 58.8508 16.029C59.0943 15.0952 59.755 14.4324 60.6417 14.2249C60.804 14.1903 61.0648 14.1096 61.2213 14.0462C61.7082 13.8559 61.685 13.8502 61.8183 14.1615C61.969 14.5131 62.0849 15.2048 62.2066 16.5651C62.2587 17.1358 62.3225 17.7698 62.3515 17.9773C62.3805 18.1848 62.4036 18.6114 62.4036 18.9284L62.3978 19.5048L62.3167 19.1013C62.2761 18.8765 62.2124 18.6402 62.1776 18.5653C61.9921 18.156 61.3488 17.6027 60.7229 17.3145C60.0622 17.0147 58.8566 16.9052 58.2017 17.0781C57.4657 17.2741 56.6948 17.8678 56.2775 18.5595C56.0805 18.8938 55.9008 19.5913 55.9298 19.9026L55.9472 20.0813L56.0863 19.8219C56.1616 19.6778 56.2949 19.4587 56.3819 19.3319C56.4688 19.2051 56.6311 18.9515 56.7528 18.767C57.4425 17.6949 58.4915 17.2741 59.8129 17.545C60.5142 17.6891 61.0011 17.9658 61.4995 18.5019C61.7487 18.767 62.0269 19.1417 62.1486 19.3723L62.3631 19.7758L62.2703 20.4502C62.0617 21.8739 61.5401 24.2718 61.2445 25.171C61.146 25.465 61.059 25.7013 61.0474 25.6898C61.0358 25.6783 61.0532 25.4362 61.0822 25.1537C61.1749 24.3294 61.0127 23.4706 60.6128 22.6636C60.0622 21.5453 59.2276 21.0208 58.0047 21.0208C56.6543 21.0208 55.356 21.5511 54.5562 22.433C54.1505 22.8769 53.7564 23.6435 53.6173 24.2603C53.5593 24.5139 53.4956 24.7214 53.4724 24.7214C53.4492 24.7214 53.2637 24.6177 53.0667 24.4851C52.0003 23.7991 50.9628 23.5109 49.4154 23.4648C48.3374 23.436 47.781 23.4936 46.9985 23.7184C46.1234 23.9721 44.9932 24.5773 44.3557 25.1307C44.1123 25.3439 44.0137 25.3036 43.9152 24.9347C43.8341 24.6234 43.9036 24.266 44.205 23.4994C44.9526 21.6088 46.2451 20.1677 47.8157 19.4933C49.7168 18.6748 52.1741 18.7497 54.6605 19.7123C55.3676 19.9833 55.6284 20.2138 55.924 20.8191L56.1037 21.1764L56.0631 20.8882C55.9762 20.2657 55.7038 19.7873 55.2575 19.4818C54.7243 19.1129 52.9682 18.6229 51.7163 18.4903C50.9455 18.4096 49.7457 18.45 49.1082 18.5826C48.4417 18.7209 47.6651 18.9861 47.1724 19.2512C46.9406 19.378 46.7377 19.4702 46.7319 19.4645C46.674 19.4068 46.9232 18.9169 47.2594 18.4154C47.781 17.643 48.0128 17.3721 48.5634 16.9052C49.653 15.9829 50.7194 15.4469 52.0988 15.1414C52.6088 15.0318 52.8696 15.0088 53.7738 15.0088C54.8808 15.0088 55.2343 15.0491 56.2949 15.3028C56.6137 15.3777 57.1643 15.5045 57.512 15.5794C57.8656 15.6544 58.2017 15.7351 58.2655 15.7581C58.5089 15.8388 58.0858 15.5621 57.5352 15.2739C56.4862 14.7263 55.1763 14.4842 53.484 14.5361C52.348 14.5707 51.8612 14.6514 50.957 14.9511C50.3601 15.1471 49.427 15.6371 48.8358 16.0579C48.3605 16.3979 47.3405 17.3375 47.242 17.5393C47.184 17.6372 47.1782 17.643 47.0333 17.545C46.9464 17.4931 46.7261 17.4355 46.5291 17.4182C46.2973 17.3951 46.1813 17.3606 46.1813 17.3087C46.1813 17.2683 46.2625 17.0089 46.361 16.7323C46.9116 15.2221 48.3721 14.0289 50.2789 13.5332C50.6788 13.4294 50.7658 13.4236 51.0382 13.487L51.3454 13.5562L51.0614 13.8502C50.9049 14.0116 50.6962 14.2594 50.6035 14.4035C50.3949 14.709 50.163 15.1529 50.2094 15.1529C50.25 15.1529 51.0961 14.467 51.5076 14.098C52.1278 13.5447 52.8465 13.1297 53.5999 12.8933C53.9824 12.7781 54.1447 12.7608 54.9329 12.7665C55.7385 12.7665 55.8834 12.7838 56.3529 12.9222C56.6427 13.0144 57.4135 13.3487 58.0916 13.683C58.7581 14.0116 59.3145 14.2767 59.3203 14.2652C59.3319 14.2537 59.1464 14.0346 58.903 13.781C58.5031 13.3545 58.393 13.2795 57.7555 12.9683C56.9614 12.5763 56.2717 12.363 55.5299 12.2708C55.2517 12.2362 55.0141 12.2016 55.0083 12.1901C54.9967 12.1786 55.1416 12.1267 55.3328 12.0748C55.5241 12.0229 55.8544 11.9019 56.0689 11.8039C57.2049 11.2909 58.2307 11.2794 59.2218 11.7636C59.5232 11.9134 59.7666 12.1209 60.4331 12.7838C61.3372 13.6888 61.3546 13.6946 61.059 12.9049C60.833 12.2939 59.7724 11.3889 58.9784 11.1237C58.4509 10.9508 57.825 10.8816 57.315 10.9508C57.0773 10.9796 56.8745 10.9912 56.8629 10.9796C56.8455 10.9681 57.002 10.8759 57.2049 10.7779C57.5004 10.6338 57.7265 10.5761 58.4104 10.4897C58.874 10.432 59.2855 10.3802 59.3319 10.3744C59.3783 10.3744 59.5289 10.4205 59.668 10.4897ZM56.1211 11.1122C56.2891 11.1526 56.2833 11.1583 55.8892 11.3428C55.6226 11.4638 55.3618 11.6425 55.1358 11.8615L54.788 12.2016L54.278 12.265C53.4086 12.3803 52.6204 12.6801 51.8496 13.1988C51.5308 13.4179 51.5192 13.4179 51.5018 13.2911C51.4903 13.2161 51.4091 13.1239 51.2932 13.0663C51.1831 13.0144 51.0845 12.9625 51.073 12.9452C51.0382 12.9106 51.8322 12.3169 52.2901 12.0402C53.0145 11.6022 53.8375 11.2851 54.6026 11.1468C55.0488 11.0661 55.8371 11.0488 56.1211 11.1122ZM50.3427 12.8933C50.2384 12.9856 50.0761 13.0778 49.9776 13.1008C49.8385 13.1297 49.8616 13.1008 50.1225 12.9337C50.5108 12.6916 50.5977 12.6743 50.3427 12.8933ZM75.3919 13.8559C75.3919 13.8848 75.3629 13.8732 75.334 13.8271C75.305 13.781 75.276 13.7118 75.276 13.683C75.276 13.6484 75.305 13.6657 75.334 13.7118C75.3629 13.758 75.3919 13.8214 75.3919 13.8559ZM45.8336 16.7323C45.7698 16.9167 45.7003 17.1934 45.6829 17.3548C45.6481 17.6257 45.625 17.6545 45.2308 17.9427C44.773 18.2828 44.4774 18.5595 44.0949 18.9861C43.8457 19.2685 43.8457 19.2685 43.979 19.0437C44.5006 18.156 45.851 16.3057 45.9263 16.3749C45.9379 16.3922 45.8974 16.5536 45.8336 16.7323ZM46.7088 17.9255C46.8189 17.9658 46.9116 18.0004 46.9232 18.0119C46.9348 18.0177 46.871 18.2137 46.7899 18.45C46.6856 18.7151 46.6276 18.9976 46.6218 19.2224L46.616 19.574L46.3089 19.7988C45.8278 20.1447 45.086 20.9516 44.686 21.5511C44.489 21.8509 44.2919 22.1506 44.2456 22.214C44.1586 22.3293 44.1586 22.3293 44.1528 22.1967C44.1528 22.0641 44.1354 22.0584 43.8051 22.0814L43.4573 22.0987V21.8105C43.4631 21.1419 43.8515 20.1274 44.3557 19.476C44.8367 18.8535 45.5902 18.2252 46.1408 17.9773C46.4306 17.8448 46.4537 17.8448 46.7088 17.9255ZM43.1849 20.6692C43.0343 21.1534 42.9125 22.0007 42.9647 22.2428C42.9879 22.3639 42.9473 22.4273 42.6981 22.6405C42.3098 22.9691 41.9331 23.5513 41.7418 24.1219C41.5679 24.6407 41.4926 25.5342 41.5853 26.0299L41.6433 26.3296L41.4172 26.5083C41.1506 26.7273 40.9478 27.0155 40.7565 27.4709C40.6174 27.7879 40.6116 27.7937 40.6464 27.5747C40.7913 26.6121 41.5448 24.0931 42.0722 22.8077C42.333 22.1621 43.2603 20.2254 43.3009 20.2254C43.3182 20.2254 43.2661 20.4271 43.1849 20.6692ZM43.95 22.8423C43.695 23.3841 43.637 23.6608 43.6312 24.2487C43.6312 24.756 43.7124 25.0327 43.921 25.2402L44.0485 25.367L43.7124 25.7186C43.5269 25.9146 43.3704 26.0875 43.3588 26.099C43.3472 26.1106 43.2893 26.076 43.2255 26.0183C43.1212 25.9261 43.069 25.9204 42.7213 25.978C42.501 26.0183 42.2692 26.0645 42.2055 26.0817C42.0896 26.1106 42.078 26.0875 42.0432 25.6898C41.9562 24.8079 42.2518 23.8625 42.7966 23.2285C43.0748 22.9115 43.6544 22.531 43.8688 22.531C43.9558 22.531 44.0485 22.5022 44.0659 22.4734C44.0833 22.4388 44.1123 22.4157 44.1239 22.4157C44.1354 22.4157 44.0543 22.606 43.95 22.8423ZM40.6 28.0185C40.5827 28.0589 40.5711 28.03 40.5711 27.9493C40.5711 27.8686 40.5827 27.8398 40.6 27.8744C40.6116 27.9148 40.6116 27.9839 40.6 28.0185Z" fill="#3D1708"/>
<path d="M65.5732 0.915788C65.353 0.984958 64.9879 1.23858 64.8778 1.40574C64.8314 1.47491 64.8082 1.5902 64.8256 1.65937C64.8778 1.85535 65.1618 1.82076 65.4284 1.57867C65.5559 1.46915 65.7066 1.37692 65.7703 1.37692C65.8341 1.37692 65.9268 1.31352 65.979 1.23282C66.0717 1.09448 66.0717 1.07718 65.9732 0.97343C65.8572 0.846618 65.8225 0.840854 65.5732 0.915788Z" fill="#3D1708"/>
<path d="M51.3393 1.99338C50.1164 2.07984 48.6501 2.55827 47.4214 3.2615C47.1374 3.42866 46.8997 3.50936 46.6042 3.55547C45.5783 3.72263 44.0946 4.35092 42.7442 5.19826C40.9997 6.28768 39.4696 7.60768 37.6729 9.56173C37.2962 9.97099 36.9369 10.2995 36.7398 10.4206C36.0965 10.801 35.2445 11.4063 34.6939 11.8674C33.6623 12.7205 33.0827 13.343 31.8482 14.9166C31.4889 15.372 31.0774 15.6948 30.6485 15.8504C30.2428 15.9945 30.1558 16.081 30.208 16.2712C30.2486 16.4441 30.2544 16.4499 31.286 16.594C32.9146 16.8246 33.4768 16.9975 35.4879 17.8737C38.0786 19.0092 40.4027 19.6894 42.0081 19.7989C42.7094 19.845 42.7558 19.7816 42.0835 19.7009C41.0576 19.5741 39.6667 19.1245 37.7483 18.3117C37.0818 18.0235 36.5196 17.7814 36.5022 17.7641C36.4848 17.7526 36.6413 17.7584 36.8499 17.7757C37.1513 17.8103 37.3715 17.891 37.9627 18.1849C39.3653 18.8882 40.6287 19.2167 41.7995 19.1764C42.466 19.1533 42.7384 19.0726 43.1093 18.7844L43.2542 18.6691L42.0951 18.6864C41.2779 18.6922 40.8316 18.6749 40.5882 18.6172L40.2404 18.5423L40.6172 18.4443C41.1967 18.3002 41.4517 18.1446 41.4749 17.9371C41.4981 17.6834 41.3011 17.6489 40.9011 17.8333C40.7273 17.9082 40.4723 17.9889 40.3274 18.012L40.0724 18.0523L40.339 17.7468C40.4896 17.5739 40.6056 17.4241 40.594 17.4125C40.565 17.3837 39.8579 17.6027 39.4174 17.7757C39.0465 17.9255 38.6582 17.9486 37.9221 17.8679C37.5396 17.8275 37.5976 17.7814 38.125 17.718C38.5539 17.6661 39.4464 17.4413 39.9796 17.2511C41.3648 16.7554 42.5703 15.862 43.544 14.6054C43.9265 14.1039 44.3438 13.4237 44.5293 12.9914L44.6162 12.7781L44.2627 13.0836C43.9497 13.3546 43.7816 13.5275 43.2252 14.1846L43.0746 14.3575L43.0977 14.1097L43.1209 13.8676L42.9007 14.0059C42.7732 14.0808 42.5066 14.3114 42.2979 14.5189C41.9154 14.9051 41.4459 15.251 40.9475 15.5161C40.791 15.5968 40.5998 15.7467 40.5244 15.8562L40.3795 16.0464L40.6693 16.0637C40.9243 16.081 41.0171 16.0522 41.3648 15.8504C41.5792 15.7236 41.8922 15.5104 42.0545 15.3835C42.4486 15.078 42.5066 15.0896 42.153 15.3951C40.9417 16.4557 39.4696 17.084 37.6903 17.2857C37.3715 17.3203 36.9079 17.3895 36.6529 17.4356C36.0211 17.5509 35.8936 17.5336 35.43 17.3088C35.2097 17.205 35.0764 17.1243 35.1402 17.1416C35.5401 17.2338 36.4036 17.2742 36.9774 17.2223C37.9047 17.1416 38.3336 17.0321 38.7335 16.7669L39.0813 16.5364H38.6176C38.3626 16.5421 37.9975 16.5767 37.8062 16.6286C37.2962 16.7496 36.0791 16.8015 35.5459 16.7151C34.9779 16.6228 34.6649 16.5133 33.8245 16.1098C33.4478 15.9311 33.1291 15.787 33.1117 15.787C33.0479 15.787 33.3087 16.2309 33.4826 16.4153C33.5927 16.5364 33.6217 16.594 33.5637 16.5652C33.3435 16.4845 32.335 16.2597 31.854 16.1905C31.57 16.1502 31.344 16.0925 31.344 16.0637C31.344 16.0407 31.3671 16.0176 31.3961 16.0176C31.5178 16.0176 32.0858 15.4297 32.5669 14.8014C32.8567 14.4209 33.1175 14.1039 33.1464 14.0866C33.1696 14.0693 33.1406 14.1731 33.0769 14.3172C33.0131 14.4613 32.9668 14.6054 32.9784 14.6342C32.99 14.663 33.1986 14.5189 33.4536 14.3056C33.7086 14.0924 33.8767 13.9828 33.8361 14.052C33.7724 14.1788 33.7724 14.1788 34.0506 14.1385C34.2013 14.1154 34.3925 14.052 34.4737 14.0001C34.7113 13.8387 35.2851 13.5621 35.7255 13.4064C36.1602 13.2508 36.7746 13.1182 36.6934 13.1932C36.5022 13.3834 34.7461 14.2941 34.1839 14.5016L33.8072 14.64L34.1143 14.6054C34.4911 14.565 35.2039 14.3287 36.166 13.9367C37.1339 13.539 37.1571 13.539 36.3863 13.9252C35.7545 14.2422 34.4389 15.078 34.4853 15.1299C34.5316 15.176 36.195 14.5881 36.6181 14.3748C36.8557 14.2538 37.2962 14.0405 37.5976 13.9021L38.1424 13.6543L37.586 14.2134C37.076 14.7207 37.0238 14.7898 37.0238 14.9858C37.0238 15.1991 37.0238 15.2048 37.2035 15.153C37.3136 15.1184 37.6439 14.8475 38.0438 14.4613C38.409 14.1154 38.7277 13.8272 38.7625 13.8272C38.7915 13.8272 38.8726 13.7235 38.9364 13.6024C39.0407 13.3891 39.0407 13.3718 38.948 13.3488C38.8552 13.3257 39.0871 13.2047 39.9796 12.8127L40.2984 12.6686L39.8985 13.0318C39.5391 13.3603 39.4986 13.418 39.5391 13.5563C39.6029 13.8272 39.8115 13.7638 40.3621 13.2911C40.8722 12.8588 40.9997 12.6513 40.8316 12.5303C40.7447 12.4669 40.762 12.4496 40.9533 12.3689C41.0692 12.3228 41.614 12.098 42.153 11.8674C43.3006 11.3832 44.5003 10.9278 44.5351 10.9624C44.5525 10.974 44.4655 11.3429 44.3554 11.7809C44.2395 12.2132 44.1526 12.5764 44.1642 12.5879C44.2047 12.6283 45.0567 11.0835 45.2364 10.6396C45.3407 10.386 45.416 10.167 45.4102 10.1554C45.3986 10.1497 45.161 10.2188 44.877 10.3111C44.593 10.4033 44.3554 10.4725 44.3438 10.4667C44.3148 10.4321 45.9492 9.80383 46.7896 9.52715C47.6706 9.22741 48.5341 9.01414 49.1717 8.92191C49.4209 8.88732 49.8382 8.81239 50.0932 8.75475C50.6438 8.62217 52.2376 8.35126 52.4405 8.35126C52.5796 8.35126 52.5796 8.35702 52.3941 8.46654C52.2898 8.52995 52.1797 8.58182 52.1449 8.58182C52.1101 8.58182 52 8.63946 51.9015 8.70863C51.7276 8.83545 51.6581 8.84121 50.7887 8.84121C49.7744 8.84697 49.3629 8.91038 48.3892 9.22741C47.688 9.45798 47.2011 9.80959 46.5346 10.5705C46.2506 10.8875 46.2622 10.8471 46.5984 10.3572C46.7491 10.1324 46.8186 9.96522 46.8186 9.82688C46.8186 9.7116 46.807 9.61937 46.7954 9.61937C46.7896 9.61937 46.6969 9.64819 46.5984 9.68278C46.3434 9.76924 45.1958 11.4581 45.1958 11.7463C45.1958 11.925 45.2074 11.9366 45.3523 11.8962C45.4972 11.8616 45.4972 11.8674 45.4218 11.9769C45.3755 12.0403 45.1089 12.4208 44.8191 12.83C44.3612 13.4756 43.9671 14.2019 43.8338 14.64C43.7411 14.9455 44.5872 13.9944 45.3059 12.9914C46.7722 10.9451 47.5025 10.1554 48.2328 9.82112C48.6616 9.62514 49.3398 9.44068 50.0352 9.33693C50.2613 9.30234 50.696 9.19859 51.0031 9.10636L51.5653 8.9392L51.2292 9.3254C51.0379 9.53291 50.5858 10.1036 50.2207 10.5878C49.6006 11.412 49.4615 11.6657 49.2818 12.2651C49.2064 12.5072 49.9193 11.8443 50.2845 11.3256C50.6844 10.7549 51.1944 10.1151 51.6349 9.61361C51.8783 9.33693 52.0811 9.1813 52.3825 9.02566L52.7998 8.81239L52.568 9.08907C52.1391 9.60208 51.9247 9.98251 51.9594 10.1497C51.9768 10.2419 52.0174 10.3111 52.058 10.3111C52.2492 10.3053 52.3825 10.2188 52.4984 10.0113C52.568 9.88452 52.7882 9.60784 52.9853 9.39457C53.1765 9.18706 53.3736 8.95649 53.4084 8.88732C53.4779 8.76628 53.4721 8.75475 53.333 8.72016C53.2519 8.69711 53.2055 8.66252 53.2345 8.6337C53.3272 8.54147 54.3705 8.35126 54.5849 8.38584L54.7878 8.41466L54.6313 8.27056C54.5385 8.18986 54.4864 8.11493 54.5154 8.1034C54.5385 8.0861 54.7588 8.05728 55.0138 8.03423C55.5296 7.98811 55.5238 7.93047 55.0775 8.51265C54.8747 8.7778 54.8283 8.81239 54.6892 8.78357C54.5617 8.75475 54.5038 8.78357 54.3473 8.95649C54.0633 9.26776 53.7155 9.80383 53.7155 9.9364C53.7213 10.2995 54.0401 10.265 54.2719 9.873L54.4284 9.61361L54.5385 9.79806C54.6487 9.97099 54.6545 9.97675 54.7646 9.873C54.8283 9.81535 54.9732 9.60208 55.0833 9.38881C55.1935 9.1813 55.4137 8.86427 55.5702 8.67981C55.7962 8.41466 55.86 8.29938 55.86 8.14375C55.86 7.99388 55.8832 7.94776 55.9643 7.94776C56.0165 7.94776 56.2077 7.93047 56.3816 7.91318L56.7003 7.87859L56.3526 8.0861C56.1613 8.20139 55.8716 8.43772 55.7093 8.61064C55.4717 8.86427 55.4021 8.97955 55.3789 9.18706C55.3094 9.68278 55.3731 9.67701 55.9121 9.11213C56.6192 8.38008 57.222 8.1034 58.2768 8.02846C58.7289 7.99964 59.3954 7.84977 59.3954 7.77484C59.3954 7.75178 59.3258 7.69991 59.2389 7.65956C59.0824 7.58462 59.1056 7.57886 59.6562 7.48663L60.2358 7.3944L58.9317 7.35406C57.8305 7.31371 57.4306 7.32523 56.3526 7.42899C53.5185 7.68838 51.5074 7.95353 50.2961 8.21868C49.9309 8.29361 49.4093 8.39737 49.1369 8.43772C48.8645 8.47807 48.5168 8.54147 48.3603 8.57606C48.2038 8.61641 48.0705 8.6337 48.0589 8.62217C48.0183 8.58182 49.7455 8.13798 50.6438 7.95353C52.3767 7.59615 54.3125 7.31947 55.9179 7.19842C56.3816 7.16384 57.3089 7.08314 57.9754 7.0255C58.6477 6.96209 59.5171 6.88716 59.9112 6.85257C60.3053 6.82375 60.6357 6.78917 60.653 6.77764C60.6646 6.76611 60.4212 6.73729 60.1082 6.71423C58.6187 6.61624 58.5144 6.60471 58.6071 6.55284C58.7347 6.48367 58.7231 6.23581 58.5898 6.16087C58.4333 6.08017 58.3521 6.08594 58.3521 6.18969C58.3521 6.23581 58.329 6.27616 58.2942 6.27616C58.2652 6.27616 58.2536 6.23581 58.271 6.18969C58.2942 6.13205 58.271 6.10323 58.2072 6.10323C58.1551 6.10323 57.9117 6.011 57.6682 5.89572C57.0597 5.60751 56.7757 5.63057 56.9032 5.95336C56.9554 6.09747 57.1698 6.22428 57.9464 6.55284C58.0623 6.60471 57.9754 6.61624 57.5118 6.61624C55.0254 6.6393 50.3772 7.37135 47.9778 8.11493C47.7691 8.1841 47.5836 8.23597 47.5605 8.23597C47.5431 8.23597 47.5547 8.15527 47.5894 8.05728C47.6532 7.90165 47.6474 7.87283 47.5489 7.7979C47.4851 7.75178 47.3692 7.7172 47.2939 7.7172C47.1779 7.7172 47.1663 7.73449 47.2185 7.7979C47.3344 7.93624 45.8043 8.20139 43.8628 8.36855L43.0224 8.44348L43.4223 8.69711L43.8222 8.95073L43.3933 9.09483L42.9644 9.23317L43.1673 9.3254C43.2832 9.37728 43.5382 9.41763 43.7527 9.41763C44.2279 9.41763 44.4076 9.29658 44.3728 9.00261C44.3496 8.82392 44.3554 8.81815 44.6162 8.78933C45.787 8.64523 46.3491 8.57029 46.4709 8.54147C46.7375 8.47807 46.5636 8.56453 46.0362 8.75475C44.9002 9.164 42.2168 10.4206 38.9654 12.0634L37.3426 12.8819L37.1397 12.7781C36.7514 12.5764 35.7371 12.7897 34.7635 13.2796C34.5316 13.3949 34.3635 13.4583 34.3867 13.4237C34.4041 13.3949 34.6302 13.1989 34.8852 12.9972L35.343 12.6283L35.5227 12.7147C35.6618 12.7839 35.7313 12.7897 35.8415 12.7378C35.9226 12.7032 36.1312 12.6571 36.3051 12.6398C36.5659 12.6052 36.6413 12.5764 36.6876 12.4669C36.7398 12.3574 36.734 12.3055 36.6587 12.2248C36.5775 12.1383 36.508 12.1268 36.2588 12.1556L35.9632 12.196L36.1023 12.0807C36.3283 11.8962 37.0875 11.5388 37.5164 11.412C37.8758 11.3083 38.1771 11.2564 39.2436 11.1353C39.3943 11.1181 39.5334 11.0835 39.5449 11.0604C39.5623 11.0374 39.3885 10.9567 39.1624 10.8875C38.4322 10.6512 37.4932 10.801 36.479 11.3025C36.224 11.4236 35.9458 11.5792 35.8531 11.6426C35.7661 11.706 35.6908 11.7463 35.6908 11.7291C35.6908 11.6887 36.5427 11.1065 37.0006 10.8356C37.3078 10.6569 37.5454 10.4494 37.9395 10.0056C38.7973 9.04296 41.1967 6.76035 40.8954 7.18689C40.8432 7.26183 40.6345 7.50969 40.4259 7.73449C40.223 7.96506 39.8 8.46078 39.487 8.84121C39.174 9.22165 38.8784 9.58479 38.8263 9.64243C38.7219 9.76924 38.9016 9.65972 39.4464 9.25623C39.6898 9.07178 39.7652 9.04296 39.8347 9.1006C39.8985 9.15248 39.9912 9.15248 40.2346 9.1006C40.4143 9.06601 40.6114 9.04872 40.6693 9.07178C40.7331 9.08907 40.849 9.08907 40.9301 9.06601C41.0518 9.03719 41.0808 8.99684 41.0808 8.84121C41.0808 8.65676 41.0866 8.65099 41.3996 8.61064C41.5735 8.59335 41.9444 8.58182 42.2226 8.58759C42.7268 8.59912 42.9934 8.55877 42.9934 8.4723C42.9934 8.44348 42.9412 8.35702 42.8775 8.27632C42.721 8.0861 42.2689 8.02846 41.5155 8.12069C40.8258 8.20139 40.6925 8.2475 40.6056 8.43772C40.5708 8.51842 40.4896 8.58182 40.4259 8.58182C40.3332 8.58182 40.3795 8.50689 40.6519 8.21868C40.8432 8.0227 41.162 7.65956 41.3706 7.4117C42.124 6.50096 43.289 5.74009 44.8075 5.1752C45.2595 5.00804 45.4798 4.96193 45.3175 5.05992C45.1147 5.18673 45.8275 5.22708 46.7085 5.13485C47.7343 5.02533 48.7602 5.18673 49.5426 5.58446C49.9309 5.78044 50.4062 5.95336 50.4467 5.91301C50.4873 5.87266 50.2265 5.46917 50.0874 5.34236C49.9077 5.18673 49.2586 4.90428 48.7892 4.78324C48.4182 4.68525 48.3835 4.66795 48.5747 4.66795C49.2238 4.65643 51.0843 5.23284 52.2666 5.80926L52.7592 6.05135L52.4173 5.73432C52.2318 5.5614 51.9131 5.30778 51.7102 5.1752C51.5074 5.04262 51.3393 4.92734 51.3393 4.91581C51.3393 4.83511 52.823 5.53258 53.4721 5.91878C53.9648 6.21851 54.8051 6.59319 54.8573 6.54131C54.9326 6.46637 54.2835 5.83808 53.8604 5.57869C53.3388 5.2559 52.2724 4.7256 51.7334 4.51809C51.5305 4.44315 51.3972 4.37975 51.4262 4.37975C51.5247 4.37398 52.5622 4.65066 52.9215 4.77171C53.1012 4.83511 53.2519 4.87546 53.2519 4.86394C53.2519 4.80629 52.5158 4.35092 52.0522 4.12036C51.5885 3.88979 50.3424 3.50936 49.7455 3.41137C49.4499 3.36525 49.5774 3.30761 50.2381 3.19809C51.774 2.94447 53.2113 3.04822 54.6834 3.51512C55.1819 3.67652 56.7003 4.35092 57.5407 4.78324C57.7494 4.89276 57.9406 4.99075 57.9696 5.00228C58.0913 5.05415 57.1872 4.24717 56.8452 3.99355C55.9643 3.34796 54.3878 2.80613 52.9041 2.63897C52.3535 2.57556 50.9104 2.59285 50.2961 2.67355C50.1859 2.68508 50.2787 2.65626 50.4989 2.60438C51.1017 2.46028 53.0432 2.46028 53.7155 2.61015C54.7182 2.82342 55.9643 3.31914 56.7525 3.80909C56.9206 3.91285 57.164 4.00507 57.3089 4.02237C57.5465 4.05119 57.5813 4.08001 57.6856 4.29328C57.7552 4.43162 57.958 4.65643 58.1783 4.83511C58.3869 5.00228 58.7926 5.38271 59.0766 5.67092C59.3664 5.96489 59.6852 6.24734 59.7953 6.30498L59.9923 6.40297L59.9576 6.16664C59.9344 5.96489 59.946 5.93031 60.0329 5.93031C60.1082 5.93031 60.1256 5.89572 60.1025 5.7862C60.0793 5.65363 60.0909 5.6421 60.3169 5.6421C60.4444 5.6421 60.5545 5.61904 60.5545 5.58446C60.5545 5.41153 60.3749 5.21555 60.0155 5.00228C59.5577 4.73136 59.1867 4.65066 59.0766 4.79477C59.0186 4.87546 58.9607 4.84664 58.5956 4.54114C58.3637 4.34516 58.1783 4.178 58.1783 4.17224C58.1783 4.14341 58.5318 4.24141 58.9897 4.38551C59.9576 4.69101 60.8733 5.33083 61.3833 6.04559C61.4645 6.16087 61.4587 6.14358 61.3717 5.95913C60.8849 4.97922 59.5577 4.12036 57.9464 3.74569C57.3553 3.60735 57.2683 3.567 56.5728 3.15198C55.1761 2.31041 53.1302 1.8608 51.3393 1.99338ZM48.2675 3.61888C48.3835 3.65346 48.3487 3.67075 48.0705 3.70534C47.8792 3.72839 47.688 3.76298 47.6358 3.78027C47.5836 3.79756 47.6068 3.75722 47.688 3.68805C47.8387 3.567 48.0125 3.54394 48.2675 3.61888ZM48.2038 4.12036C48.2154 4.13189 48.0009 4.14341 47.7169 4.14341C47.1374 4.14341 46.2158 4.27023 45.5609 4.43162C45.3175 4.49503 45.1089 4.53538 45.0973 4.52385C45.0509 4.47774 46.3491 4.08577 46.7606 4.02237C46.9983 3.98202 47.2301 3.9359 47.2765 3.91285C47.346 3.87826 48.1342 4.05119 48.2038 4.12036ZM39.2667 12.536C39.0581 12.6744 37.5106 13.4237 37.4353 13.4237C37.3889 13.418 39.3537 12.4035 39.429 12.3919C39.458 12.3919 39.3885 12.4496 39.2667 12.536ZM39.8231 18.2137C39.7884 18.2483 39.771 18.3175 39.7884 18.3578C39.8115 18.4155 39.7884 18.427 39.713 18.404C39.5102 18.329 39.4986 18.306 39.6377 18.231C39.8115 18.1388 39.9101 18.1273 39.8231 18.2137Z" fill="#3D1708"/>
<path d="M52.5387 3.23857L52.3765 3.30774L52.5387 3.45761C52.6373 3.54407 52.9387 3.68241 53.2806 3.79193C53.895 3.99368 54.4455 4.2473 54.7353 4.46057C54.8339 4.53551 55.0077 4.61621 55.1237 4.6335C55.3265 4.67385 55.3381 4.66808 55.3381 4.52974C55.3381 4.18389 54.6948 3.76311 53.553 3.37115C52.9039 3.14634 52.788 3.13481 52.5387 3.23857Z" fill="#3D1708"/>
<path d="M54.4289 5.39419C54.3883 5.40572 54.3535 5.49219 54.3535 5.58441C54.3535 5.72275 54.4115 5.78039 54.7187 5.97638C55.3098 6.34528 55.3098 6.34528 55.4547 6.23C55.6576 6.0686 55.559 5.91297 55.0838 5.619C54.6723 5.35961 54.5796 5.33079 54.4289 5.39419Z" fill="#3D1708"/>
<path d="M43.956 5.67642L43.73 5.83205L43.8865 5.91275C43.9908 5.97039 44.2864 5.99921 44.779 6.01074C45.4107 6.02803 45.5788 6.05109 45.9497 6.18366C46.5757 6.40847 46.906 6.50069 46.9234 6.44882C46.935 6.41999 46.9002 6.31048 46.8539 6.19519C46.7843 6.02803 46.6974 5.9531 46.4482 5.83781C45.9961 5.63607 45.4281 5.52655 44.7616 5.52655C44.2284 5.52655 44.1589 5.53808 43.956 5.67642Z" fill="#3D1708"/>
<path d="M48.9574 6.26461C48.8299 6.37413 48.8299 6.3799 48.9227 6.52977C48.9806 6.61046 49.0502 6.67963 49.0791 6.67963C49.2124 6.67963 49.792 6.93326 49.9369 7.04854C50.0238 7.12347 50.1803 7.20417 50.2847 7.22723L50.4759 7.26758L50.4585 7.04854C50.4469 6.86985 50.3948 6.79492 50.1977 6.64505C49.9833 6.48365 49.6413 6.32226 49.2182 6.19544C49.1371 6.17239 49.0502 6.19544 48.9574 6.26461Z" fill="#3D1708"/>
<path d="M41.9672 6.91005C41.8165 6.96769 41.7875 7.20402 41.9093 7.30201C41.9846 7.35965 42.767 7.35388 42.8713 7.28472C42.9699 7.22707 42.9467 6.92734 42.8424 6.88699C42.7091 6.83511 42.1121 6.8524 41.9672 6.91005Z" fill="#3D1708"/>
<path d="M53.5583 8.91071C53.4134 9.06634 53.1236 9.40643 52.9208 9.67158C52.6194 10.0693 52.5557 10.1961 52.5557 10.3806C52.5557 10.5016 52.5673 10.5996 52.5788 10.5996C52.7585 10.5996 52.9845 10.4209 53.228 10.0924C53.3787 9.87909 53.6453 9.56206 53.8133 9.38913C54.0799 9.10092 54.2364 8.8473 54.2364 8.69167C54.2364 8.66285 54.1437 8.63979 54.0336 8.63979C53.8655 8.63979 53.7786 8.6859 53.5583 8.91071Z" fill="#3D1708"/>
<path d="M49.3397 9.93078C48.8645 10.1498 48.0936 11.1182 47.1373 12.7033C46.7258 13.3893 46.5868 13.6717 46.5346 13.9426C46.494 14.1386 46.4766 14.3173 46.494 14.3346C46.5694 14.4095 47.0156 13.885 47.2938 13.395C47.7749 12.5592 48.5109 11.4698 49.0326 10.8415C49.5658 10.1959 49.8208 9.79244 49.7049 9.79244C49.6643 9.79244 49.4962 9.85585 49.3397 9.93078Z" fill="#3D1708"/>
<path d="M38.9595 9.90746C38.3104 9.97663 37.9279 10.1092 37.7424 10.3282L37.5859 10.5127L37.8525 10.53C37.9974 10.5415 38.3278 10.5069 38.5886 10.4608C39.145 10.3513 40.0491 10.3398 40.704 10.432C41.0518 10.4781 41.2315 10.4781 41.4227 10.4262L41.6719 10.3628L41.4459 10.1957C41.2894 10.0804 41.0982 10.0112 40.8431 9.97087C40.2752 9.88441 39.4174 9.85559 38.9595 9.90746Z" fill="#3D1708"/>
<path d="M69.9434 10.0632C69.9492 10.19 70.3201 10.5705 70.749 10.8875C71.4503 11.412 72.2327 12.1787 72.5862 12.6744C72.7543 12.9107 72.9687 13.1816 73.0673 13.2739L73.2469 13.4468V13.0952C73.2469 12.7724 73.2295 12.7205 72.9629 12.3516C72.4239 11.5907 70.8533 10.2188 70.3664 10.0863C70.1056 10.0113 69.9434 10.0056 69.9434 10.0632Z" fill="#3D1708"/>
<path d="M47.7402 10.2765C47.4157 10.5186 47.0216 10.9567 46.7666 11.3775C46.6101 11.6369 46.5811 11.7291 46.6101 11.8962C46.6506 12.098 46.6506 12.098 46.8187 12.0115C46.9056 11.9654 47.1027 11.7464 47.2476 11.5331C47.52 11.1238 47.8793 10.7549 48.1807 10.5762C48.3604 10.4725 48.5748 10.1728 48.5111 10.1151C48.4937 10.0978 48.372 10.0805 48.2445 10.0805C48.0706 10.0805 47.9373 10.1324 47.7402 10.2765Z" fill="#3D1708"/>
<path d="M67.2543 10.588C67.2775 10.7033 67.3412 10.8762 67.405 10.9742C67.4629 11.0664 67.5093 11.2048 67.5093 11.2682C67.5093 11.5391 67.1442 11.8216 66.5994 11.983C66.4661 12.0233 66.2864 12.1328 66.1995 12.2193L66.043 12.3807L66.211 12.4498C66.4371 12.5305 66.7385 12.4902 67.1326 12.3057C67.3064 12.225 67.4339 12.1905 67.4108 12.2308C67.3818 12.2712 67.2775 12.4326 67.1731 12.5997C67.0398 12.8072 66.9239 12.9167 66.7906 12.9629C66.6805 12.9974 66.5472 13.0781 66.4892 13.1415C66.3907 13.2511 66.3907 13.2511 66.6052 13.1646C66.7269 13.1127 66.8834 13.0781 66.9587 13.0897C67.0572 13.1012 67.1905 13.0147 67.4455 12.7726C67.857 12.3807 68.2396 12.1847 68.4482 12.2654C68.5178 12.2942 68.6453 12.3807 68.7206 12.4671C68.9408 12.6977 70.129 14.7382 70.6912 15.8449C71.149 16.7326 71.6822 17.9258 71.6822 18.0296C71.6822 18.0469 71.5084 17.7125 71.2997 17.286C70.952 16.5712 70.6969 16.2023 70.4593 16.0755C70.3028 15.989 70.4999 16.7787 70.7665 17.3033C71.2417 18.2544 71.7923 19.7473 72.0068 20.6926C72.0589 20.9289 72.1807 21.2863 72.2792 21.4938C72.4531 21.8627 72.4531 21.8685 72.4936 21.6956C72.5168 21.5976 72.54 21.4074 72.5458 21.269C72.5458 21.1307 72.569 21.0327 72.5864 21.05C72.6095 21.073 72.6965 21.4304 72.7834 21.8512C72.8704 22.272 73.0268 23.004 73.137 23.4825L73.334 24.3413L73.363 23.396L73.392 22.4449L73.4963 23.2807C73.9368 26.9237 74.0005 30.4859 73.6818 33.8868C73.6296 34.4113 73.5658 35.1376 73.5311 35.5007C73.5021 35.8639 73.4209 36.4749 73.3572 36.8496C73.2992 37.23 73.2587 37.547 73.2703 37.5643C73.3224 37.6104 73.7281 36.2097 73.9252 35.3048C74.2034 34.0078 74.2903 32.9472 74.3309 30.3649C74.3714 27.4943 74.2613 25.4077 73.9426 22.9349C73.3804 18.6694 72.598 16.1504 71.1258 13.8794C70.5521 12.9859 69.3523 11.8216 68.5235 11.3489C68.3265 11.2394 68.3555 11.2797 68.7032 11.5968C69.7117 12.5248 70.9751 14.3636 71.7054 15.9602C72.2386 17.1188 72.6443 18.4273 72.9573 19.9606C73.1833 21.0788 73.1717 21.1883 72.9225 20.2545C72.3256 18.0007 71.5605 16.2311 70.1174 13.7756C69.2422 12.2885 69.1147 12.0982 68.8481 11.9195C68.6395 11.7754 68.199 11.7293 67.9266 11.8273C67.7933 11.8792 67.7933 11.8792 67.8802 11.7005C68.0193 11.4354 67.9961 11.0261 67.8281 10.7437C67.7179 10.5477 67.6368 10.4843 67.4513 10.4382L67.2137 10.3805L67.2543 10.588ZM71.7981 18.2947C71.7981 18.3235 71.7692 18.312 71.7402 18.2659C71.7112 18.2198 71.6822 18.1506 71.6822 18.1218C71.6822 18.0872 71.7112 18.1045 71.7402 18.1506C71.7692 18.1967 71.7981 18.2601 71.7981 18.2947ZM73.1717 21.2171C73.1543 21.2575 73.1428 21.2287 73.1428 21.148C73.1428 21.0673 73.1543 21.0385 73.1717 21.073C73.1833 21.1134 73.1833 21.1826 73.1717 21.2171Z" fill="#3D1708"/>
<path d="M69.538 10.7608C69.6307 10.9164 70.2161 11.5447 70.8304 12.1614C71.4448 12.7782 72.1113 13.4987 72.3142 13.7697C72.6677 14.2423 73.2009 14.7438 73.2357 14.64C73.2473 14.6112 73.2183 14.4441 73.1719 14.2654C73.0734 13.9022 72.6735 13.3604 71.7925 12.4035C70.9058 11.4467 70.1697 10.7896 69.8046 10.6282C69.6249 10.5475 69.4511 10.4841 69.4221 10.4841C69.3931 10.4841 69.4453 10.6109 69.538 10.7608Z" fill="#3D1708"/>
<path d="M68.7611 10.8471C68.9639 11.193 69.2479 11.5331 69.7927 12.098C70.7838 13.1182 71.4677 14.0347 71.9429 14.9801C72.1632 15.4181 72.6616 16.1559 72.708 16.1156C72.7196 16.0983 72.708 15.8966 72.679 15.6602C72.5978 15.0146 72.0878 14.0636 71.2301 12.9626C70.7258 12.3228 69.6188 11.193 69.3638 11.0604C68.9755 10.8644 68.7205 10.7722 68.7611 10.8471Z" fill="#3D1708"/>
<path d="M65.3885 11.5503C65.8812 12.8242 66.4666 14.6976 66.8085 16.0637C67.7764 19.9718 67.9271 21.3552 67.7126 24.416C67.2953 30.2724 66.2521 33.5003 63.6904 36.855C63.0876 37.6505 61.5518 39.1549 60.6418 39.8466C59.1697 40.9706 57.9236 41.6912 56.0516 42.4924C53.8492 43.4435 51.6063 44.1698 49.4271 44.6367C47.8854 44.9652 46.79 45.3629 45.1034 46.1987C44.1239 46.6829 43.9385 46.7579 43.5676 46.7982L43.1387 46.8501L43.6313 46.8328C44.1587 46.8155 44.1182 46.827 45.7178 46.1642C46.6219 45.7895 47.4739 45.5474 48.9112 45.2419C51.1252 44.775 52.5394 44.3773 54.3361 43.7086C58.1497 42.2964 60.4042 40.9418 62.6761 38.6996C64.5887 36.8089 66.0377 34.5148 66.8375 32.1111C66.9302 31.846 67.0114 31.6442 67.0229 31.6558C67.0635 31.6961 67.7358 33.3677 67.7068 33.3677C67.6953 33.3677 67.562 33.189 67.4171 32.9642L67.1505 32.5665L66.9824 32.653C66.8896 32.6991 66.8143 32.7509 66.8143 32.774C66.8143 32.8432 69.9324 38.7284 70.0136 38.8148C70.0483 38.8437 69.9672 38.665 69.8397 38.4056C69.4108 37.5525 68.3212 35.195 68.3386 35.1719C68.3502 35.1604 68.3965 35.1892 68.4371 35.2411C68.524 35.3448 68.7327 35.3563 68.8312 35.2584C68.866 35.2238 68.9066 35.2007 68.9182 35.218C68.9297 35.2295 69.0515 35.4428 69.1964 35.6964C69.4861 36.2094 69.6426 36.3478 69.8165 36.2556C69.973 36.1691 70.002 36.0711 69.9382 35.7887C69.8687 35.4774 69.8976 35.4428 70.0483 35.6849C70.2512 36.0077 70.4019 36.1345 70.5873 36.1345C70.8076 36.1345 70.8887 35.9443 70.8365 35.5581C70.8018 35.3102 70.8134 35.2814 70.9235 35.2526C70.9988 35.2353 71.08 35.1431 71.1205 35.0451C71.1553 34.9471 71.2249 34.8664 71.277 34.8664C71.3292 34.8664 71.3987 34.8376 71.4335 34.803C71.4799 34.7569 71.5089 34.826 71.5378 35.0681C71.619 35.708 72.0421 35.8175 72.2565 35.2468C72.3087 35.1143 72.3376 35.097 72.4072 35.1546C72.4536 35.195 72.5521 35.2122 72.6158 35.195C72.7434 35.1604 72.7434 35.1661 72.7028 35.806C72.6564 36.5956 72.5231 37.8292 72.4014 38.5209C72.2681 39.3336 72.3492 39.1607 72.5173 38.2845C73.1143 35.1488 73.4272 31.6442 73.5721 26.3758L73.6069 24.952H73.4041C73.1664 24.952 73.178 24.9808 73.0679 24.0701C73.01 23.6378 72.9578 23.4418 72.8245 23.2113C72.6738 22.9461 72.6506 22.9288 72.5927 23.0268C72.5579 23.0844 72.5289 23.3381 72.5289 23.5859C72.5289 23.9836 72.5231 24.0125 72.4594 23.8684C72.355 23.6147 72.1348 23.5513 72.0305 23.7416C71.9783 23.8338 71.9957 23.9721 72.0826 24.3295C72.1522 24.5889 72.2043 24.9059 72.2043 25.0327C72.2101 25.2691 72.3087 25.4708 72.4246 25.4708C72.4594 25.4708 72.5347 25.4074 72.5985 25.3267L72.7086 25.1884L72.7491 25.5746C72.7665 25.7878 72.7839 26.2547 72.7839 26.6063C72.7839 26.9637 72.8129 27.373 72.8535 27.5113C72.9056 27.7131 72.8998 28.0647 72.8187 29.2579C72.7607 30.0764 72.7086 30.7565 72.6912 30.7681C72.6796 30.7796 72.668 29.9841 72.668 28.9985V27.2001H72.442H72.2217L72.1812 29.2867C72.158 30.4395 72.129 31.5174 72.1058 31.6846L72.0768 31.9901L71.8392 31.9728L71.6016 31.9555L71.4335 32.8893C71.335 33.4081 71.2423 33.8288 71.2191 33.8288C71.1959 33.8288 71.0626 33.3792 70.9293 32.8316L70.6859 31.8344L70.483 31.8575C70.3729 31.8748 70.2686 31.9151 70.257 31.9555C70.2396 31.9901 70.2975 32.4397 70.3787 32.9469C70.4598 33.4542 70.5236 33.898 70.5236 33.9211C70.5178 33.9499 70.4135 33.7712 70.286 33.5233C70.1642 33.2812 70.0309 33.0795 69.9962 33.0795C69.9672 33.0795 69.8629 33.1199 69.7759 33.166L69.6079 33.2467L69.8976 34.0709C70.0541 34.5263 70.1584 34.8664 70.1295 34.8376C70.0947 34.803 69.8339 34.3073 69.5441 33.7309L69.0109 32.6818L68.7964 32.774C68.6805 32.8201 68.5762 32.8662 68.5704 32.872C68.5646 32.8778 68.6516 33.166 68.7617 33.5061C68.8718 33.8519 68.9529 34.1401 68.9413 34.1516C68.9297 34.1689 68.582 33.5349 68.1763 32.7509C67.7706 31.967 67.4171 31.2984 67.3939 31.2753C67.3707 31.2465 67.2896 31.258 67.22 31.2926C67.0983 31.356 67.0925 31.356 67.1273 31.2292C67.8054 28.889 68.269 25.3382 68.2748 22.3582C68.2748 20.8479 68.1125 19.4934 67.7068 17.7065C67.4229 16.4384 66.5013 13.8675 65.7131 12.1556C65.4407 11.5561 65.2784 11.2506 65.3885 11.5503Z" fill="#3D1708"/>
<path d="M43.6887 11.7984C43.6076 11.8502 43.5381 11.9136 43.5265 11.9367C43.4627 12.0808 42.8773 12.6976 42.5006 13.0204C42.2224 13.2625 42.0428 13.4642 42.0022 13.5853C41.921 13.8216 41.95 13.8504 42.205 13.8043C42.4601 13.7582 43.3004 13.0261 43.7003 12.5074C43.938 12.2018 43.9843 12.1096 43.9669 11.9367C43.9438 11.6946 43.8858 11.6658 43.6887 11.7984Z" fill="#3D1708"/>
<path d="M64.0377 12.0175C64.0377 12.0809 64.0549 12.0982 64.0721 12.0521C64.0892 12.0117 64.0835 11.9598 64.0663 11.9426C64.0492 11.9195 64.032 11.9541 64.0377 12.0175Z" fill="#3D1708"/>
<path d="M42.5231 12.0809C42.2971 12.1155 40.9873 13.4527 40.9351 13.7064L40.8945 13.9023L41.1148 13.862C41.3002 13.8274 41.4683 13.6948 42.0363 13.1472C42.4188 12.7783 42.7492 12.421 42.7666 12.3575C42.8303 12.1673 42.8245 12.0405 42.7492 12.0463C42.7086 12.052 42.6043 12.0693 42.5231 12.0809Z" fill="#3D1708"/>
<path d="M64.1011 12.3287C64.1011 12.4094 64.1128 12.4383 64.1303 12.3979C64.142 12.3633 64.142 12.2942 64.1303 12.2538C64.1128 12.2192 64.1011 12.248 64.1011 12.3287Z" fill="#3D1708"/>
<path d="M64.1592 12.6458C64.1592 12.738 64.1709 12.7726 64.1884 12.715C64.2001 12.6631 64.2001 12.5824 64.1884 12.5421C64.1709 12.5075 64.1592 12.5478 64.1592 12.6458Z" fill="#3D1708"/>
<path d="M64.2232 13.0492C64.4898 14.9687 64.5593 15.5624 64.6404 16.3925C64.768 17.7643 64.8143 20.0527 64.7332 21.1652C64.5941 23.0674 64.3738 24.2836 63.6262 27.2579C63.0292 29.6443 62.9829 30.0823 63.3422 30.0823C63.5798 30.0823 63.916 29.3042 64.5593 27.2464C64.7911 26.497 64.994 25.8918 65.0056 25.8976C65.0114 25.9091 64.9013 26.4855 64.7564 27.1772C64.2869 29.3906 63.5219 31.3735 62.2874 33.5466C62.1309 33.8233 62.0034 34.0596 62.0034 34.0712C62.0034 34.0884 62.1946 34.0366 62.4265 33.9559C62.9307 33.7772 63.3712 33.3795 63.7131 32.78C63.8406 32.5667 63.945 32.3995 63.9566 32.4111C63.9855 32.4341 63.5508 33.4025 63.2031 34.0942C63.0292 34.4401 62.6989 34.9992 62.4728 35.345C62.2468 35.6851 62.0613 35.9791 62.0613 35.9964C62.0613 36.0367 62.9307 35.5583 63.2379 35.345L63.5161 35.1491L63.2842 35.4949C62.8959 36.0598 62.3569 36.7054 61.7484 37.3337C61.4296 37.6565 61.163 37.9159 61.1514 37.9043C61.1398 37.8928 61.2499 37.5988 61.3948 37.2587C61.5339 36.9129 61.644 36.6247 61.6383 36.6189C61.6325 36.6132 61.3659 36.9187 61.0471 37.2991C60.7283 37.6795 60.2589 38.1868 60.0039 38.4289C59.4996 38.9073 58.9316 39.3915 58.9316 39.3396C58.9316 39.2993 59.9401 38.0773 60.5718 37.3567L61.0935 36.763L60.9138 36.5786L60.7341 36.3999L59.5286 37.5815C58.2883 38.7978 56.8568 40.1293 56.2018 40.6884L55.8309 41.0054L56.0338 40.7461C56.1439 40.602 56.4858 40.1869 56.7988 39.818L57.361 39.1494L57.1929 39.0226C57.1002 38.9592 57.0017 38.9015 56.9727 38.9015C56.9495 38.9015 56.822 39.0053 56.7003 39.1379C55.8599 40.0025 53.6343 41.8355 52.933 42.2447C52.6201 42.4234 52.7302 42.3254 53.217 41.9854C54.3588 41.1899 56.2076 39.4318 57.5638 37.8467L57.8478 37.5124L57.6856 37.3452L57.5233 37.178L56.8162 37.8524C55.9294 38.7055 54.637 39.7027 53.6285 40.3195C53.3677 40.4751 53.4547 40.4002 54.0342 39.9679C56.1555 38.377 58.2651 36.2039 60.1835 33.6273C60.9022 32.6647 61.957 31.0911 61.9686 30.97C61.9686 30.9239 61.8933 30.8375 61.7947 30.774L61.6093 30.6588L61.0413 31.4485C59.0186 34.2498 56.4974 36.9878 54.4341 38.6191C53.3967 39.4434 52.8867 39.7719 51.0204 40.8325C48.9919 41.9796 46.7838 43.6397 45.8217 44.7406C45.5145 45.098 45.5551 45.0634 46.1288 44.5158C47.5836 43.1094 48.9803 42.164 52.2028 40.4002C53.0142 39.9564 53.5242 39.6393 54.2255 39.1206C54.5153 38.9073 54.7587 38.7401 54.7587 38.7574C54.7587 38.7978 53.304 39.9045 52.8229 40.2215C52.5737 40.3887 51.8434 40.8268 51.2001 41.1899C49.6179 42.0891 49.1426 42.4004 49.0963 42.5791C49.0093 42.9249 49.2875 43.0114 49.8671 42.8212C50.6263 42.5675 52.7302 41.4666 54.0922 40.602C54.3182 40.4636 54.2023 40.5789 53.6807 41.017C52.933 41.6453 52.2955 42.0488 51.6058 42.3254C51.4088 42.4061 51.3856 42.435 51.4204 42.5733C51.4435 42.6655 51.5421 42.8096 51.6406 42.9019C51.8087 43.0517 51.8492 43.0633 52.1564 43.0344C52.3419 43.0171 52.6375 42.9422 52.8113 42.8615C53.217 42.6771 54.0168 42.1352 54.579 41.6626C54.8225 41.4551 54.9905 41.3455 54.9673 41.4089C54.863 41.6568 54.863 41.7894 54.9616 41.8989C55.0195 41.9623 55.1007 42.0142 55.147 42.0142C55.3788 42.0142 55.9874 41.5646 56.9843 40.6596C57.9116 39.8238 58.0333 39.7258 57.9522 39.8699C57.9116 39.9448 57.8884 40.0832 57.9 40.1869C57.9174 40.3483 57.9406 40.3714 58.1144 40.3887C58.2593 40.406 58.381 40.3599 58.6129 40.2042C59.0418 39.9218 60.0154 39.1379 60.311 38.8266C60.5487 38.5845 60.5776 38.573 60.7341 38.6306C60.9833 38.7286 61.2383 38.5672 61.8817 37.9216C64.7448 35.0395 66.4024 31.3562 67.1326 26.2838C67.2254 25.6439 67.2254 25.6209 67.1152 25.4768C66.9935 25.3096 66.7385 25.252 66.6052 25.3615C66.4951 25.4537 66.4951 25.4307 66.6979 24.3182C66.9356 23.0155 67.0283 22.0644 66.9414 21.8742C66.8602 21.6955 66.6458 21.6724 66.5067 21.8281C66.4139 21.9318 66.1242 22.8483 66.1126 23.0731C66.1126 23.1365 66.0952 23.1653 66.0836 23.125C66.0662 23.0846 66.0952 22.8426 66.1415 22.5832C66.1937 22.318 66.2227 22.099 66.2169 22.0932C66.2053 22.0817 66.0952 22.0586 65.9677 22.0413L65.7358 22.001L65.0056 24.2432C64.5999 25.471 64.2347 26.5893 64.2 26.7276C64.0493 27.2521 64.0956 26.8832 64.2985 25.984C64.8027 23.6726 64.9708 22.2085 64.9708 20.0815C64.9708 18.041 64.8549 16.6749 64.4608 14.1732C64.3449 13.4585 64.2405 12.8648 64.2232 12.8475C64.2058 12.8302 64.2058 12.9224 64.2232 13.0492ZM66.043 23.3498C66.0256 23.3959 66.0082 23.3786 66.0082 23.3152C66.0025 23.2518 66.0198 23.2172 66.0372 23.2403C66.0546 23.2576 66.0604 23.3095 66.043 23.3498ZM66.5241 27.0619C66.2633 28.5606 65.8923 30.042 65.5156 31.0623C65.2896 31.6675 65.2432 31.7021 65.4287 31.1199C65.5967 30.5838 65.9677 29.1024 66.2343 27.892C66.4893 26.7218 66.582 26.3702 66.611 26.4048C66.6226 26.4163 66.582 26.7103 66.5241 27.0619Z" fill="#3D1708"/>
<path d="M67.7411 12.8935C67.7411 12.9166 67.7643 12.9627 67.7875 12.9915C67.8165 13.0261 67.9092 13.1702 67.9904 13.32L68.1468 13.591L67.9904 13.5103C67.8049 13.4123 67.6484 13.4757 67.5499 13.7005C67.5151 13.7869 67.4803 13.8676 67.4745 13.8792C67.4629 13.8849 67.3992 13.8561 67.3238 13.8042C67.0514 13.614 66.7559 13.7466 66.7559 14.0636C66.7559 14.1559 66.8254 14.421 66.9065 14.6516C66.9877 14.8764 67.1094 15.2453 67.1732 15.4701C67.3586 16.1157 67.3992 16.156 67.3644 15.643C67.347 15.3894 67.3007 15.0205 67.2659 14.8187C67.2369 14.617 67.2195 14.4441 67.2369 14.4268C67.2891 14.3749 67.631 15.1415 67.7006 15.4701C67.7701 15.7986 67.7817 15.8102 68.0831 15.7525C68.2164 15.7237 68.257 15.6891 68.2396 15.62C68.17 15.4067 68.0251 14.4498 68.0541 14.4152C68.1063 14.3691 69.1437 16.5365 69.3929 17.1993C69.5146 17.5164 69.6653 18.0006 69.7349 18.2715L69.8566 18.7729L70.0594 18.7384C70.1696 18.7268 70.2739 18.698 70.2913 18.6865C70.3782 18.6116 69.9087 16.5076 69.5842 15.5162C69.3755 14.8879 69.3871 14.7784 69.6016 15.2972C69.6711 15.4701 69.7523 15.6142 69.7812 15.6142C69.8856 15.6142 70.0594 15.3721 70.0594 15.2222C70.0594 14.9513 69.7117 14.3115 69.306 13.8273L69.1843 13.6832L69.2538 13.8273L69.3234 13.9714L69.1263 13.81C68.7786 13.5333 67.7411 12.8416 67.7411 12.8935Z" fill="#3D1708"/>
<path d="M45.4682 13.6083C45.1263 14.0636 45.022 14.2481 45.022 14.3864C45.022 14.5594 45.0394 14.5767 45.1901 14.5767C45.3291 14.5767 45.4161 14.4902 45.8276 13.9599C46.3724 13.2451 46.4361 13.0203 46.1058 13.0203C45.9261 13.0203 45.874 13.0664 45.4682 13.6083Z" fill="#3D1708"/>
<path d="M65.1912 13.6833C65.2491 14.035 65.394 14.5998 65.5099 14.9515C66.0026 16.4444 66.5126 18.3754 66.843 20.0066C67.0516 21.0327 67.382 22.0644 67.4631 21.9376C67.4863 21.8973 67.5095 21.6321 67.5095 21.3382C67.5095 20.7214 67.2718 19.5052 66.785 17.603C66.1301 15.0437 65.6722 13.7698 65.2028 13.1934C65.0926 13.0551 65.0926 13.0608 65.1912 13.6833Z" fill="#3D1708"/>
<path d="M73.9654 14.3347C73.7857 14.3635 73.7046 14.5768 73.8031 14.7555C73.8437 14.8304 73.8785 14.9342 73.8843 14.9861C73.8843 15.1532 74.1393 15.2051 74.3131 15.0783C74.4059 15.0091 74.4059 14.9861 74.29 14.6748C74.1567 14.3174 74.1393 14.3001 73.9654 14.3347Z" fill="#3D1708"/>
<path d="M43.0799 15.4414C43.0161 15.4644 42.9002 15.5566 42.8191 15.6431C42.7379 15.7296 42.5119 15.9255 42.3148 16.0869C42.0193 16.3233 41.9497 16.404 41.9497 16.5423C41.9497 16.6922 41.9671 16.7095 42.1352 16.7095C42.338 16.7095 42.5583 16.5596 43.0683 16.0812C43.387 15.7814 43.4392 15.6719 43.3639 15.4759C43.3233 15.3722 43.2537 15.3664 43.0799 15.4414Z" fill="#3D1708"/>
<path d="M73.7047 16.4384C73.6583 16.5422 73.6583 16.6575 73.7047 16.8765C73.7395 17.0436 73.7684 17.2857 73.7684 17.4241C73.7684 17.5912 73.8032 17.7008 73.8728 17.7642C74.0119 17.891 74.0756 17.8852 74.1915 17.7584C74.2727 17.6662 74.2785 17.5855 74.2321 17.1532C74.1684 16.6286 74.093 16.3635 74.0061 16.3635C73.9771 16.3635 73.9133 16.3462 73.8612 16.3289C73.8032 16.3058 73.7511 16.3404 73.7047 16.4384Z" fill="#3D1708"/>
<path d="M68.315 17.0781C68.2628 17.1818 68.2686 17.2798 68.344 17.4931C68.3961 17.6487 68.4541 17.9023 68.4715 18.0637C68.5352 18.5595 68.7149 18.7324 68.9293 18.496C69.0163 18.3981 69.0221 18.3462 68.9641 17.9946C68.8366 17.2452 68.6859 16.9397 68.4367 16.9397C68.4019 16.9397 68.3498 17.0031 68.315 17.0781Z" fill="#3D1708"/>
<path d="M65.6195 17.2109C65.5905 17.355 65.6311 17.6259 65.7354 18.0813C65.8223 18.4502 65.9208 19.0439 65.9556 19.4128C65.9846 19.7817 66.0541 20.1794 66.1063 20.3005L66.199 20.5195L66.3323 20.3005C66.4946 20.0353 66.5062 19.5915 66.3787 18.7845C66.228 17.8795 66.0657 17.3319 65.8977 17.1533C65.8165 17.0668 65.7296 16.9976 65.7064 16.9976C65.6774 16.9976 65.6426 17.0899 65.6195 17.2109Z" fill="#3D1708"/>
<path d="M42.559 17.6605C42.4663 17.7355 42.2229 17.8853 42.0258 17.9833C41.8229 18.0871 41.6607 18.1851 41.6607 18.2024C41.6607 18.2197 41.6433 18.2946 41.6259 18.358C41.5969 18.456 41.6259 18.4963 41.765 18.5425C41.9157 18.5943 41.9852 18.5713 42.304 18.3984C42.8894 18.0756 43.1096 17.8796 43.1096 17.6836C43.1096 17.5337 43.0922 17.5164 42.9241 17.5164C42.8082 17.5222 42.6633 17.5798 42.559 17.6605Z" fill="#3D1708"/>
<path d="M70.5984 17.9196C70.6158 18.1733 70.7201 18.5652 70.9171 19.1301C71.0736 19.5912 71.2765 20.2772 71.3576 20.6576C71.5025 21.2974 71.717 21.8393 71.8387 21.8796C71.8676 21.8911 71.9256 21.7701 71.9604 21.6202C72.0183 21.3724 72.0067 21.2513 71.8734 20.6807C71.7923 20.3175 71.5837 19.5855 71.4098 19.0494C71.12 18.156 71.0678 18.0522 70.836 17.8101L70.5752 17.545L70.5984 17.9196Z" fill="#3D1708"/>
<path d="M76.1734 18.0235C76.156 18.1272 76.1966 18.3751 76.2835 18.6748C76.3589 18.9457 76.44 19.2916 76.4632 19.4472C76.5327 19.9026 76.7414 20.064 76.9153 19.7988C77.0022 19.672 76.9964 19.6144 76.8979 19.136C76.7588 18.4616 76.6139 18.0235 76.498 17.937C76.3415 17.816 76.214 17.8506 76.1734 18.0235Z" fill="#3D1708"/>
<path d="M70.2862 20.5371C70.234 20.6524 70.2398 20.7273 70.3151 20.9175C70.3673 21.0443 70.4079 21.2288 70.4079 21.321C70.4079 21.5401 70.6339 21.6726 70.7904 21.5458C70.9179 21.4421 70.8715 20.8829 70.715 20.6178C70.576 20.3757 70.3731 20.3353 70.2862 20.5371Z" fill="#3D1708"/>
<path d="M71.0505 22.6868C70.9983 22.8597 71.0215 23.096 71.1606 23.8857C71.2534 24.4218 71.3577 25.0846 71.3925 25.3498C71.4504 25.7706 71.6243 26.2778 71.7112 26.2778C71.7286 26.2778 71.7808 26.1798 71.8329 26.0588C71.9489 25.7936 71.9257 25.4997 71.6765 24.001C71.5374 23.1479 71.4678 22.8597 71.3577 22.6868C71.2823 22.5715 71.1896 22.4735 71.1606 22.4735C71.1316 22.4735 71.0795 22.5715 71.0505 22.6868Z" fill="#3D1708"/>
<path d="M75.0675 22.6522C75.0269 22.7445 75.0385 22.8597 75.1138 23.073C75.166 23.2344 75.2124 23.4362 75.2181 23.5284C75.2181 23.7244 75.4268 23.8454 75.6065 23.7532C75.7108 23.6955 75.7166 23.6552 75.6702 23.3266C75.6065 22.8424 75.4616 22.5658 75.2703 22.5427C75.166 22.5312 75.108 22.56 75.0675 22.6522Z" fill="#3D1708"/>
<path d="M75.9772 22.6409C75.9193 22.6813 75.9077 22.7677 75.9367 23.0156C75.9772 23.3153 75.9888 23.3384 76.1337 23.3384C76.4003 23.3384 76.4583 23.2634 76.4177 22.9637C76.3945 22.8138 76.3655 22.6697 76.3424 22.6409C76.3018 22.5775 76.0816 22.5775 75.9772 22.6409Z" fill="#3D1708"/>
<path d="M70.4134 22.9692C70.3265 23.2747 70.3323 23.3842 70.4656 24.5486C70.5293 25.1019 70.5989 25.8743 70.6221 26.272C70.6568 26.9983 70.738 27.3961 70.8423 27.4364C70.8771 27.4479 70.9466 27.3672 71.0046 27.2577C71.0973 27.079 71.1089 26.9522 71.0799 26.1625C71.0394 24.9348 70.8481 23.3957 70.6974 23.119C70.4946 22.7271 70.483 22.7213 70.4134 22.9692Z" fill="#3D1708"/>
<path d="M75.4551 24.9693C75.403 25.1998 75.403 25.5399 75.4551 26.37C75.5015 27.1712 75.5015 27.713 75.4551 28.4162C75.403 29.1137 75.403 29.448 75.4551 29.6671C75.4899 29.8342 75.5247 29.9668 75.5421 29.9668C75.5537 29.9668 75.629 29.8342 75.7159 29.6671C75.8956 29.3097 75.9652 28.6929 75.9652 27.4306C75.971 25.8396 75.8319 24.854 75.5826 24.7041C75.5479 24.681 75.4957 24.8021 75.4551 24.9693Z" fill="#3D1708"/>
<path d="M55.1816 26.1856C53.3733 26.5314 52.1388 27.5401 51.681 29.0388C51.5766 29.3904 51.5593 29.5461 51.5882 29.9611C51.6056 30.232 51.6578 30.5721 51.7041 30.7162L51.7795 30.9756L51.8259 30.6297C51.9012 30.0706 52.191 29.01 52.3822 28.6123C52.9502 27.4249 54.5325 26.5718 56.0278 26.6352C57.0942 26.6813 57.639 27.1078 58.2591 28.3644C58.4678 28.7852 58.6822 29.2752 58.7402 29.4481L58.8445 29.7651L58.8619 29.4481C58.943 28.0532 58.1316 26.7332 56.9261 26.2951C56.4509 26.1279 55.738 26.0818 55.1816 26.1856Z" fill="#3D1708"/>
<path d="M68.2392 28.3989C68.1465 28.6007 68.1465 28.6641 68.2334 29.3904C68.4073 30.8372 68.616 31.4482 68.9579 31.5404C69.0622 31.5692 69.0738 31.5404 69.0738 31.3329C69.0738 31.2003 69.0333 30.964 68.9869 30.8083C68.8768 30.4394 68.7377 29.6497 68.6913 29.0733C68.6565 28.6525 68.4885 28.1799 68.3783 28.1799C68.3552 28.1799 68.2914 28.2779 68.2392 28.3989Z" fill="#3D1708"/>
<path d="M71.5433 28.3416C71.4738 28.4799 71.468 28.6356 71.5143 29.2812C71.5433 29.7077 71.5549 30.1631 71.5375 30.2957C71.5143 30.4628 71.5317 30.5954 71.5955 30.7107C71.7056 30.9297 71.7578 30.9355 71.92 30.728C72.0418 30.5781 72.0418 30.5435 72.007 29.5463C71.978 28.6298 71.9606 28.4972 71.8505 28.3474C71.7056 28.1399 71.6476 28.1399 71.5433 28.3416Z" fill="#3D1708"/>
<path d="M70.0133 28.6642C69.967 28.768 69.9728 28.9351 70.0365 29.3156C70.0771 29.5923 70.1177 29.9727 70.1177 30.1571C70.1177 30.4396 70.1698 30.6586 70.2683 30.7681C70.2799 30.7854 70.3553 30.7336 70.4364 30.6586C70.5697 30.5318 70.5813 30.4857 70.5755 30.0303C70.5755 29.3617 70.4538 28.7161 70.3147 28.6123C70.1582 28.4913 70.0887 28.5086 70.0133 28.6642Z" fill="#3D1708"/>
<path d="M70.9053 29.1372C70.8184 29.264 70.8184 29.3274 70.8995 29.875C70.9459 30.2036 70.9864 30.5782 70.9864 30.705C70.9864 30.9702 71.085 31.2354 71.1893 31.2354C71.2299 31.2354 71.2994 31.1892 71.3516 31.1316C71.5023 30.9702 71.4791 30.1863 71.2994 29.3216C71.282 29.2409 71.2067 29.1314 71.1313 29.0795C71.0038 28.9989 70.9922 28.9989 70.9053 29.1372Z" fill="#3D1708"/>
<path d="M52.238 30.8777C51.4729 31.0737 50.818 31.4887 50.4065 32.0363C49.9139 32.6992 49.6589 33.3793 49.6646 33.9961C49.6646 34.44 49.74 34.878 49.7922 34.7512C49.8095 34.7051 49.9313 34.3247 50.0703 33.9154C50.2037 33.5004 50.4065 32.9931 50.5166 32.7741C50.7542 32.313 51.3048 31.7769 51.7569 31.5636C52.2438 31.3331 52.9508 31.212 53.6 31.2524C54.5968 31.3042 55.3503 31.6501 56.6891 32.6588L57.031 32.9182L56.8398 32.5608C56.7355 32.3706 56.55 32.0939 56.4283 31.9556C56.1269 31.6155 55.443 31.2005 54.8287 30.9872C54.3708 30.8258 54.2491 30.8085 53.484 30.7912C52.8233 30.7797 52.5567 30.797 52.238 30.8777Z" fill="#3D1708"/>
<path d="M60.8447 33.9212C60.7346 33.9673 60.5781 34.0999 60.497 34.2152C60.4158 34.3362 60.1028 34.6936 59.7899 35.0106C59.3668 35.4545 59.2219 35.6389 59.1929 35.8003L59.1523 36.0078L59.4074 35.9617C59.616 35.9214 59.7145 35.8522 60.0275 35.5179C60.2304 35.3046 60.5491 34.9357 60.7404 34.7051C61.0244 34.3535 61.0765 34.244 61.0765 34.0538C61.0765 33.9327 61.0707 33.829 61.0649 33.8347C61.0534 33.8347 60.9548 33.8751 60.8447 33.9212Z" fill="#3D1708"/>
<path d="M30.4455 35.42C30.2716 35.5064 30.26 35.541 29.779 37.4086C29.5124 38.4577 29.2747 39.3223 29.2574 39.3338C29.24 39.3454 29.0893 39.2531 28.927 39.1263C28.7589 39.0053 28.6024 38.9015 28.5735 38.9015C28.446 38.9015 26.9912 40.5501 25.693 42.1583C25.2815 42.6655 24.9279 43.1036 24.9048 43.1324C24.8816 43.1612 24.841 43.0805 24.8236 42.9595C24.8004 42.8327 24.6497 42.4638 24.4875 42.1295C24.2382 41.6165 24.1165 41.4551 23.7224 41.0631C22.9574 40.2965 22.3141 40.0544 21.0622 40.0544C18.089 40.0544 14.6231 41.847 10.3632 45.5822C9.38374 46.4468 9.04179 46.7811 8.32312 47.6169C3.91255 52.7182 1.23492 57.6062 0.342374 62.1888C0.046791 63.7047 -0.0749197 65.4743 0.046791 66.5407C0.151114 67.4745 0.458289 68.6389 0.753872 69.2153C1.78552 71.25 3.56481 72.5354 5.84254 72.8813C6.97271 73.0542 8.67666 72.962 10.085 72.6507C15.3592 71.4748 21.1955 68.5755 27.623 63.9238L28.388 63.3704V63.111C28.388 62.9496 28.3416 62.7767 28.2663 62.6557C28.1562 62.4712 28.1388 62.4654 27.8896 62.5C27.4723 62.5519 26.8753 62.892 25.89 63.6356C25.4264 63.9872 23.8731 64.9613 22.4474 65.7914C18.1933 68.2757 14.5072 69.9992 11.7136 70.8062C9.99229 71.3077 9.22726 71.4114 7.34943 71.4114C6.14392 71.4114 5.90629 71.3941 5.31513 71.2731C3.32718 70.8696 1.98257 69.3824 1.58846 67.1459C1.2639 65.3187 1.57107 62.5807 2.37668 60.0618C2.86932 58.517 3.97051 56.1306 4.92101 54.5512C6.39893 52.0842 8.64768 49.1387 10.2009 47.6342C13.1452 44.7637 16.0836 42.7578 18.4947 41.9681C19.619 41.5992 20.0479 41.5242 21.1433 41.5242C21.9953 41.5242 22.1286 41.5358 22.3662 41.6453C23.0907 41.9796 23.5138 42.8327 23.6123 44.1642L23.6529 44.7118L23.1313 45.4496C22.3778 46.5275 21.8736 47.346 21.5142 48.0838C21.1665 48.7986 21.0448 49.2482 21.1085 49.5941C21.1723 49.9168 21.607 50.3319 22.0243 50.4644L22.343 50.5624L22.8125 50.2858C23.2008 50.0667 23.3399 49.9457 23.5428 49.6632C23.9253 49.1214 24.3715 48.3202 24.5686 47.8072C24.8352 47.127 25.0844 46.0952 25.0844 45.6744C25.0844 45.317 25.0902 45.3113 25.5481 44.6599C26.3073 43.5763 29.0255 40.1466 29.0255 40.2734C29.0255 40.3022 28.7647 41.4032 28.446 42.7116C27.6403 45.9972 26.6203 50.3203 25.7567 54.0613C24.3947 60.0041 24.3194 60.3442 24.3542 60.5402C24.4411 60.984 25.0149 61.1743 25.3452 60.863C25.4264 60.7823 25.7451 60.2289 26.0465 59.6295C27.0376 57.6639 27.6867 56.7243 28.8227 55.6176C29.3211 55.1277 29.3791 55.0873 29.3501 55.2429C29.0893 56.5572 29.0255 57.1278 29.0835 57.4737C29.2284 58.2691 29.6573 58.6899 30.3991 58.7648C31.0772 58.834 31.8307 58.5516 32.5957 57.9463L32.9898 57.6293L33.0536 57.9117C33.2101 58.5919 33.6679 59.1338 34.2881 59.3643C35.1516 59.6871 35.9862 59.2375 36.8382 57.9867L37.1686 57.5083L37.8003 57.2546C38.148 57.1163 38.4378 57.0068 38.4494 57.0183C38.4552 57.0241 38.432 57.2835 38.3973 57.6005C38.3393 58.0847 38.3451 58.1769 38.4204 58.2345C38.4668 58.2691 38.5364 58.4017 38.5769 58.5285C38.8088 59.3297 39.5622 59.8773 40.8315 60.1771C41.2198 60.2693 41.3647 60.2808 41.469 60.2347C41.5443 60.2001 41.724 60.1713 41.8631 60.1713C42.5528 60.1713 44.2278 59.2663 45.2768 58.3325L45.7347 57.9233L45.8622 58.2403C46.0998 58.811 46.349 59.0646 46.9692 59.347C47.8038 59.7217 48.7195 59.2375 49.5599 57.9694C49.7917 57.6178 49.9308 57.4679 50.0409 57.4391C50.1221 57.416 50.5162 57.2604 50.9103 57.0932L51.6289 56.7877L51.6637 56.9376C51.8318 57.6869 51.9883 58.0386 52.307 58.3325C52.6606 58.6669 52.875 58.7533 53.3735 58.7533C53.7792 58.7591 53.8545 58.736 54.3008 58.517C54.5674 58.3844 54.7992 58.2864 54.8108 58.3037C54.8398 58.3325 54.6833 59.1338 54.324 60.7477L54.0284 62.1023L53.501 62.9727C50.5857 67.7915 48.7485 71.6362 48.2616 73.9477C48.082 74.818 48.082 75.6596 48.2616 76.0689C48.4123 76.3974 48.6963 76.6799 49.0093 76.8124C49.1658 76.8759 49.2643 76.8816 49.5135 76.8297C50.9161 76.5415 52.2027 74.2013 53.5589 69.4804C53.9588 68.1028 54.9325 64.1716 54.9325 63.9526C54.9325 63.7163 55.315 62.7133 55.6744 62.0158C56.3931 60.6151 57.9289 57.929 58.0159 57.9233C58.039 57.9233 58.0738 57.9752 58.0912 58.0443C58.1608 58.2518 58.5317 58.615 58.8389 58.7706C59.1171 58.9089 59.146 58.9147 59.5228 58.8455C59.743 58.811 60.0791 58.6957 60.2762 58.5977C60.7399 58.3671 61.4296 57.7158 61.8005 57.1509L62.0903 56.707L62.1598 57.1451C62.2815 57.9636 62.6525 58.4651 63.2436 58.6207C64.2927 58.9032 65.6315 57.808 66.8254 55.7041C66.9703 55.4504 67.0978 55.1968 67.1094 55.1449C67.1442 54.9951 67.8918 54.4244 68.3497 54.2054C68.7496 54.0094 69.4799 53.8019 69.4799 53.8826C69.4799 53.9748 68.7844 54.7703 68.1584 55.3755L67.4977 56.0326L67.5209 56.3208C67.5557 56.6725 67.7295 56.8627 68.0599 56.9203C68.2917 56.9549 68.3091 56.9434 68.8713 56.4592C69.5146 55.9058 69.6479 55.8597 69.9029 56.1249C70.1116 56.3381 70.1406 56.5975 70.0652 57.5486C69.9029 59.5372 69.4393 61.0993 68.5409 62.6499C67.9614 63.6471 67.2137 65.0708 66.1241 67.2612C64.2521 71.0079 63.2552 73.4058 62.751 75.3656C62.5771 76.0228 62.5539 76.1957 62.5539 76.8586C62.5539 77.5214 62.5713 77.6425 62.6872 77.8961C63.1393 78.8703 63.9797 78.8703 64.8838 77.9019C66.298 76.3917 67.8802 72.253 69.8913 64.7826C70.1464 63.8143 70.413 62.8401 70.4709 62.6211C70.5289 62.3963 70.581 62.1599 70.581 62.085C70.581 61.7449 71.6243 59.3816 73.079 56.4304C73.6876 55.1911 73.8267 54.8625 73.8267 54.6608V54.4071H73.3978C72.9747 54.4071 72.9689 54.4071 72.766 54.6319C72.5458 54.874 72.227 55.3986 71.7634 56.2805C71.5084 56.7647 71.4562 56.8281 71.4272 56.7128C71.4098 56.6321 71.3693 56.4361 71.3403 56.2747C71.2302 55.7156 71.0389 55.3236 70.7491 55.0297L70.4709 54.753L70.6738 54.4244C70.8534 54.1247 71.0447 53.629 71.0447 53.456C71.0447 53.3119 70.6216 52.7355 70.4304 52.6145C70.2391 52.4992 70.1695 52.4934 69.6363 52.5223C68.9582 52.5626 68.3613 52.7125 67.8107 52.9891C66.9877 53.3984 66.1937 54.142 65.8865 54.7818C65.6315 55.3179 64.9302 56.3266 64.5361 56.7359C64.339 56.9376 64.0608 57.1566 63.9217 57.2258C63.6899 57.3469 63.6609 57.3469 63.574 57.2662C63.4523 57.1394 63.4175 56.1479 63.5102 55.387C63.545 55.0873 63.5914 54.7242 63.603 54.5801C63.6203 54.436 63.6725 54.1362 63.7131 53.9057C63.8464 53.214 63.6899 52.9142 63.1683 52.8623L62.8901 52.8393L62.5655 53.4388C61.7193 55.0066 60.763 56.4361 60.1255 57.0702C59.743 57.4564 59.5459 57.5659 59.3605 57.4967C59.2793 57.4679 59.2735 57.4045 59.3083 57.1278C59.3605 56.6782 59.5401 55.8828 59.743 55.168C59.8415 54.8337 59.9169 54.4417 59.9169 54.263V53.946H59.488C59.0649 53.946 59.0475 53.9518 58.9084 54.1305C58.8331 54.2342 58.6766 54.4763 58.5665 54.6723C58.2709 55.1968 56.1902 58.4421 56.167 58.419C56.1554 58.4075 56.2134 58.0904 56.3003 57.7158C56.3815 57.3353 56.4974 56.8108 56.5553 56.5399C56.6133 56.269 56.6828 55.9404 56.7176 55.8136C56.764 55.6003 56.7582 55.5542 56.6423 55.4101L56.5148 55.2487L56.6423 54.9893C56.764 54.7587 56.7698 54.7126 56.7002 54.5224C56.4858 53.9114 56.0627 53.3753 55.657 53.1909C55.1991 52.9834 54.3066 53.0814 53.6922 53.4157C53.3039 53.6232 52.8055 54.0901 52.5563 54.4821C52.394 54.7415 52.2607 54.851 51.8608 55.0873C51.3102 55.4159 50.6842 55.7098 50.4756 55.7387C50.3539 55.7617 50.3307 55.7271 50.238 55.4043C50.0583 54.7587 49.67 54.2457 49.1658 53.9863C48.9049 53.8538 48.279 53.7558 47.9776 53.8019C47.3575 53.8941 47.0677 54.1074 46.1751 55.1565C44.5118 57.1163 43.1556 58.2864 42.1761 58.615C41.8631 58.7245 41.7124 58.736 41.1966 58.7187C40.5475 58.6899 40.4084 58.6438 40.1128 58.3671C39.8694 58.1423 39.8578 57.8656 40.0722 57.2431C40.4374 56.1594 40.9995 55.2775 41.5617 54.8856C41.8457 54.6953 42.2688 54.5339 42.3326 54.5916C42.3615 54.6262 41.979 55.2948 41.6487 55.7732C41.5617 55.9058 41.4864 56.0269 41.4864 56.0442C41.4864 56.0615 41.695 56.2286 41.9443 56.4188L42.4021 56.7647L42.7904 56.3554C43.5091 55.6003 43.9902 54.7242 43.9902 54.1708C43.9959 53.4272 43.6308 53.0987 42.6339 52.9373C42.4427 52.9085 42.4137 52.92 42.4137 53.0122C42.4137 53.1505 42.3094 53.1967 42.0138 53.1967C41.7646 53.1967 41.2488 53.5252 40.4605 54.1823C39.9737 54.5916 39.1507 55.1334 38.5885 55.4159C38.2871 55.5657 37.6554 55.8078 37.6322 55.779C37.6264 55.7675 37.5743 55.583 37.5163 55.3698C37.3308 54.6492 36.8208 54.0901 36.1833 53.8826C36.0558 53.8422 35.7544 53.8077 35.5168 53.8077C34.7691 53.8077 34.3286 54.1016 33.4825 55.1565C32.3813 56.5399 31.3438 57.3642 30.6483 57.416L30.4455 57.4333L30.4281 56.9664C30.4165 56.5975 30.4571 56.2863 30.6194 55.5254C30.7469 54.949 30.8164 54.4878 30.799 54.3841C30.7411 54.0843 30.5498 53.8422 30.231 53.6578C29.9702 53.5079 29.8833 53.4849 29.6747 53.5137C29.3211 53.5656 28.9966 53.7154 28.5908 54.0209C28.1967 54.3149 27.3853 55.1334 26.997 55.6291C26.8579 55.8136 26.7304 55.9519 26.7188 55.9346C26.7072 55.9231 27.4433 52.6664 28.359 48.6891C29.5993 43.2765 30.1267 41.1034 30.4455 40.0255C31.3091 37.1262 31.5583 35.9906 31.4076 35.6275C31.2859 35.3335 30.8164 35.2355 30.4455 35.42ZM55.3556 54.8106L55.628 55.2084L55.4483 55.5139C54.7818 56.6436 53.9646 57.4045 53.414 57.4045C53.1358 57.4045 53.0199 57.2489 53.0199 56.8569C53.0199 56.4361 53.1706 55.9923 53.3909 55.7444C53.6806 55.4159 53.7734 55.2602 53.7734 55.0873C53.7734 54.7991 54.4051 54.436 54.9383 54.4129C55.0658 54.4071 55.1354 54.4763 55.3556 54.8106ZM35.8703 55.3294C36.0036 55.4043 36.1891 55.7329 36.0905 55.7329C36.0094 55.7329 35.6906 55.4159 35.6906 55.3352C35.6906 55.2545 35.7254 55.2545 35.8703 55.3294ZM48.563 55.3294C48.6673 55.387 48.8876 55.7329 48.818 55.7329C48.7137 55.7329 48.5456 55.5946 48.4703 55.4447C48.3717 55.2602 48.3891 55.2372 48.563 55.3294ZM35.0415 56.6494C35.2212 56.7704 35.4588 56.9145 35.5631 56.978C35.6617 57.0356 35.7486 57.1048 35.7486 57.1336C35.7486 57.2489 35.5631 57.514 35.3487 57.71C35.1516 57.8887 35.0705 57.9233 34.8503 57.9233C34.6068 57.9233 34.5952 57.9175 34.5373 57.7042C34.5025 57.589 34.4735 57.3872 34.4735 57.2546C34.4735 57.0298 34.6242 56.4246 34.6822 56.4246C34.6938 56.4246 34.8561 56.5226 35.0415 56.6494ZM47.8443 56.7128C48.5804 57.1797 48.534 57.099 48.308 57.4333C48.0704 57.7734 47.798 57.9406 47.514 57.9117C47.3343 57.8945 47.2995 57.8656 47.2358 57.6639C47.1836 57.5198 47.1662 57.3123 47.1894 57.1163C47.2184 56.8223 47.3227 56.4246 47.3749 56.4246C47.3865 56.4246 47.5951 56.5514 47.8443 56.7128ZM67.631 67.8722C66.1415 72.9043 64.878 76.0573 64.0376 76.8528L63.858 77.0257V76.8816C63.8638 75.8383 64.7215 73.2617 66.0314 70.4027C66.611 69.1231 68.0309 66.264 68.0657 66.2986C68.0773 66.3101 67.886 67.0191 67.631 67.8722ZM52.6664 67.7281C51.9419 70.5237 51.1711 72.7545 50.4408 74.1725C50.0931 74.8469 49.6642 75.4463 49.5367 75.4463C49.444 75.4463 49.4787 74.7258 49.6062 74.0802C49.8497 72.8179 50.4988 71.1232 51.4841 69.1922C52.0926 67.9933 52.8982 66.5465 52.9388 66.5811C52.9504 66.5926 52.8287 67.1114 52.6664 67.7281Z" fill="#3D1708"/>
<path d="M72.2672 39.2245C72.2672 39.2879 72.2844 39.3052 72.3016 39.2591C72.3187 39.2188 72.313 39.1669 72.2958 39.1496C72.2787 39.1265 72.2615 39.1611 72.2672 39.2245Z" fill="#3D1708"/>
<path d="M45.5257 42.8901C45.4098 42.9651 45.0331 43.2129 44.6911 43.4435C44.1 43.847 44.0652 43.8643 43.8218 43.8239C43.6595 43.8009 43.5436 43.8124 43.4914 43.8585C43.4277 43.9046 43.3755 43.9104 43.2886 43.8585C43.0278 43.7259 42.7612 43.9104 42.7612 44.2332C42.7612 44.383 42.7496 44.3888 42.5235 44.3658C42.3207 44.3485 42.3033 44.3542 42.3902 44.4176C42.4482 44.458 42.5119 44.4926 42.5409 44.4926C42.5641 44.4926 42.5873 44.6021 42.5873 44.7347C42.5931 45.4437 43.0915 45.4898 43.2016 44.7923C43.2306 44.6021 43.2538 44.5617 43.3176 44.6136C43.3581 44.6482 43.4566 44.6885 43.532 44.7116C43.6653 44.752 43.6479 44.775 43.219 45.1266C42.9698 45.3284 42.6916 45.5359 42.6047 45.582C42.4598 45.6569 42.4424 45.6512 42.3265 45.5186C42.2048 45.3745 42.112 45.0229 42.0309 44.383C41.9903 44.0775 41.9903 44.0775 42.1236 44.1467C42.2511 44.2159 42.2511 44.2159 42.1584 44.0833C42.1062 44.0084 42.0657 43.8585 42.0657 43.7432C42.0657 43.4147 41.9498 43.2533 41.7179 43.2533H41.5151L41.4977 43.6683C41.4803 44.1294 41.6716 45.386 41.8049 45.6685C41.915 45.899 42.2511 46.1238 42.4772 46.1181C42.6916 46.1123 43.0567 45.9048 43.5262 45.5128C44.4593 44.7462 46.0995 43.2533 46.1517 43.1265C46.2792 42.8037 45.9082 42.6653 45.5257 42.8901ZM44.0362 44.4003C44.0362 44.4119 43.9957 44.4522 43.9493 44.4926C43.8797 44.5502 43.8623 44.5502 43.8623 44.4695C43.8623 44.4176 43.9029 44.3773 43.9493 44.3773C43.9957 44.3773 44.0362 44.3888 44.0362 44.4003Z" fill="#3D1708"/>
<path d="M41.2023 43.3168C41.2023 43.3802 41.2195 43.3975 41.2366 43.3514C41.2538 43.311 41.2481 43.2592 41.2309 43.2419C41.2137 43.2188 41.1966 43.2534 41.2023 43.3168Z" fill="#3D1708"/>
<path d="M41.2599 43.5473C41.2599 43.6107 41.2771 43.628 41.2942 43.5819C41.3114 43.5415 41.3057 43.4896 41.2885 43.4723C41.2714 43.4493 41.2542 43.4839 41.2599 43.5473Z" fill="#3D1708"/>
<path d="M41.318 43.8354C41.318 43.8988 41.3352 43.9161 41.3523 43.8699C41.3695 43.8296 41.3638 43.7777 41.3466 43.7604C41.3295 43.7374 41.3123 43.7719 41.318 43.8354Z" fill="#3D1708"/>
<path d="M43.0165 46.6023C42.9122 46.683 42.9122 46.6888 43.0397 46.6254C43.1092 46.5908 43.1672 46.5505 43.1672 46.5389C43.1672 46.4928 43.1382 46.5044 43.0165 46.6023Z" fill="#3D1708"/>
<path d="M5.25169 76.3513C5.14157 76.3686 5.08941 76.4089 5.08941 76.4839C5.08941 76.6049 4.77644 76.6741 4.61416 76.5934C4.45767 76.5127 4.05197 76.5357 3.83753 76.6337C3.3333 76.8758 3.03192 77.5848 3.07249 78.4321C3.11885 79.3775 3.57092 80 4.22005 80C4.6953 80 4.98508 79.781 5.18214 79.268L5.28646 79.0086L5.14157 78.899C4.97349 78.7665 4.91554 78.7607 4.91554 78.876C4.91554 79.0259 4.6895 79.4178 4.57359 79.4812C4.35914 79.5907 4.17948 79.5446 3.99981 79.3371C3.76798 79.0777 3.69843 78.8126 3.70422 78.1843C3.70422 77.5848 3.82014 77.2217 4.05776 77.043C4.36494 76.8124 4.68371 77.0949 4.77644 77.6886C4.81121 77.9018 4.8286 77.9249 4.97929 77.9249H5.14736V77.3139C5.14736 76.7663 5.15896 76.7087 5.25169 76.726C5.34442 76.7432 5.35022 76.8643 5.3676 78.1382C5.37919 79.4928 5.37919 79.5331 5.26328 79.5677C5.18214 79.5907 5.14736 79.6542 5.14736 79.7752V79.9424H6.16162H7.17588V79.7752C7.17588 79.6599 7.1411 79.5907 7.06576 79.5677C6.96143 79.5389 6.94984 79.4639 6.93246 78.7031C6.91507 77.971 6.90348 77.8557 6.79336 77.7116C6.62528 77.4926 6.37027 77.4234 6.13844 77.5387L5.95877 77.6252V77.0603C5.95877 76.749 5.94138 76.455 5.924 76.4032C5.88922 76.3109 5.64 76.2936 5.25169 76.3513ZM6.36447 78.1324C6.39925 78.2131 6.42243 78.559 6.42243 78.9048C6.42243 79.5158 6.42243 79.5273 6.28333 79.5619C5.98195 79.6369 5.95877 79.585 5.95877 78.8472C5.95877 78.3053 5.97616 78.1439 6.0515 78.0748C6.1848 77.9422 6.30072 77.9595 6.36447 78.1324Z" fill="#3D1708"/>
<path d="M12.3509 76.3515C12.1829 76.3745 12.1597 76.3976 12.1597 76.5475C12.1597 76.6512 12.1886 76.7146 12.2408 76.7146C12.2872 76.7146 12.3683 76.755 12.4147 76.8068C12.4958 76.8818 12.5074 77.0951 12.5074 78.2133V79.5275L12.3625 79.5621C12.2466 79.5909 12.2176 79.637 12.2176 79.7696V79.9425H12.7392C13.2551 79.9425 13.2609 79.9425 13.2609 79.8042V79.6659L13.4289 79.833C13.6202 80.0232 13.8346 80.0463 14.0897 79.9137C14.2403 79.8388 14.2693 79.8388 14.3794 79.9137C14.5301 80.0175 14.6576 80.0232 14.8547 79.931C15.0517 79.8446 15.0633 79.5563 14.8721 79.5275C14.7446 79.5102 14.7388 79.4872 14.7098 78.6975C14.675 77.7695 14.6229 77.6254 14.2519 77.5158C13.9795 77.4351 13.6897 77.5158 13.4985 77.7176C13.1334 78.1038 13.4231 78.6802 13.8288 78.3689C13.8636 78.3401 13.8984 78.2133 13.8984 78.0923C13.8984 77.9309 13.9216 77.8674 13.9853 77.8674C14.0897 77.8674 14.1882 78.0461 14.1882 78.2421C14.1882 78.3689 14.1418 78.415 13.881 78.5303C13.4463 78.7205 13.2609 78.9511 13.2609 79.3143C13.2609 79.4699 13.2435 79.5967 13.2203 79.5967C13.0464 79.5909 13.029 79.4814 13.0174 77.9251L13.0001 76.3399L12.7682 76.3342C12.6407 76.3284 12.4495 76.3399 12.3509 76.3515ZM14.1882 79.101C14.1882 79.4757 13.9737 79.6659 13.8404 79.418C13.7361 79.2278 13.9332 78.8589 14.1476 78.8474C14.1708 78.8474 14.1882 78.9626 14.1882 79.101Z" fill="#3D1708"/>
<path d="M19.2538 76.6799C18.7611 76.9796 18.5061 77.6194 18.5467 78.4437C18.5757 79.0489 18.7785 79.5158 19.132 79.7983C19.3407 79.9597 19.3929 79.9712 19.7986 79.9712C20.1463 79.9654 20.297 79.9366 20.494 79.8386L20.7375 79.7118V79.2276C20.7375 78.7607 20.7433 78.7434 20.8824 78.7088C20.9983 78.68 21.0273 78.6339 21.0273 78.5013V78.3284H20.3897H19.7522V78.4956C19.7522 78.6281 19.787 78.6685 19.9435 78.7088C20.1231 78.7607 20.1289 78.778 20.1463 79.1066C20.1637 79.3775 20.1463 79.4639 20.0652 79.5216C19.8913 79.6484 19.6942 79.608 19.4914 79.4063C19.248 79.1642 19.161 78.8472 19.1668 78.2304C19.1668 77.4407 19.4102 76.945 19.7928 76.945C19.9319 76.945 20.1927 77.1698 20.239 77.3427C20.2564 77.3946 20.297 77.5445 20.3318 77.6771C20.3897 77.8961 20.4129 77.9249 20.5636 77.9249H20.7375V77.262V76.5934L20.494 76.5992C20.3549 76.5992 20.0768 76.5876 19.8681 76.5703C19.532 76.5415 19.4624 76.553 19.2538 76.6799Z" fill="#3D1708"/>
<path d="M15.1155 77.2336C15.1155 77.5621 15.1097 77.5794 14.9706 77.5794C14.8431 77.5794 14.8257 77.6025 14.8257 77.7812C14.8257 77.9599 14.8431 77.9829 14.9706 77.9829H15.1155V78.7553C15.1155 79.6084 15.1676 79.839 15.3821 79.937C15.5791 80.0234 15.7124 80.0177 15.9559 79.9024C16.1239 79.8217 16.1587 79.7756 16.1587 79.6199C16.1587 79.4355 16.1529 79.4297 15.9501 79.4643C15.8052 79.4874 15.724 79.4758 15.6893 79.4182C15.6603 79.3721 15.6371 79.032 15.6371 78.6573V77.9829H15.8689C16.095 77.9829 16.1007 77.9771 16.1007 77.7869C16.1007 77.5967 16.0892 77.5852 15.8863 77.5679L15.6661 77.5506L15.6487 77.2163L15.6313 76.8877H15.3763H15.1155V77.2336Z" fill="#3D1708"/>
<path d="M7.69746 77.5905C7.34392 77.7749 7.15846 78.1438 7.15266 78.703C7.14107 79.435 7.44824 79.9307 7.94668 79.9826C8.38715 80.0345 8.7407 79.7578 8.8682 79.2678L8.93196 79.0142L9.03048 79.314C9.23333 79.9077 9.72018 80.1555 10.1549 79.8846C10.2708 79.8154 10.3635 79.7405 10.3635 79.7232C10.3635 79.7002 10.4157 79.6195 10.4736 79.5445L10.5779 79.412L10.6997 79.6137C11.0764 80.2535 11.9631 80.0575 12.1892 79.2851C12.4326 78.4724 12.1196 77.6251 11.5285 77.4925C11.1459 77.4118 10.7344 77.6885 10.5722 78.1265L10.4852 78.3571V78.1554C10.4736 77.6942 10.0621 77.383 9.65063 77.5155C9.38982 77.602 9.16378 77.8441 9.03048 78.1899C8.97253 78.3456 8.92036 78.4205 8.91457 78.3629C8.91457 78.1726 8.68274 77.7576 8.51466 77.6423C8.25385 77.4579 7.99304 77.4406 7.69746 77.5905ZM8.13794 77.9133C8.28863 78.0113 8.35818 78.2591 8.35818 78.7318C8.35818 79.3082 8.24226 79.6137 8.02782 79.5849C7.83656 79.5561 7.73224 79.2794 7.73224 78.7894C7.72644 78.3052 7.77281 78.092 7.90611 77.9594C8.00464 77.8556 8.04521 77.8499 8.13794 77.9133ZM9.89985 78.1554C9.89985 78.3744 9.92303 78.4551 10.01 78.5012C10.1664 78.5819 10.2824 78.5761 10.3867 78.4666C10.4736 78.3859 10.4794 78.4147 10.4794 78.7606C10.4794 79.0603 10.462 79.1353 10.3983 79.1237C10.3519 79.1122 10.2534 79.1987 10.178 79.3082C9.99258 79.5791 9.80132 79.5791 9.64483 79.314C9.44198 78.9681 9.51153 78.0689 9.74916 77.9133C9.87087 77.8268 9.89985 77.8729 9.89985 78.1554ZM11.5632 78.017C11.7139 78.2476 11.7371 79.1007 11.598 79.3658C11.4531 79.6483 11.2792 79.6598 11.1459 79.3947C11.0068 79.0892 11.0358 78.1669 11.1981 77.9882C11.343 77.8268 11.4415 77.8383 11.5632 78.017Z" fill="#3D1708"/>
<path d="M16.6231 77.5676C16.4898 77.6367 16.368 77.7751 16.2579 77.9883C16.1072 78.2766 16.0956 78.34 16.113 78.8184C16.1362 79.4179 16.2405 79.6542 16.5709 79.8732C16.9476 80.1326 17.4924 79.9309 17.6953 79.4582C17.7648 79.3026 17.759 79.2795 17.6257 79.1758C17.4692 79.049 17.4808 79.0432 17.3533 79.291C17.22 79.562 16.994 79.6023 16.8143 79.4006C16.739 79.3141 16.681 79.1988 16.681 79.1469C16.681 79.0951 16.6636 78.9913 16.6462 78.9164C16.6115 78.7896 16.6173 78.7896 17.1737 78.7896H17.7416L17.7011 78.4379C17.6605 78.0287 17.5272 77.7232 17.3475 77.6021C17.1273 77.458 16.8491 77.4465 16.6231 77.5676ZM17.0519 77.9941C17.1041 78.0633 17.1447 78.1843 17.1447 78.2535C17.1447 78.3688 17.1157 78.3861 16.8897 78.3861H16.6289L16.681 78.2074C16.739 78.0172 16.8375 77.8673 16.9186 77.8673C16.9418 77.8673 17.0056 77.9249 17.0519 77.9941Z" fill="#3D1708"/>
<path d="M25.2931 77.5504C25.2003 77.6023 25.1076 77.6196 25.0902 77.5908C25.0728 77.562 24.5744 77.5389 23.9832 77.5447L22.911 77.5504L22.8936 77.9943L22.8762 78.4439H23.0559C23.2008 78.4439 23.2298 78.4208 23.2298 78.3113C23.2298 78.2364 23.2645 78.1384 23.3051 78.0865C23.3747 77.9943 23.6355 77.9078 23.6355 77.9712C23.6355 77.9943 23.4732 78.3574 23.2761 78.7782C22.9748 79.4238 22.8994 79.5391 22.7951 79.5275C22.685 79.5102 22.6792 79.4699 22.6618 78.5592C22.656 78.0404 22.6212 77.585 22.5922 77.5562C22.5691 77.5331 22.372 77.5274 22.1634 77.5504C21.7866 77.585 21.7808 77.5908 21.7808 77.7579C21.7808 77.879 21.8098 77.9251 21.8852 77.9251C22.088 77.9251 22.1286 78.0461 22.1286 78.686C22.1286 79.2336 22.117 79.32 22.0127 79.4238C21.7345 79.7005 21.6649 79.4987 21.6649 78.4496C21.6649 77.9078 21.6417 77.5735 21.6012 77.5504C21.5722 77.5274 21.3867 77.5274 21.1955 77.5504C20.8709 77.5908 20.8535 77.6023 20.8535 77.7464C20.8535 77.8502 20.8941 77.9136 20.9868 77.9539C21.1085 78.0116 21.1143 78.0519 21.1433 78.8185C21.1665 79.4641 21.1955 79.6659 21.2766 79.7869C21.3925 79.9598 21.5896 80.029 21.8272 79.9771C21.9141 79.9598 23.1892 79.9425 24.6671 79.9425L27.3448 79.9483V79.8042V79.6659L27.5128 79.833C27.7041 80.0232 27.9011 80.0463 28.1562 79.9137C28.301 79.8388 28.3532 79.8388 28.4575 79.9022C28.5619 79.9598 28.8748 79.9714 29.7964 79.9541L30.9961 79.9368V79.7696C30.9961 79.6543 30.9613 79.5909 30.886 79.5679C30.7816 79.5391 30.77 79.4641 30.7526 78.7033C30.7353 77.9712 30.7237 77.8559 30.6136 77.7118C30.4455 77.487 30.1905 77.4236 29.947 77.5447C29.8253 77.6081 29.7442 77.6196 29.7326 77.5792C29.7094 77.5158 29.5066 77.5043 29.1878 77.5562C28.9965 77.5908 28.9676 77.6138 28.9676 77.7522C28.9676 77.8617 29.0023 77.9193 29.0835 77.9424C29.1936 77.9712 29.1994 78.0231 29.1994 78.7551V79.5391H28.9965H28.7937V78.7897C28.7937 77.8847 28.7299 77.6772 28.4112 77.5447C28.1156 77.4236 27.8374 77.4813 27.594 77.7233C27.3621 77.9539 27.3274 78.2709 27.5244 78.4093C27.7447 78.5649 27.9823 78.3805 27.9823 78.0577C27.9823 77.8271 28.1098 77.804 28.2025 78.0116C28.3358 78.2998 28.2953 78.3747 27.9011 78.5534C27.4723 78.7436 27.3274 78.9511 27.3274 79.3488C27.3274 79.4872 27.31 79.5967 27.2926 79.5967C27.1535 79.5909 27.1245 79.4526 27.1013 78.7321C27.0839 78.1441 27.055 77.9078 26.9854 77.7752C26.8115 77.4582 26.3827 77.389 26.1566 77.6369C26.0639 77.7406 26.0523 77.7349 25.8552 77.6023C25.6118 77.4409 25.5249 77.4351 25.2931 77.5504ZM24.5512 78.7378C24.5628 79.4007 24.5512 79.5333 24.4759 79.5621C24.4063 79.5852 24.3889 79.5391 24.3889 79.2797C24.3889 78.9684 24.3889 78.9626 24.215 78.9626C24.1165 78.9626 24.0412 78.9915 24.0412 79.0318C24.0412 79.0722 24.0122 79.2047 23.9774 79.3258C23.9253 79.5218 23.9021 79.5391 23.7224 79.5391C23.6123 79.5391 23.5196 79.5275 23.5196 79.5102C23.5196 79.4929 23.6934 79.1298 23.9137 78.7033C24.2324 78.0577 24.3194 77.9251 24.4179 77.9366C24.528 77.9539 24.5338 78.0058 24.5512 78.7378ZM25.5365 78.7551C25.5423 79.1759 25.5249 79.5275 25.4959 79.5564C25.4669 79.5852 25.3742 79.5967 25.2931 79.5736L25.1424 79.5391V78.8531C25.1424 78.294 25.1598 78.1441 25.2351 78.0692C25.2873 78.0173 25.3742 77.9827 25.4264 77.9943C25.5075 78.0116 25.5191 78.1211 25.5365 78.7551ZM26.5218 78.7724C26.5333 79.4699 26.5276 79.5333 26.429 79.5621C26.1624 79.6486 26.1276 79.5736 26.1276 78.8474C26.1276 78.294 26.145 78.1441 26.2204 78.0692C26.2725 78.0173 26.3595 77.9827 26.4116 77.9943C26.4928 78.0116 26.5044 78.1268 26.5218 78.7724ZM30.1847 78.0923C30.2136 78.1557 30.2426 78.5015 30.2426 78.8704C30.2426 79.4814 30.231 79.5333 30.1267 79.5679C30.063 79.5852 29.9586 79.5852 29.8949 79.5679C29.7848 79.5333 29.779 79.4814 29.779 78.8474C29.779 78.3055 29.7964 78.1441 29.8717 78.075C29.9934 77.9539 30.1093 77.9597 30.1847 78.0923ZM28.2721 79.0952C28.2721 79.4007 28.104 79.6025 27.9533 79.4814C27.8316 79.3834 27.8432 79.1759 27.9881 78.9972C28.1677 78.7667 28.2721 78.8012 28.2721 79.0952Z" fill="#3D1708"/>
<path d="M31.5177 77.5616C31.3786 77.6366 31.2685 77.7576 31.1584 77.9766C30.9381 78.4032 30.9265 79.0891 31.1294 79.4811C31.4713 80.1613 32.2074 80.1613 32.5609 79.4811C32.6653 79.2793 32.6653 79.2793 32.532 79.1756C32.4566 79.1237 32.3871 79.0776 32.3755 79.0776C32.3639 79.0776 32.3059 79.1698 32.248 79.2793C32.0393 79.654 31.7032 79.5848 31.5757 79.141C31.4771 78.7836 31.4655 78.7894 32.0741 78.7894H32.6363L32.5957 78.432C32.5494 78.04 32.3987 77.7 32.2248 77.5962C32.0103 77.4694 31.7322 77.4521 31.5177 77.5616ZM31.9176 77.9421C31.9524 77.9882 31.9988 78.1035 32.0161 78.2014L32.0567 78.3859H31.7843C31.5293 78.3859 31.5119 78.3801 31.5467 78.2533C31.5989 78.0804 31.7379 77.8671 31.8017 77.8671C31.8307 77.8671 31.8828 77.9017 31.9176 77.9421Z" fill="#3D1708"/>
<path d="M33.5753 77.5442C33.4594 77.5903 33.3724 77.6018 33.3087 77.5615C33.2565 77.5269 33.0769 77.5211 32.8914 77.5442C32.5726 77.5845 32.561 77.5961 32.561 77.7575C32.561 77.867 32.59 77.9246 32.648 77.9246C32.8045 77.9246 32.8508 78.1437 32.8508 78.8411C32.8508 79.5328 32.8508 79.5386 32.7059 79.5732C32.5958 79.602 32.561 79.6481 32.561 79.7691V79.9305L34.0274 79.9536C35.6328 79.9824 35.7313 79.9651 35.8936 79.6539C36.0153 79.4175 36.0037 78.9737 35.8704 78.7547C35.8124 78.6567 35.6618 78.5299 35.54 78.4722C35.4125 78.4203 35.2676 78.3339 35.2155 78.282C35.0822 78.1725 35.0822 77.9304 35.2097 77.8843C35.3256 77.8382 35.5748 78.1091 35.5748 78.2762C35.5748 78.3627 35.6154 78.3858 35.7487 78.3858H35.9284L35.911 77.9361L35.8936 77.4923L35.4705 77.4981C34.9721 77.4981 34.775 77.6134 34.6591 77.9534C34.5142 78.3915 34.6939 78.7489 35.1749 78.9968C35.4937 79.1524 35.5458 79.2331 35.4937 79.4521C35.4183 79.7346 35.0996 79.5962 34.9721 79.2216C34.9083 79.0429 34.8561 78.9852 34.7402 78.9737C34.5953 78.9564 34.5895 78.9622 34.5895 79.2792C34.5895 79.5559 34.5722 79.602 34.4968 79.5732C34.4446 79.5559 34.3925 79.5386 34.3809 79.5386C34.3693 79.5386 34.3577 79.1985 34.3577 78.7892C34.3577 77.8324 34.265 77.5788 33.8941 77.4981C33.8129 77.4808 33.6738 77.4981 33.5753 77.5442ZM33.7781 78.0918C33.8071 78.1552 33.8361 78.501 33.8361 78.8699C33.8361 79.4809 33.8245 79.5328 33.7202 79.5674C33.6564 79.5847 33.5521 79.5847 33.4884 79.5674C33.384 79.5328 33.3724 79.4809 33.3724 78.8642C33.3724 78.3223 33.3898 78.1725 33.471 78.086C33.5927 77.9534 33.7028 77.9534 33.7781 78.0918Z" fill="#3D1708"/>
<path d="M36.5601 77.5676C36.4268 77.6367 36.3051 77.7751 36.1949 77.9883C36.0443 78.2766 36.0327 78.34 36.05 78.8184C36.0732 79.4179 36.1776 79.6542 36.5079 79.8732C36.8846 80.1326 37.4294 79.9309 37.6323 79.4582C37.7018 79.3026 37.696 79.2795 37.5627 79.1758C37.4063 79.049 37.4178 79.0432 37.2903 79.291C37.157 79.562 36.931 79.6023 36.7513 79.4006C36.676 79.3141 36.618 79.1988 36.618 79.1469C36.618 79.0951 36.6006 78.9913 36.5833 78.9164C36.5485 78.7896 36.5543 78.7896 37.1107 78.7896H37.6787L37.6381 78.4379C37.5975 78.0287 37.4642 77.7232 37.2845 77.6021C37.0643 77.458 36.7861 77.4465 36.5601 77.5676ZM36.989 77.9941C37.0411 78.0633 37.0817 78.1843 37.0817 78.2535C37.0817 78.3688 37.0527 78.3861 36.8267 78.3861H36.5659L36.618 78.2074C36.676 78.0172 36.7745 77.8673 36.8557 77.8673C36.8788 77.8673 36.9426 77.9249 36.989 77.9941Z" fill="#3D1708"/>
</svg>
